<svg xmlns="http://www.w3.org/2000/svg" xmlns:xlink="http://www.w3.org/1999/xlink" width="52" height="52" viewBox="0 0 52 52">
    <defs>
        <path id="7o3qpzyoqa" d="M0 0L51.999 0 51.999 52 0 52z"/>
    </defs>
    <g fill="none" fill-rule="evenodd">
        <g>
            <g>
                <g>
                    <g transform="translate(-30 -1048) translate(30 785) translate(0 263)">
                        <mask id="e8c66dwz0b" fill="#fff">
                            <use xlink:href="#7o3qpzyoqa"/>
                        </mask>
                        <path fill="#5F5F5F" d="M50.424 42.808c0 .724-.589 1.313-1.313 1.313H2.889c-.725 0-1.314-.589-1.314-1.313v-3.414h48.849v3.414zm-33.09 7.615h17.333v-4.726H17.333v4.726zm-8.93-22.079l4.834.745v8.729H8.403v-9.474zm11.244-1.88v11.354h-4.835v-8.92l4.835-2.434zm6.41.783v10.57h-4.835V26.17l4.835 1.078zm6.41-4.595v15.166h-4.834v-10.85l4.834-4.316zm5.588.682v14.484h-4.012v-15.83l4.012 1.346zm5.54-3.422v17.906H39.63V23.142l3.964-3.23zM8.402 8.93h35.192v8.949l-4.911 4.004-5.178-1.738c-.268-.09-.563-.029-.775.16l-6.108 5.452-6.015-1.34c-.178-.042-.364-.016-.526.065l-6.185 3.115-5.494-.845V8.93zm0-1.578h35.191V1.575H8.404v5.777zm40.708 0c-.436 0-.788.355-.788.79 0 .433.352.788.788.788.724 0 1.313.588 1.313 1.313v27.575H45.17V.788c0-.435-.353-.788-.788-.788H7.616c-.436 0-.788.353-.788.787v37.03H1.575V10.244c0-.725.59-1.313 1.314-1.313.435 0 .788-.355.788-.788 0-.435-.353-.79-.788-.79C1.296 7.352 0 8.65 0 10.242v32.566c0 1.593 1.297 2.889 2.89 2.889h12.868v4.726h-5.515c-.435 0-.788.354-.788.79 0 .434.353.787.788.787h31.515c.434 0 .788-.353.788-.788 0-.435-.354-.789-.788-.789h-5.515v-4.726H49.11c1.592 0 2.889-1.296 2.889-2.89V10.244c0-1.593-1.297-2.89-2.89-2.89z" mask="url(#e8c66dwz0b)"/>
                    </g>
                    <path fill="#5F5F5F" d="M30.171 3.911c-.147.137-.23.346-.23.558 0 .198.083.409.23.556.148.146.347.23.558.23.2 0 .409-.084.556-.23.147-.147.232-.358.232-.556 0-.212-.085-.421-.232-.558-.293-.293-.819-.293-1.114 0M34.93 3.68c-.441 0-.787.346-.787.79 0 .428.346.786.788.786.43 0 .788-.358.788-.787 0-.443-.358-.79-.788-.79M38.576 3.9c-.148.148-.231.357-.231.568 0 .2.083.409.23.557.148.146.347.23.558.23.21 0 .41-.084.556-.24.148-.148.231-.347.231-.547 0-.21-.083-.41-.23-.567-.294-.284-.82-.294-1.114 0M26.96 14.183h6.295c.436 0 .79-.353.79-.789 0-.434-.354-.787-.79-.787H26.96c-.434 0-.788.353-.788.787 0 .436.354.789.788.789M12.868 14.183h9.889c.434 0 .788-.353.788-.789 0-.434-.354-.787-.788-.787h-9.889c-.434 0-.787.353-.787.787 0 .436.353.789.787.789M26.953 17.86h-5.24c-.435 0-.788.352-.788.788 0 .434.353.787.788.787h5.24c.434 0 .787-.353.787-.787 0-.436-.353-.788-.787-.788M18.298 18.647c0-.434-.353-.787-.787-.787h-4.643c-.435 0-.787.353-.787.787 0 .435.352.789.787.789h4.643c.434 0 .787-.354.787-.789" transform="translate(-30 -1048) translate(30 785) translate(0 263)"/>
                </g>
            </g>
        </g>
    </g>
</svg>
