<svg xmlns="http://www.w3.org/2000/svg" xmlns:xlink="http://www.w3.org/1999/xlink" width="52" height="52" viewBox="0 0 52 52">
    <defs>
        <path id="kerrbg3hqa" d="M0 0L52 0 52 51.999 0 51.999z"/>
    </defs>
    <g fill="none" fill-rule="evenodd">
        <g>
            <g transform="translate(-30 -785) translate(30 785)">
                <mask id="xwhj2xryvb" fill="#fff">
                    <use xlink:href="#kerrbg3hqa"/>
                </mask>
                <path fill="#5F5F5F" d="M49.26 49.256c-1.499 1.508-4.114 1.508-5.616 0L27.742 33.281l2.217-2.214 15.587 15.587c.154.154.355.232.557.232.202 0 .404-.078.557-.232.308-.308.308-.806 0-1.115L31.073 29.953l2.304-2.3 15.882 15.955c1.55 1.556 1.55 4.091 0 5.648zm-37.555-2.184l-2.82-2.816 34.698-34.69 2.836 2.833-34.714 34.673zM8.775 50c-.566.563-1.487.566-2.054 0L2 45.286c-.273-.274-.425-.637-.425-1.024 0-.386.152-.75.425-1.024l1.819-1.814 6.77 6.762L8.775 50zM39.647 5.637l2.819 2.815L7.77 43.142 4.933 40.31 39.648 5.637zm-26.3 13.184c-.148-.147-.349-.232-.559-.232-.21 0-.41.085-.559.232l-1.68 1.689c-1.099 1.103-2.56 1.711-4.113 1.711-1.29 0-2.515-.419-3.523-1.193l11.888-11.94c.305-.309.305-.805 0-1.112L8.6 1.746c2.824-.56 5.806.317 7.869 2.39 2.14 2.149 3.005 5.194 2.328 8.166-.126.288-.071.635.164.87l5.44 5.465-2.322 2.321-4.91-4.908c-.308-.31-.806-.31-1.114 0-.309.306-.309.806 0 1.112l4.909 4.909-2.196 2.195-5.42-5.445zM1.744 8.638l5.641 5.665-2.724 2.737c-.184-.157-.363-.322-.535-.495-2.064-2.073-2.937-5.066-2.382-7.907zM50 2.006l-2.82 8.924-6.068-6.06L50 2.007zM34.491 26.54l13.611-13.595c.09-.09.156-.2.194-.32l3.666-11.6c.09-.28.014-.587-.195-.796-.21-.207-.515-.282-.797-.191L39.416 3.763c-.117.037-.226.104-.315.192l-13.585 13.57-5.123-5.149c.683-3.412-.349-6.882-2.807-9.352-2.797-2.81-7.02-3.76-10.76-2.417-.253.09-.444.305-.502.567-.06.263.02.538.21.73l6.597 6.627-4.634 4.655-6.594-6.622c-.191-.19-.468-.272-.73-.212-.265.06-.48.25-.57.503-1.335 3.754-.39 7.992 2.407 10.802.173.174.354.34.54.5L1.206 20.51c-.305.306-.305.804.001 1.111 1.397 1.403 3.253 2.176 5.23 2.176 1.974 0 3.832-.773 5.229-2.176l1.122-1.127 4.863 4.884-13.833 13.82-.248-.249c-.307-.306-.806-.309-1.114 0-.307.309-.307.807.001 1.115l.246.246-1.817 1.814c-.573.57-.887 1.33-.887 2.138 0 .808.314 1.567.887 2.137l4.722 4.717c.589.587 1.364.882 2.138.882.775 0 1.55-.295 2.14-.883l1.818-1.817.248.248c.153.153.355.23.556.23.202 0 .405-.077.558-.23.307-.308.307-.808 0-1.114l-.248-.246 13.808-13.792L42.53 50.368c1.047 1.053 2.441 1.631 3.922 1.631 1.482 0 2.877-.578 3.924-1.631 2.16-2.171 2.16-5.702 0-7.873L34.491 26.54z" mask="url(#xwhj2xryvb)"/>
            </g>
        </g>
    </g>
</svg>
