<svg xmlns="http://www.w3.org/2000/svg" width="40" height="27" viewBox="0 0 40 27">
    <g fill="none" fill-rule="evenodd">
        <g fill="#4C4C4C" fill-rule="nonzero">
            <g>
                <g>
                    <path d="M38 23c1.105 0 2 .895 2 2s-.895 2-2 2H2c-1.105 0-2-.895-2-2s.895-2 2-2h36zm0-11.5c1.105 0 2 .895 2 2s-.895 2-2 2H2c-1.105 0-2-.895-2-2s.895-2 2-2h36zM38 0c1.105 0 2 .895 2 2s-.895 2-2 2H2C.895 4 0 3.105 0 2s.895-2 2-2h36z" transform="translate(-567 -102) translate(30 90) translate(537 12)"/>
                </g>
            </g>
        </g>
    </g>
</svg>
