<svg xmlns="http://www.w3.org/2000/svg" width="29" height="29" viewBox="0 0 29 29">
    <g fill="none" fill-rule="evenodd">
        <g fill="#4C4C4C" fill-rule="nonzero">
            <g>
                <g>
                    <path d="M9.414.586L20.02 11.192 30.627.586c.74-.74 1.916-.78 2.702-.117l.127.117c.78.78.78 2.047 0 2.828L22.849 14.02l10.607 10.607c.78.781.78 2.048 0 2.829-.781.78-2.048.78-2.829 0L20.02 16.849 9.414 27.456c-.74.74-1.915.779-2.701.117l-.127-.117c-.781-.781-.781-2.048 0-2.829L17.192 14.02 6.586 3.414c-.781-.78-.781-2.047 0-2.828.78-.781 2.047-.781 2.828 0z" transform="translate(-573 -101) translate(0 70) translate(567 31)"/>
                </g>
            </g>
        </g>
    </g>
</svg>
