<svg xmlns="http://www.w3.org/2000/svg" xmlns:xlink="http://www.w3.org/1999/xlink" width="53" height="53" viewBox="0 0 53 53">
    <defs>
        <path id="1g87d60bea" d="M0 0.437L50.892 0.437 50.892 50.561 0 50.561z"/>
        <path id="riw56m2nfc" d="M0.162 0.163L22.747 0.163 22.747 22.589 0.162 22.589z"/>
    </defs>
    <g fill="none" fill-rule="evenodd">
        <g>
            <g>
                <g>
                    <path fill="#5F5F5F" d="M1.63 10.204l2.997-.475c.292-.046.532-.25.624-.528.09-.269.203-.54.337-.804.133-.263.108-.576-.065-.814L3.74 5.147c.428-.525.91-1.005 1.44-1.431l2.457 1.768c.237.17.549.196.81.07.263-.129.538-.246.82-.34.28-.091.484-.33.53-.618l.478-2.978c.676-.073 1.36-.073 2.035 0l.477 2.977c.046.29.25.527.53.618.28.095.554.211.817.341.264.128.576.103.814-.068l2.455-1.77c.53.426 1.013.906 1.439 1.43l-1.783 2.438c-.172.236-.198.547-.068.807.131.263.248.534.344.815.093.275.333.478.623.523l2.995.475c.038.34.056.68.056 1.01 0 .331-.018.67-.056 1.011l-2.995.472c-.29.047-.53.25-.623.526-.096.28-.213.55-.343.812-.13.26-.105.57.067.808l1.783 2.44c-.427.525-.91 1.004-1.44 1.43l-2.454-1.77c-.24-.173-.555-.2-.818-.066-.263.131-.537.246-.816.339-.278.092-.48.33-.527.618l-.477 2.976c-.67.069-1.367.069-2.035 0l-.478-2.977c-.046-.287-.25-.525-.528-.617-.29-.097-.562-.211-.809-.337-.264-.135-.584-.11-.823.063l-2.457 1.771c-.529-.426-1.011-.906-1.439-1.43l1.783-2.44c.173-.237.198-.552.065-.814-.134-.262-.247-.532-.336-.801-.093-.28-.333-.484-.625-.53l-2.997-.473c-.036-.337-.055-.673-.055-1.011 0-.337.019-.675.055-1.01m-.825 3.475l3.118.492.053.125-1.856 2.539c-.199.273-.2.642-.002.916.716.991 1.587 1.856 2.588 2.573.277.196.648.196.923-.002l2.557-1.842c.041.017.083.035.126.051l.497 3.098c.054.333.315.594.65.65.595.097 1.211.147 1.832.147.622 0 1.238-.05 1.833-.147.335-.056.597-.317.649-.65l.497-3.099c.042-.016.084-.033.126-.053l2.554 1.845c.274.197.647.2.924.003 1-.717 1.872-1.583 2.588-2.575.199-.274.197-.642-.003-.915l-1.854-2.54c.018-.04.035-.082.052-.124l3.12-.492c.336-.052.6-.314.655-.646.1-.612.153-1.226.153-1.819s-.052-1.206-.153-1.82c-.055-.332-.319-.592-.655-.645l-3.12-.493-.052-.124 1.854-2.536c.2-.272.202-.64.004-.914-.715-.994-1.587-1.861-2.59-2.577-.276-.199-.647-.196-.923.003L14.395 3.95c-.042-.019-.083-.036-.125-.052l-.497-3.1c-.052-.334-.314-.594-.65-.65-1.206-.198-2.458-.198-3.664 0-.335.056-.596.316-.65.648L8.312 3.9l-.124.05L5.63 2.108c-.275-.2-.648-.2-.923-.001-1.003.716-1.874 1.582-2.589 2.574-.197.274-.195.643.003.915l1.856 2.536-.053.124-3.118.493c-.333.053-.597.312-.653.644-.1.6-.152 1.212-.152 1.821 0 .61.051 1.222.152 1.822.056.332.32.59.653.643" transform="translate(-30 -1582) translate(30 785) translate(0 797)"/>
                    <path fill="#5F5F5F" d="M11.292 9.388c1.014 0 1.838.818 1.838 1.825 0 1.007-.824 1.826-1.838 1.826-1.014 0-1.839-.819-1.839-1.826 0-1.007.825-1.825 1.839-1.825m0 5.216c1.883 0 3.413-1.521 3.413-3.39 0-1.87-1.53-3.39-3.413-3.39-1.882 0-3.414 1.52-3.414 3.39 0 1.869 1.532 3.39 3.414 3.39M47.27 10.17v18.776c0 .432.352.784.787.784.435 0 .788-.352.788-.784V10.17c0-.432-.353-.783-.788-.783-.435 0-.787.35-.787.783M39.916 17.471v9.39c0 .431.353.782.789.782.434 0 .787-.35.787-.781v-9.39c0-.432-.353-.783-.787-.783-.436 0-.789.351-.789.782M32.563 21.644v7.302c0 .432.354.784.789.784.434 0 .787-.352.787-.784v-7.302c0-.43-.353-.782-.787-.782-.435 0-.789.352-.789.782" transform="translate(-30 -1582) translate(30 785) translate(0 797)"/>
                    <g transform="translate(-30 -1582) translate(30 785) translate(0 797) translate(0 1.077)">
                        <mask id="4g6lkoqtyb" fill="#fff">
                            <use xlink:href="#1g87d60bea"/>
                        </mask>
                        <path fill="#5F5F5F" d="M25.998 23.959c-.435 0-.788.35-.788.782l-.001 21.125h-5.776V29.958c0-.43-.353-.782-.787-.782-.435 0-.788.351-.788.782v15.908h-5.777v-12.78c0-.432-.353-.781-.789-.781-.434 0-.787.35-.787.78v12.78H4.727V35.388l10.944-10.868 2.333 2.317c.295.293.818.293 1.114 0l12.617-12.53 2.596 2.578c.148.146.347.229.557.229.21 0 .409-.083.557-.23l13.12-13.026 1.107 1.102 1.22-4.522L46.34 1.65l1.11 1.1-12.562 12.475-2.595-2.579c-.149-.146-.348-.229-.558-.229-.208 0-.409.083-.556.23L18.56 25.175l-2.333-2.315c-.308-.307-.806-.307-1.114 0L4.727 33.174v-8.43c0-.432-.352-.783-.787-.783H.788c-.435 0-.789.35-.789.782 0 .433.354.783.79.783h2.363v5.736H.788c-.435 0-.789.351-.789.783 0 .432.354.783.79.783h2.363v5.735H.788c-.435 0-.789.351-.789.784 0 .431.354.782.79.782h2.363v5.737H.788c-.435 0-.789.35-.789.783 0 .43.354.78.79.78h2.363v2.348c0 .433.352.784.788.784.435 0 .787-.351.787-.784V47.43h21.271c.435 0 .788-.35.788-.781V24.74c0-.431-.353-.782-.788-.782" mask="url(#4g6lkoqtyb)"/>
                    </g>
                    <g transform="translate(-30 -1582) translate(30 785) translate(0 797) translate(29.25 29.046)">
                        <mask id="29ts62sayd" fill="#fff">
                            <use xlink:href="#riw56m2nfc"/>
                        </mask>
                        <path fill="#5F5F5F" d="M21.115 12.388l-2.997.473c-.29.046-.531.25-.624.527-.093.28-.21.55-.34.81-.131.26-.107.572.066.809l1.784 2.44c-.428.524-.91 1.004-1.439 1.43l-2.456-1.772c-.238-.17-.554-.195-.816-.065-.265.132-.54.246-.817.338-.279.093-.481.33-.527.618l-.478 2.976c-.67.07-1.36.07-2.035 0l-.479-2.976c-.045-.288-.248-.525-.526-.618-.292-.096-.564-.21-.81-.335-.265-.134-.583-.11-.823.062L5.34 18.876c-.529-.425-1.01-.905-1.439-1.43l1.785-2.44c.173-.238.197-.552.063-.814-.133-.26-.245-.53-.336-.802-.093-.279-.333-.483-.624-.529l-2.998-.473c-.036-.335-.054-.674-.054-1.01 0-.337.018-.674.054-1.011l2.998-.474c.29-.046.531-.25.624-.529.09-.27.203-.54.336-.803.134-.262.11-.576-.065-.813L3.902 5.31c.427-.525.91-1.005 1.439-1.431l2.457 1.768c.238.173.55.197.811.07.263-.13.538-.246.82-.34.279-.091.483-.33.528-.618l.48-2.978c.676-.07 1.36-.07 2.034 0l.478 2.978c.046.288.25.527.528.618.283.094.556.21.819.34.264.128.576.105.813-.067l2.456-1.771c.53.426 1.012.906 1.44 1.43l-1.784 2.44c-.172.235-.198.545-.068.806.13.262.248.533.34.812.094.277.334.48.625.526l2.997.474c.037.342.056.68.056 1.011 0 .33-.019.668-.056 1.01m1.48-2.83c-.055-.332-.318-.593-.653-.646L18.82 8.42l-.052-.125 1.854-2.536c.2-.27.2-.64.005-.914-.714-.993-1.587-1.859-2.592-2.577-.277-.197-.647-.196-.92.003l-2.558 1.843c-.042-.018-.082-.036-.125-.052l-.497-3.1c-.054-.334-.314-.594-.649-.65-1.206-.198-2.458-.198-3.665 0-.335.056-.595.316-.649.648l-.498 3.102-.124.05-2.558-1.841c-.276-.2-.648-.2-.923-.003-1.002.718-1.875 1.584-2.59 2.577-.197.273-.196.643.004.914l1.855 2.536c-.018.042-.034.083-.053.125l-3.119.492c-.333.053-.595.312-.652.644-.1.603-.152 1.216-.152 1.822 0 .605.052 1.218.152 1.821.057.332.319.59.652.644l3.12.493.052.124-1.856 2.538c-.199.273-.2.642-.001.916.716.992 1.588 1.857 2.588 2.572.275.197.65.197.923 0l2.556-1.843.126.051.498 3.098c.054.335.316.595.65.65.597.1 1.214.147 1.831.147.618 0 1.234-.048 1.832-.147.335-.055.596-.315.65-.65l.497-3.099c.043-.016.084-.033.126-.053l2.557 1.845c.273.198.644.198.922.003 1.002-.717 1.873-1.582 2.589-2.574.197-.275.196-.643-.002-.916l-1.856-2.539c.018-.04.034-.082.052-.123l3.122-.493c.335-.053.598-.313.652-.647.1-.614.153-1.226.153-1.818 0-.592-.052-1.205-.153-1.82" mask="url(#29ts62sayd)"/>
                    </g>
                    <path fill="#5F5F5F" d="M40.704 42.248c-1.014 0-1.838-.819-1.838-1.825 0-1.008.824-1.826 1.838-1.826 1.014 0 1.839.818 1.839 1.826 0 1.006-.825 1.825-1.839 1.825m0-5.216c-1.881 0-3.413 1.521-3.413 3.391 0 1.869 1.532 3.39 3.413 3.39 1.882 0 3.414-1.521 3.414-3.39 0-1.87-1.532-3.39-3.414-3.39" transform="translate(-30 -1582) translate(30 785) translate(0 797)"/>
                </g>
            </g>
        </g>
    </g>
</svg>
