<svg xmlns="http://www.w3.org/2000/svg" width="52" height="52" viewBox="0 0 52 52">
    <g fill="none" fill-rule="evenodd">
        <g fill="#5F5F5F">
            <g>
                <g>
                    <path d="M33.093 29.414h7.875v-7.88h-7.875v7.88zm17.329 8.404H1.576V9.192c0-.724.588-1.313 1.312-1.313h5.923c-.373 1.13-.583 2.335-.583 3.588 0 2.811 1.09 5.761 2.575 8.491H3.939c-.434 0-.788.353-.788.788 0 .435.354.789.788.789h7.775c2.078 3.377 4.594 6.269 6.108 7.879H3.939c-.434 0-.788.353-.788.787 0 .436.354.789.788.789h6.566v4.464c0 .435.352.788.789.788.435 0 .786-.353.786-.788V30.99h19.437v4.464c0 .435.352.788.79.788.433 0 .786-.353.786-.788V30.99h14.966c.434 0 .786-.353.786-.789 0-.434-.352-.787-.786-.787h-5.515v-7.88h5.515c.434 0 .786-.353.786-.788 0-.435-.352-.788-.786-.788h-5.515V10.24c0-.435-.354-.787-.79-.787-.433 0-.786.352-.786.787v9.718h-12.38c1.484-2.73 2.573-5.68 2.573-8.49 0-1.254-.208-2.459-.582-3.589h18.53c.724 0 1.313.59 1.313 1.313v28.626zm0 4.991c0 .724-.589 1.313-1.312 1.313H2.888c-.724 0-1.312-.59-1.312-1.313v-3.415h48.846v3.415zm-33.09 7.616h17.334v-4.728H17.332v4.728zm10.344-28.89h3.841v7.879H21.57c1.512-1.61 4.03-4.502 6.107-7.88zM19.695 1.576c5.453 0 9.89 4.437 9.89 9.891 0 6.984-7.743 15.416-9.89 17.62-2.147-2.203-9.89-10.63-9.89-17.62 0-5.455 4.435-9.89 9.89-9.89zM49.11 6.304H29.92C28.027 2.57 24.16 0 19.694 0 15.231 0 11.363 2.57 9.47 6.304H2.888C1.296 6.304 0 7.6 0 9.192V42.81c0 1.593 1.296 2.888 2.888 2.888h12.87v4.728h-5.515c-.436 0-.79.352-.79.787 0 .436.354.788.79.788h31.512c.436 0 .79-.352.79-.788 0-.435-.354-.787-.79-.787h-5.513v-4.728H49.11c1.593 0 2.888-1.296 2.888-2.888V9.192c0-1.592-1.295-2.888-2.888-2.888z" transform="translate(-30 -1310) translate(30 785) translate(0 525)"/>
                    <path d="M17.063 17.332l-2.476-5.777h10.216l-2.476 5.777h-5.264zm6.509 1.099l2.945-6.876h.532c.434 0 .788-.353.788-.789 0-.434-.354-.787-.788-.787h-1.63l-2.107-3.913c-.204-.385-.68-.53-1.066-.321-.384.206-.526.684-.321 1.067L23.63 9.98h-7.868l1.703-3.167c.207-.383.063-.861-.32-1.067-.383-.21-.862-.064-1.067.32L13.971 9.98h-1.628c-.437 0-.79.353-.79.787 0 .436.353.789.79.789h.53l2.946 6.876c.125.29.41.477.725.477h6.302c.316 0 .601-.188.726-.477z" transform="translate(-30 -1310) translate(30 785) translate(0 525)"/>
                </g>
            </g>
        </g>
    </g>
</svg>
