<svg xmlns="http://www.w3.org/2000/svg" xmlns:xlink="http://www.w3.org/1999/xlink" width="130" height="34" viewBox="0 0 130 34">
    <defs>
        <path id="jazz5m38mb" d="M0.277 0.252L16.796 0.252 16.796 23.856 0.277 23.856z"/>
        <path id="i10wibqokd" d="M0 32.433L129.513 32.433 129.513 0.363 0 0.363z"/>
        <filter id="ypdcaixata">
            <feColorMatrix in="SourceGraphic" values="0 0 0 0 0.800000 0 0 0 0 0.800000 0 0 0 0 0.800000 0 0 0 1.000000 0"/>
        </filter>
    </defs>
    <g fill="none" fill-rule="evenodd">
        <g>
            <g filter="url(#ypdcaixata)" transform="translate(-31 -1351) translate(0 1147)">
                <g transform="translate(31 204.36)">
                    <path fill="#FA2828" d="M77.484 11.15c-2.513 0-4.557 2.045-4.557 4.558s2.044 4.557 4.557 4.557c2.513 0 4.557-2.044 4.557-4.557 0-2.513-2.044-4.557-4.557-4.557m0 12.816c-4.555 0-8.26-3.705-8.26-8.26 0-4.554 3.705-8.259 8.26-8.259 4.554 0 8.26 3.705 8.26 8.26 0 4.554-3.706 8.259-8.26 8.259"/>
                    <g transform="translate(86.799 .11)">
                        <mask id="0ompp7da9c" fill="#fff">
                            <use xlink:href="#jazz5m38mb"/>
                        </mask>
                        <path fill="#FA2828" d="M8.536 23.856c-4.554 0-8.259-3.705-8.259-8.26 0-4.554 3.705-8.259 8.26-8.259h1.236v3.703H8.536c-2.512 0-4.557 2.044-4.557 4.557 0 2.512 2.045 4.557 4.557 4.557 2.513 0 4.557-2.045 4.557-4.557V.252h3.703v15.345c0 4.554-3.706 8.259-8.26 8.259" mask="url(#0ompp7da9c)"/>
                    </g>
                    <path fill="#FA2828" d="M113.187 11.15c-2.513 0-4.558 2.045-4.558 4.558s2.045 4.557 4.558 4.557c2.512 0 4.556-2.044 4.556-4.557 0-2.513-2.044-4.557-4.556-4.557m0 12.816c-4.555 0-8.26-3.705-8.26-8.26 0-4.554 3.705-8.259 8.26-8.259 4.554 0 8.259 3.705 8.259 8.26 0 4.554-3.705 8.259-8.26 8.259"/>
                    <mask id="8nfp6h2nwe" fill="#fff">
                        <use xlink:href="#i10wibqokd"/>
                    </mask>
                    <path fill="#FA2828" d="M125.822 14.015L129.513 14.015 129.513 10.324 125.822 10.324zM125.822 21.423L129.513 21.423 129.513 17.732 125.822 17.732zM59.556 32.433h-.383v-3.702h.383c2.555 0 4.633-2.078 4.633-4.633v-8.39c0-2.555-2.078-4.634-4.633-4.634-2.554 0-4.633 2.08-4.633 4.634 0 2.554 2.079 4.632 4.633 4.632h1.237v3.703h-1.237c-4.596 0-8.335-3.74-8.335-8.335 0-4.596 3.74-8.336 8.335-8.336 4.596 0 8.336 3.74 8.336 8.336v8.39c0 4.596-3.74 8.335-8.336 8.335" mask="url(#8nfp6h2nwe)"/>
                    <path fill="#4D4B49" d="M2.137 11.936c0-.75-.15-1.273-.644-1.566-.08-.046-.162-.07-.244-.012-.18.121-.734.661-.968.92-.22.247-.281.395-.281.793v7.926c0 .66.148 1.128.639 1.383.085.046.165.063.246.012.18-.108.735-.584.967-.814.223-.22.285-.346.285-.7v-7.942zM16.22 11.936c0-.75-.146-1.273-.64-1.566-.082-.046-.163-.07-.244-.012-.176.121-.733.661-.968.92-.224.247-.28.395-.28.793v7.926c0 .66.145 1.128.64 1.383.083.046.158.063.246.012.178-.108.73-.584.967-.814.223-.22.278-.346.278-.7v-7.942zM11.552 16.322c.626.322.993.686.998 1.27.005.103-.014.185-.104.238-.19.12-.905.415-1.236.523-.31.106-.465.098-.799-.07l-5.574-2.844c-.703-.355-1.132-.75-1.169-1.353-.005-.1.01-.192.106-.238.2-.115.98-.379 1.333-.473.343-.092.512-.072.883.115l5.562 2.832zM31.588 11.936c0-.75-.147-1.273-.64-1.566-.078-.046-.16-.07-.242-.012-.181.121-.737.661-.972.92-.22.247-.278.395-.278.793v7.926c0 .66.148 1.128.638 1.383.084.046.162.063.248.012.177-.108.732-.584.968-.814.222-.22.278-.346.278-.7v-7.942zM45.672 11.936c0-.75-.14-1.273-.639-1.566-.08-.046-.162-.07-.245-.012-.178.121-.73.661-.965.92-.224.247-.284.395-.284.793v7.926c0 .66.152 1.128.643 1.383.082.046.165.063.245.012.178-.108.731-.584.968-.814.222-.22.277-.346.277-.7v-7.942zM41.01 16.322c.62.322.992.686.998 1.27 0 .103-.02.185-.107.238-.186.12-.902.415-1.235.523-.314.106-.468.098-.796-.07l-5.577-2.844c-.704-.355-1.127-.75-1.168-1.353-.007-.1.01-.192.107-.238.2-.115.977-.379 1.33-.473.34-.092.51-.072.886.115l5.561 2.832z" mask="url(#8nfp6h2nwe)"/>
                    <path fill="#FA2828" d="M19.886 14.744c-.42 0-.576.057-.84.296-.276.246-.847.835-.973 1.023-.064.09-.04.175.015.262.306.522.867.682 1.657.682h6.044c.418 0 .578-.067.843-.303.271-.243.842-.837.976-1.023.059-.09.032-.175-.02-.26-.306-.524-.866-.677-1.655-.677h-6.047z" mask="url(#8nfp6h2nwe)"/>
                </g>
            </g>
        </g>
    </g>
</svg>
