<svg xmlns="http://www.w3.org/2000/svg" xmlns:xlink="http://www.w3.org/1999/xlink" width="527" height="1501" viewBox="0 0 527 1501">
    <defs>
        <path id="sg9r8hldsb" d="M22.573 539h488.854c8.6 0 15.573 6.972 15.573 15.573v228.854c0 8.6-6.972 15.573-15.573 15.573H22.573C13.973 799 7 792.028 7 783.427V554.573C7 545.973 13.972 539 22.573 539z"/>
        <path id="0fosv2kxze" d="M0 0L106.996 0 106.996 107 0 107z"/>
        <path id="qu0h9b2shg" d="M0 0L106.996 0 106.996 107 0 107z"/>
        <path id="53dg6mnafi" d="M0 0L106.996 0 106.996 107 0 107z"/>
        <mask id="x58bb3xyoc" width="520" height="240" x="0" y="0" fill="#fff" maskContentUnits="userSpaceOnUse" maskUnits="objectBoundingBox">
            <use xlink:href="#ioa7amv6xa"/>
        </mask>
        <mask id="b00j5iufkd" width="520" height="260" x="0" y="0" fill="#fff" maskContentUnits="userSpaceOnUse" maskUnits="objectBoundingBox">
            <use xlink:href="#sg9r8hldsb"/>
        </mask>
        <rect id="ioa7amv6xa" width="520" height="240" x="7" y="133" rx="15.573"/>
    </defs>
    <g fill="none" fill-rule="evenodd">
        <g>
            <g>
                <g transform="translate(-53 -1219) translate(30 481) translate(23 738)">
                    <path fill="#F8ABAB" fill-rule="nonzero" d="M275.433 100L275.433 122 259.433 111z" transform="rotate(-90 267.433 111)"/>
                    <path fill="#FFF" fill-rule="nonzero" stroke="#FA2828" stroke-width="3" d="M418.54 1.5c.54 0 1.03.22 1.386.574.355.355.574.845.574 1.387h0v55.078c0 .542-.22 1.032-.574 1.387-.355.355-.845.574-1.387.574h0-304.078c-.542 0-1.032-.22-1.387-.574-.355-.355-.574-.845-.574-1.387h0V3.461c0-.542.22-1.032.574-1.387.355-.355.845-.574 1.387-.574h0z"/>
                    <use fill="#FFF" fill-rule="nonzero" stroke="#A5A5A5" stroke-dasharray="5.191 5.191" stroke-width="8" mask="url(#x58bb3xyoc)" xlink:href="#ioa7amv6xa"/>
                    <use fill="#FFF" fill-rule="nonzero" stroke="#A5A5A5" stroke-dasharray="5.191 5.191" stroke-width="8" mask="url(#b00j5iufkd)" xlink:href="#sg9r8hldsb"/>
                    <text fill="#5F5F5F" font-family="NotoSansJP-Bold, Noto Sans JP" font-size="20.764" font-weight="bold">
                        <tspan x="236" y="1035">お客様</tspan>
                    </text>
                    <g fill-rule="nonzero" stroke="#5F5F5F" stroke-width="3.461" transform="translate(202 859)">
                        <circle cx="65" cy="65" r="65" fill="#FFF"/>
                        <path d="M65.736 84.933c22.46 0 41.751 8.825 50.135 21.438C103.95 120.803 85.917 130 65.736 130c-20.18 0-38.214-9.197-50.136-23.628 8.384-12.614 27.677-21.439 50.136-21.439z"/>
                        <circle cx="65.867" cy="45.067" r="29.467"/>
                    </g>
                    <g>
                        <g transform="translate(47 596)">
                            <mask id="p0738oedpf" fill="#fff">
                                <use xlink:href="#0fosv2kxze"/>
                            </mask>
                            <path fill="#5F5F5F" d="M96.73 56.202h-8.646c-3.873 0-7.027-3.153-7.027-7.025v-.541h22.698v.541c0 3.872-3.152 7.025-7.025 7.025zm-1.622 10.811h-83.22v-7.57h7.024c3.64 0 6.824-1.915 8.647-4.777 1.826 2.862 5.007 4.777 8.647 4.777h8.645c3.64 0 6.824-1.915 8.647-4.777 1.826 2.862 5.007 4.777 8.645 4.777h8.649c3.638 0 6.819-1.915 8.645-4.777 1.823 2.862 5.006 4.777 8.647 4.777h7.024v7.57zM48.632 90.787h46.476V70.254H48.632v20.533zm0 12.97h46.476v-9.729H48.632v9.728zm-3.244 0h-16.21V92.418l.002-.011V70.254h16.208v33.502zm-19.451-12.97H11.888v-4.2l9.234-9.23c.633-.634.633-1.661 0-2.294-.636-.631-1.661-.631-2.294 0l-6.94 6.939V70.254h14.049v20.533zm-14.049 12.97h14.049v-9.729H11.888v9.728zm-8.647-54.58v-.541H25.94v.541c0 3.872-3.152 7.025-7.027 7.025h-8.646c-3.873 0-7.025-3.153-7.025-7.025zm12.02-13.508h16.16l-4.865 9.726H5.531l9.73-9.726zm36.614 12.967v.541c0 3.872-3.15 7.025-7.024 7.025h-8.645c-3.874 0-7.026-3.153-7.026-7.025v-.541h22.695zM35.047 35.669h16.828v9.726H30.183l4.864-9.726zm-18.836-14.05h74.574V3.242H16.211v18.375zm60.602 23.776H55.12v-9.726h16.83l4.862 9.726zm-41.148-12.97H71.33v-7.568H35.665v7.568zm19.456 16.21h22.695v.542c0 3.872-3.15 7.025-7.024 7.025h-8.65c-3.871 0-7.021-3.153-7.021-7.025v-.541zM91.737 35.67l9.728 9.726H80.44l-4.864-9.726h16.161zm15.259 13.508v-2.162c0-.421-.16-.836-.473-1.146L93.552 32.9c-.304-.303-.714-.475-1.146-.475H74.573v-7.568h17.833c.896 0 1.623-.724 1.623-1.62V1.62c0-.894-.727-1.62-1.623-1.62H14.59c-.896 0-1.623.726-1.623 1.62v21.617c0 .896.727 1.62 1.623 1.62h17.833v7.568H14.59c-.432 0-.843.172-1.146.475L.473 45.87C.16 46.18 0 46.593 0 47.014v2.162c0 5.107 3.756 9.318 8.645 10.103v44.476H1.619c-.894 0-1.619.727-1.619 1.623 0 .894.725 1.62 1.619 1.62h103.758c.894 0 1.619-.726 1.619-1.62 0-.896-.725-1.623-1.619-1.623h-7.026V59.28c4.889-.785 8.645-4.996 8.645-10.103z" mask="url(#p0738oedpf)"/>
                        </g>
                        <path fill="#5F5F5F" d="M40.526 89.707c.896 0 1.622-.725 1.622-1.621s-.726-1.62-1.622-1.62c-.894 0-1.621.724-1.621 1.62 0 .896.727 1.62 1.62 1.62M67.536 86.478c.414 0 .829-.158 1.148-.477l8.647-8.644c.63-.634.63-1.661 0-2.294-.636-.631-1.663-.631-2.296 0l-8.647 8.647c-.631.633-.631 1.658 0 2.291.316.319.73.477 1.148.477M54.566 86.478c.416 0 .827-.158 1.143-.477l8.647-8.644c.635-.634.635-1.661 0-2.294-.633-.631-1.658-.631-2.292 0l-8.646 8.647c-.634.633-.634 1.658 0 2.291.316.319.73.477 1.148.477M80.506 86.478c.417 0 .827-.158 1.145-.477l8.647-8.644c.631-.634.631-1.661 0-2.294-.635-.631-1.66-.631-2.296 0l-8.647 8.647c-.63.633-.63 1.658 0 2.291.321.319.734.477 1.15.477" transform="translate(47 596)"/>
                    </g>
                    <g>
                        <g transform="translate(212 596)">
                            <mask id="6olzqe8fqh" fill="#fff">
                                <use xlink:href="#qu0h9b2shg"/>
                            </mask>
                            <path fill="#5F5F5F" d="M96.73 56.202h-8.646c-3.873 0-7.027-3.153-7.027-7.025v-.541h22.698v.541c0 3.872-3.152 7.025-7.025 7.025zm-1.622 10.811h-83.22v-7.57h7.024c3.64 0 6.824-1.915 8.647-4.777 1.826 2.862 5.007 4.777 8.647 4.777h8.645c3.64 0 6.824-1.915 8.647-4.777 1.826 2.862 5.007 4.777 8.645 4.777h8.649c3.638 0 6.819-1.915 8.645-4.777 1.823 2.862 5.006 4.777 8.647 4.777h7.024v7.57zM48.632 90.787h46.476V70.254H48.632v20.533zm0 12.97h46.476v-9.729H48.632v9.728zm-3.244 0h-16.21V92.418l.002-.011V70.254h16.208v33.502zm-19.451-12.97H11.888v-4.2l9.234-9.23c.633-.634.633-1.661 0-2.294-.636-.631-1.661-.631-2.294 0l-6.94 6.939V70.254h14.049v20.533zm-14.049 12.97h14.049v-9.729H11.888v9.728zm-8.647-54.58v-.541H25.94v.541c0 3.872-3.152 7.025-7.027 7.025h-8.646c-3.873 0-7.025-3.153-7.025-7.025zm12.02-13.508h16.16l-4.865 9.726H5.531l9.73-9.726zm36.614 12.967v.541c0 3.872-3.15 7.025-7.024 7.025h-8.645c-3.874 0-7.026-3.153-7.026-7.025v-.541h22.695zM35.047 35.669h16.828v9.726H30.183l4.864-9.726zm-18.836-14.05h74.574V3.242H16.211v18.375zm60.602 23.776H55.12v-9.726h16.83l4.862 9.726zm-41.148-12.97H71.33v-7.568H35.665v7.568zm19.456 16.21h22.695v.542c0 3.872-3.15 7.025-7.024 7.025h-8.65c-3.871 0-7.021-3.153-7.021-7.025v-.541zM91.737 35.67l9.728 9.726H80.44l-4.864-9.726h16.161zm15.259 13.508v-2.162c0-.421-.16-.836-.473-1.146L93.552 32.9c-.304-.303-.714-.475-1.146-.475H74.573v-7.568h17.833c.896 0 1.623-.724 1.623-1.62V1.62c0-.894-.727-1.62-1.623-1.62H14.59c-.896 0-1.623.726-1.623 1.62v21.617c0 .896.727 1.62 1.623 1.62h17.833v7.568H14.59c-.432 0-.843.172-1.146.475L.473 45.87C.16 46.18 0 46.593 0 47.014v2.162c0 5.107 3.756 9.318 8.645 10.103v44.476H1.619c-.894 0-1.619.727-1.619 1.623 0 .894.725 1.62 1.619 1.62h103.758c.894 0 1.619-.726 1.619-1.62 0-.896-.725-1.623-1.619-1.623h-7.026V59.28c4.889-.785 8.645-4.996 8.645-10.103z" mask="url(#6olzqe8fqh)"/>
                        </g>
                        <path fill="#5F5F5F" d="M40.526 89.707c.896 0 1.622-.725 1.622-1.621s-.726-1.62-1.622-1.62c-.894 0-1.621.724-1.621 1.62 0 .896.727 1.62 1.62 1.62M67.536 86.478c.414 0 .829-.158 1.148-.477l8.647-8.644c.63-.634.63-1.661 0-2.294-.636-.631-1.663-.631-2.296 0l-8.647 8.647c-.631.633-.631 1.658 0 2.291.316.319.73.477 1.148.477M54.566 86.478c.416 0 .827-.158 1.143-.477l8.647-8.644c.635-.634.635-1.661 0-2.294-.633-.631-1.658-.631-2.292 0l-8.646 8.647c-.634.633-.634 1.658 0 2.291.316.319.73.477 1.148.477M80.506 86.478c.417 0 .827-.158 1.145-.477l8.647-8.644c.631-.634.631-1.661 0-2.294-.635-.631-1.66-.631-2.296 0l-8.647 8.647c-.63.633-.63 1.658 0 2.291.321.319.734.477 1.15.477" transform="translate(212 596)"/>
                    </g>
                    <g>
                        <g transform="translate(376 596)">
                            <mask id="15shovbqpj" fill="#fff">
                                <use xlink:href="#53dg6mnafi"/>
                            </mask>
                            <path fill="#5F5F5F" d="M96.73 56.202h-8.646c-3.873 0-7.027-3.153-7.027-7.025v-.541h22.698v.541c0 3.872-3.152 7.025-7.025 7.025zm-1.622 10.811h-83.22v-7.57h7.024c3.64 0 6.824-1.915 8.647-4.777 1.826 2.862 5.007 4.777 8.647 4.777h8.645c3.64 0 6.824-1.915 8.647-4.777 1.826 2.862 5.007 4.777 8.645 4.777h8.649c3.638 0 6.819-1.915 8.645-4.777 1.823 2.862 5.006 4.777 8.647 4.777h7.024v7.57zM48.632 90.787h46.476V70.254H48.632v20.533zm0 12.97h46.476v-9.729H48.632v9.728zm-3.244 0h-16.21V92.418l.002-.011V70.254h16.208v33.502zm-19.451-12.97H11.888v-4.2l9.234-9.23c.633-.634.633-1.661 0-2.294-.636-.631-1.661-.631-2.294 0l-6.94 6.939V70.254h14.049v20.533zm-14.049 12.97h14.049v-9.729H11.888v9.728zm-8.647-54.58v-.541H25.94v.541c0 3.872-3.152 7.025-7.027 7.025h-8.646c-3.873 0-7.025-3.153-7.025-7.025zm12.02-13.508h16.16l-4.865 9.726H5.531l9.73-9.726zm36.614 12.967v.541c0 3.872-3.15 7.025-7.024 7.025h-8.645c-3.874 0-7.026-3.153-7.026-7.025v-.541h22.695zM35.047 35.669h16.828v9.726H30.183l4.864-9.726zm-18.836-14.05h74.574V3.242H16.211v18.375zm60.602 23.776H55.12v-9.726h16.83l4.862 9.726zm-41.148-12.97H71.33v-7.568H35.665v7.568zm19.456 16.21h22.695v.542c0 3.872-3.15 7.025-7.024 7.025h-8.65c-3.871 0-7.021-3.153-7.021-7.025v-.541zM91.737 35.67l9.728 9.726H80.44l-4.864-9.726h16.161zm15.259 13.508v-2.162c0-.421-.16-.836-.473-1.146L93.552 32.9c-.304-.303-.714-.475-1.146-.475H74.573v-7.568h17.833c.896 0 1.623-.724 1.623-1.62V1.62c0-.894-.727-1.62-1.623-1.62H14.59c-.896 0-1.623.726-1.623 1.62v21.617c0 .896.727 1.62 1.623 1.62h17.833v7.568H14.59c-.432 0-.843.172-1.146.475L.473 45.87C.16 46.18 0 46.593 0 47.014v2.162c0 5.107 3.756 9.318 8.645 10.103v44.476H1.619c-.894 0-1.619.727-1.619 1.623 0 .894.725 1.62 1.619 1.62h103.758c.894 0 1.619-.726 1.619-1.62 0-.896-.725-1.623-1.619-1.623h-7.026V59.28c4.889-.785 8.645-4.996 8.645-10.103z" mask="url(#15shovbqpj)"/>
                        </g>
                        <path fill="#5F5F5F" d="M40.526 89.707c.896 0 1.622-.725 1.622-1.621s-.726-1.62-1.622-1.62c-.894 0-1.621.724-1.621 1.62 0 .896.727 1.62 1.62 1.62M67.536 86.478c.414 0 .829-.158 1.148-.477l8.647-8.644c.63-.634.63-1.661 0-2.294-.636-.631-1.663-.631-2.296 0l-8.647 8.647c-.631.633-.631 1.658 0 2.291.316.319.73.477 1.148.477M54.566 86.478c.416 0 .827-.158 1.143-.477l8.647-8.644c.635-.634.635-1.661 0-2.294-.633-.631-1.658-.631-2.292 0l-8.646 8.647c-.634.633-.634 1.658 0 2.291.316.319.73.477 1.148.477M80.506 86.478c.417 0 .827-.158 1.145-.477l8.647-8.644c.631-.634.631-1.661 0-2.294-.635-.631-1.66-.631-2.296 0l-8.647 8.647c-.63.633-.63 1.658 0 2.291.321.319.734.477 1.15.477" transform="translate(376 596)"/>
                    </g>
                    <path fill="#FA2828" fill-rule="nonzero" d="M154.097 38.75c1 0 1.912-.194 2.736-.583.824-.39 1.482-.922 1.973-1.598.49-.675.736-1.449.736-2.319 0-1.833-1.065-3.065-3.195-3.694l-1.583-.528c-.63-.185-1.056-.403-1.278-.653-.222-.25-.333-.523-.333-.82 0-.407.194-.759.583-1.055.389-.296.917-.444 1.583-.444.686 0 1.348.138 1.987.416.638.278 1.18.565 1.625.861v-3.11c-.408-.334-.982-.63-1.723-.89-.74-.259-1.546-.389-2.416-.389-1.056 0-1.991.19-2.806.57-.815.38-1.449.898-1.903 1.555-.453.658-.68 1.431-.68 2.32 0 .889.203 1.657.61 2.305.408.649 1.149 1.149 2.223 1.5l1.722.612c.611.203 1.074.407 1.39.61.314.204.471.482.471.834 0 .463-.19.82-.569 1.07-.38.25-.921.374-1.625.374-.444 0-.935-.069-1.472-.208-.537-.139-1.056-.32-1.556-.542-.5-.222-.926-.453-1.278-.694v3.083c.463.352 1.14.676 2.028.973.89.296 1.806.444 2.75.444zm11.972-.417v-8.889c.39-.555.857-1.037 1.403-1.444.547-.407 1.134-.611 1.764-.611.796 0 1.421.231 1.875.694.454.463.68 1.167.68 2.111l.028 8.14h3.528v-8.612c0-1.926-.481-3.37-1.444-4.333-.963-.963-2.158-1.445-3.584-1.445-.944 0-1.782.25-2.513.75-.732.5-1.31 1.037-1.737 1.612v-7.973h-3.527v20h3.527zm19.862.417c1.37 0 2.62-.329 3.75-.986 1.13-.658 2.041-1.542 2.736-2.653.694-1.111 1.041-2.361 1.041-3.75 0-1.389-.347-2.643-1.041-3.764-.695-1.12-1.607-2.009-2.736-2.666-1.13-.658-2.38-.987-3.75-.987-1.352 0-2.598.33-3.737.987-1.138.657-2.05 1.546-2.736 2.666-.685 1.12-1.027 2.375-1.027 3.764 0 1.389.342 2.639 1.027 3.75.686 1.111 1.598 1.995 2.736 2.653 1.14.657 2.385.986 3.737.986zm0-3.417c-.667 0-1.287-.152-1.862-.458-.574-.306-1.032-.755-1.375-1.347-.342-.593-.513-1.315-.513-2.167 0-.852.17-1.574.513-2.167.343-.592.801-1.046 1.375-1.36.575-.315 1.195-.473 1.862-.473.666 0 1.287.158 1.86.472.575.315 1.038.769 1.39 1.361.351.593.527 1.315.527 2.167 0 .852-.176 1.574-.527 2.167-.352.592-.815 1.041-1.39 1.347-.573.306-1.194.458-1.86.458zM200.319 45v-8.25c.519.574 1.162 1.05 1.931 1.43.769.38 1.542.57 2.32.57 1.203 0 2.3-.3 3.291-.903.99-.602 1.778-1.467 2.361-2.597.584-1.13.875-2.472.875-4.028 0-1.555-.291-2.875-.875-3.958-.583-1.083-1.352-1.908-2.305-2.472-.954-.565-1.986-.848-3.098-.848-1.037 0-1.944.264-2.722.792s-1.37 1.171-1.778 1.93v-2.36h-3.527V45h3.527zm3.528-9.694c-.685 0-1.32-.172-1.903-.514-.583-.343-1.125-.773-1.625-1.292v-2.028c-.018-.833.144-1.546.487-2.139.342-.592.791-1.05 1.347-1.375.555-.324 1.148-.486 1.778-.486 1.055 0 1.902.361 2.541 1.084.64.722.959 1.61.959 2.666 0 .704-.149 1.366-.445 1.986-.296.62-.713 1.125-1.25 1.514-.537.39-1.167.584-1.889.584zm26.972 3.444c1.112 0 2.144-.287 3.098-.861.953-.574 1.722-1.408 2.305-2.5.584-1.093.875-2.417.875-3.972 0-1.556-.291-2.89-.875-4-.583-1.111-1.37-1.968-2.36-2.57-.992-.602-2.089-.903-3.293-.903-.777 0-1.55.176-2.319.528-.769.352-1.412.824-1.93 1.417v-7.556h-3.528v20h3.527v-2.36c.408.758 1 1.411 1.778 1.958.778.546 1.685.819 2.722.819zm-.888-3.556c-.63 0-1.223-.162-1.778-.486-.556-.324-1.005-.787-1.347-1.389-.343-.601-.505-1.328-.487-2.18v-2c.5-.537 1.042-.958 1.625-1.264.584-.306 1.218-.458 1.903-.458.722 0 1.352.19 1.89.57.536.379.953.87 1.25 1.471.295.602.444 1.255.444 1.959 0 1.055-.32 1.949-.959 2.68-.639.732-1.486 1.097-2.541 1.097zM244.403 45l10.194-20.694h-4.028l-3.888 8.944-4-8.944h-4.112l6.056 13L240.403 45h4zm24.5 0v-8.25c.518.574 1.162 1.05 1.93 1.43.769.38 1.542.57 2.32.57 1.203 0 2.3-.3 3.291-.903.991-.602 1.778-1.467 2.362-2.597.583-1.13.875-2.472.875-4.028 0-1.555-.292-2.875-.875-3.958-.584-1.083-1.352-1.908-2.306-2.472-.954-.565-1.986-.848-3.097-.848-1.037 0-1.945.264-2.722.792-.778.528-1.37 1.171-1.778 1.93v-2.36h-3.528V45h3.528zm3.528-9.694c-.686 0-1.32-.172-1.903-.514-.584-.343-1.125-.773-1.625-1.292v-2.028c-.019-.833.143-1.546.486-2.139.342-.592.792-1.05 1.347-1.375.556-.324 1.148-.486 1.778-.486 1.055 0 1.903.361 2.542 1.084.638.722.958 1.61.958 2.666 0 .704-.148 1.366-.445 1.986-.296.62-.713 1.125-1.25 1.514-.537.39-1.166.584-1.888.584zm14.138 3.027V30.5c.408-.778.88-1.43 1.417-1.958s1.213-.792 2.028-.792c.648 0 1.268.167 1.861.5v-3.972c-.407-.167-.861-.25-1.361-.25-.833 0-1.579.278-2.236.833-.658.556-1.227 1.25-1.709 2.083v-2.638h-3.527v14.027h3.527zm14.584.417c1.055 0 2.023-.2 2.903-.597.88-.398 1.541-.792 1.986-1.18l.027-3.279c-.5.426-1.166.843-2 1.25-.833.408-1.759.612-2.777.612-1.074 0-1.982-.287-2.723-.862-.74-.574-1.203-1.333-1.388-2.277h10.166v-1.5c0-1.37-.264-2.579-.791-3.625-.528-1.047-1.287-1.866-2.278-2.459-.991-.592-2.172-.889-3.542-.889-1.37 0-2.592.348-3.667 1.042-1.074.695-1.916 1.607-2.527 2.736-.611 1.13-.917 2.38-.917 3.75 0 1.408.338 2.658 1.014 3.75.676 1.093 1.583 1.954 2.722 2.584 1.139.63 2.403.944 3.792.944zm2.805-8.75h-6.722c.222-.907.63-1.63 1.222-2.167.593-.537 1.324-.805 2.195-.805.796 0 1.528.245 2.194.736.667.49 1.037 1.236 1.111 2.236zm10.14 8.333v-9.139c.37-.481.786-.902 1.25-1.263.462-.362.99-.542 1.583-.542.777 0 1.412.231 1.902.694.491.463.736 1.167.736 2.111l.028 8.14h3.528v-9.028c.389-.519.806-.968 1.25-1.348.444-.38.972-.57 1.583-.57.797 0 1.44.232 1.93.695.492.463.737 1.167.737 2.111l.028 8.14h3.528v-8.612c0-1.278-.237-2.342-.709-3.194-.472-.852-1.097-1.496-1.875-1.93-.778-.436-1.639-.654-2.583-.654-.982 0-1.843.264-2.583.792-.741.528-1.39 1.171-1.945 1.93-.444-.907-1.065-1.587-1.861-2.041-.796-.454-1.685-.68-2.667-.68-.944 0-1.717.222-2.32.666-.601.445-1.115.935-1.54 1.472v-1.777h-3.529v14.027h3.528zm25.055-16.555c.666 0 1.24-.241 1.722-.722.481-.482.722-1.037.722-1.667 0-.648-.24-1.208-.722-1.68-.481-.473-1.056-.709-1.722-.709-.667 0-1.236.236-1.709.708-.472.473-.708 1.033-.708 1.68 0 .63.236 1.186.708 1.668.473.481 1.042.722 1.709.722zm2.055 16.555V24.306h-5.777v3h2.25v11.027h3.527zm10.5.334c1.204 0 2.283-.241 3.236-.723.954-.481 1.709-1.17 2.264-2.069.556-.898.834-1.968.834-3.208v-8.361h-3.584v7.722c0 1.092-.254 1.907-.764 2.444-.509.537-1.17.806-1.986.806-.833 0-1.5-.269-2-.806s-.75-1.352-.75-2.444l-.027-7.722h-3.556v8.36c0 1.241.273 2.31.82 3.209.546.898 1.296 1.588 2.25 2.07.953.48 2.041.722 3.263.722zm13.89-.334v-9.139c.37-.481.786-.902 1.25-1.263.462-.362.99-.542 1.583-.542.777 0 1.412.231 1.902.694.491.463.736 1.167.736 2.111l.028 8.14h3.528v-9.028c.389-.519.806-.968 1.25-1.348.444-.38.972-.57 1.583-.57.797 0 1.44.232 1.93.695.492.463.737 1.167.737 2.111l.028 8.14h3.528v-8.612c0-1.278-.237-2.342-.709-3.194-.472-.852-1.097-1.496-1.875-1.93-.778-.436-1.639-.654-2.583-.654-.982 0-1.843.264-2.583.792-.741.528-1.39 1.171-1.945 1.93-.444-.907-1.065-1.587-1.861-2.041-.796-.454-1.685-.68-2.667-.68-.944 0-1.717.222-2.32.666-.601.445-1.115.935-1.54 1.472v-1.777h-3.529v14.027h3.528z"/>
                    <text fill="#5F5F5F" font-family="NotoSansJP-Bold, Noto Sans JP" font-size="22" font-weight="bold">
                        <tspan x="57" y="750">自社商品</tspan>
                    </text>
                    <text fill="#5F5F5F" font-family="NotoSansJP-Bold, Noto Sans JP" font-size="22" font-weight="bold">
                        <tspan x="213.5" y="750">メーカーA</tspan>
                    </text>
                    <text fill="#5F5F5F" font-family="NotoSansJP-Bold, Noto Sans JP" font-size="22" font-weight="bold">
                        <tspan x="377" y="750">メーカーB</tspan>
                    </text>
                    <g>
                        <g fill-rule="nonzero" transform="translate(155 169) translate(.637 12.3)">
                            <path fill="#FFF" stroke="#5F5F5F" stroke-width="3.461" d="M1.73 1.73H103.818V95.167H1.73z"/>
                            <path fill="#D8D8D8" stroke="#5F5F5F" stroke-width="1.73" d="M0.865 19.899H104.684V21.629H0.865z"/>
                            <circle cx="71.808" cy="11.247" r="2.595" fill="#5F5F5F"/>
                            <circle cx="82.19" cy="11.247" r="2.595" fill="#5F5F5F"/>
                            <circle cx="92.572" cy="11.247" r="2.595" fill="#5F5F5F"/>
                        </g>
                        <g fill-rule="nonzero" transform="translate(155 169) translate(118.298 12.3)">
                            <path fill="#FFF" stroke="#5F5F5F" stroke-width="3.461" d="M1.73 1.73H103.818V95.167H1.73z"/>
                            <path fill="#D8D8D8" stroke="#5F5F5F" stroke-width="1.73" d="M0.865 19.899H104.684V21.629H0.865z"/>
                            <circle cx="71.808" cy="11.247" r="2.595" fill="#5F5F5F"/>
                            <circle cx="82.19" cy="11.247" r="2.595" fill="#5F5F5F"/>
                            <circle cx="92.572" cy="11.247" r="2.595" fill="#5F5F5F"/>
                        </g>
                        <g transform="translate(155 169) translate(59.468 .189)">
                            <path fill="#FFF" fill-rule="nonzero" stroke="#5F5F5F" stroke-width="3.461" d="M1.73 1.73H103.818V95.167H1.73z"/>
                            <path fill="#D8D8D8" fill-rule="nonzero" stroke="#5F5F5F" stroke-width="1.73" d="M0.865 19.899H104.684V21.629H0.865z"/>
                            <g fill="#5F5F5F">
                                <path d="M48.533 28.225c-.57 1.453-1.951 2.395-3.512 2.395h-7.217l3.177-16.89 12.627 1.578-5.075 12.917zM35.24 30.62H23.21l1.96-18.868 13.308 1.663-3.238 17.205zm-14.562 0h-7.255c-2.08 0-3.774-1.694-3.774-3.776V9.813l13.023 1.63-1.994 19.177zm34.85-17.608L9.534 7.262C8.979 3.172 5.499 0 1.258 0 .564 0 0 .562 0 1.256c0 .696.564 1.26 1.258 1.26 3.24 0 5.873 2.633 5.873 5.87v18.458c0 3.47 2.823 6.291 6.291 6.291h31.599c2.604 0 4.902-1.564 5.855-3.991l5.667-14.424c.142-.362.107-.769-.092-1.102-.197-.334-.536-.558-.924-.606zM41.794 46.403c-2.082 0-3.776-1.694-3.776-3.775 0-2.082 1.694-3.774 3.776-3.774 2.078 0 3.774 1.692 3.774 3.774 0 2.081-1.696 3.775-3.774 3.775m-26.851 0c-2.082 0-3.776-1.694-3.776-3.775 0-2.082 1.694-3.774 3.776-3.774 2.083 0 3.775 1.692 3.775 3.774 0 2.081-1.692 3.775-3.775 3.775m26.85-10.066c-3.04 0-5.58 2.166-6.164 5.033h-14.52c-.586-2.867-3.128-5.033-6.166-5.033-3.47 0-6.291 2.822-6.291 6.29 0 3.47 2.822 6.294 6.291 6.294 3.038 0 5.58-2.166 6.165-5.035h14.52c.586 2.869 3.126 5.035 6.166 5.035 3.47 0 6.29-2.824 6.29-6.293 0-3.47-2.82-6.291-6.29-6.291" transform="translate(22.494 32.876)"/>
                            </g>
                            <circle cx="71.808" cy="11.247" r="2.595" fill="#5F5F5F" fill-rule="nonzero"/>
                            <circle cx="82.19" cy="11.247" r="2.595" fill="#5F5F5F" fill-rule="nonzero"/>
                            <circle cx="92.572" cy="11.247" r="2.595" fill="#5F5F5F" fill-rule="nonzero"/>
                        </g>
                    </g>
                    <path fill-rule="nonzero" stroke="#F8ABAB" stroke-width="5.191" d="M267.433 69.865L267.433 112.487"/>
                    <g fill-rule="nonzero">
                        <path fill="#F8ABAB" d="M18.746 105.549L18.746 126.681 4.017 116.115z" transform="translate(380 394) rotate(-90 11.382 116.115)"/>
                        <path stroke="#F8ABAB" stroke-width="5" d="M11.382 0.865L11.382 116.149" transform="translate(380 394)"/>
                    </g>
                    <g fill-rule="nonzero">
                        <path fill="#F8ABAB" d="M17.93 -3.201L17.93 17.93 3.201 7.364z" transform="translate(168 394) matrix(0 1 1 0 3.201 -3.201)"/>
                        <path stroke="#F8ABAB" stroke-width="5" d="M10.382 7.786L10.382 123.07" transform="translate(168 394)"/>
                    </g>
                    <path fill="#F8ABAB" fill-rule="nonzero" d="M361 915L361 936 346 925.5z"/>
                    <path fill="#F8ABAB" fill-rule="nonzero" d="M93.5 1120L93.5 1141 78.5 1130.5z" transform="rotate(-90 86 1130.5)"/>
                    <path fill="#666" fill-rule="nonzero" d="M453.5 1393L453.5 1414 438.5 1403.5z" transform="rotate(90 446 1403.5)"/>
                    <path fill="#666" fill-rule="nonzero" d="M93.5 1393L93.5 1414 78.5 1403.5z" transform="rotate(90 86 1403.5)"/>
                    <rect width="120" height="104" x="386" y="1151" fill="#FFF4F4" fill-rule="nonzero" rx="4.153"/>
                    <rect width="120" height="104" x="28" y="1151" fill="#FFF4F4" fill-rule="nonzero" rx="4.153"/>
                    <g fill="#5F5F5F">
                        <path d="M144.967 135.879c0 2.512-2.03 4.548-4.528 4.548H9.06c-2.498 0-4.528-2.036-4.528-4.548v-4.551h140.435v4.551zm-129.87-25.375h119.306l8.985 16.275H6.111l8.985-16.275zM16.03 9.645c0-2.809 2.276-5.095 5.07-5.095h107.297c2.797 0 5.073 2.286 5.073 5.095v96.31H16.031V9.646zm133.458 119.362c-.006-.248-.059-.495-.149-.732-.022-.063-.037-.122-.065-.179-.025-.05-.035-.1-.06-.144L138 107.64V9.645c0-5.32-4.308-9.643-9.602-9.643H21.1c-5.295 0-9.602 4.323-9.602 9.643v98L.283 127.952c-.021.044-.03.094-.056.141-.028.06-.046.12-.071.182-.087.24-.144.488-.147.741 0 .013-.009.022-.009.034v6.829c0 5.017 4.064 9.1 9.06 9.1H140.44c4.995 0 9.06-4.083 9.06-9.1v-6.829c0-.015-.01-.025-.01-.043z" transform="translate(371 1148)"/>
                    </g>
                    <g fill="#5F5F5F">
                        <path d="M144.483 135.86c0 2.512-2.023 4.548-4.513 4.548H9.03c-2.49 0-4.513-2.036-4.513-4.547v-4.55h139.966v4.55zM15.046 110.49h118.908l8.956 16.272H6.09l8.956-16.273zm.931-100.846c0-2.809 2.27-5.095 5.054-5.095h106.938c2.788 0 5.057 2.286 5.057 5.095v96.298H15.977V9.644zM148.991 128.99c-.007-.247-.06-.494-.15-.732-.021-.062-.037-.121-.065-.178-.024-.05-.034-.1-.058-.144l-11.179-20.31V9.644c0-5.321-4.293-9.643-9.57-9.643H21.031c-5.277 0-9.57 4.322-9.57 9.642v97.987L.282 127.935c-.021.044-.03.094-.055.141-.028.06-.047.119-.072.181-.087.241-.143.488-.146.742 0 .012-.009.022-.009.034v6.828c0 5.017 4.05 9.098 9.03 9.098h130.94c4.98 0 9.03-4.081 9.03-9.098v-6.828c0-.015-.01-.025-.01-.044z" transform="translate(14 1147)"/>
                    </g>
                    <text fill="#5F5F5F" font-family="NotoSansJP-Bold, Noto Sans JP" font-size="22" font-weight="bold">
                        <tspan x="402.5" y="1338">仕入先の</tspan> <tspan x="402.5" y="1367.415">管理画面</tspan>
                    </text>
                    <text fill="#5F5F5F" font-family="NotoSansJP-Bold, Noto Sans JP" font-size="22" font-weight="bold">
                        <tspan x="403" y="1217">商品登録</tspan>
                    </text>
                    <text fill="#5F5F5F" font-family="NotoSansJP-Bold, Noto Sans JP" font-size="22" font-weight="bold">
                        <tspan x="41.5" y="1203">ECサイト</tspan> <tspan x="66.492" y="1232.415">構築</tspan>
                    </text>
                    <text fill="#5F5F5F" font-family="NotoSansJP-Bold, Noto Sans JP" font-size="22" font-weight="bold">
                        <tspan x=".5" y="1338">サイト管理者用の</tspan> <tspan x="44.5" y="1367.415">管理画面</tspan>
                    </text>
                    <g transform="translate(108 428)">
                        <rect width="140" height="54" x="1" y="1" fill="#FFF" fill-rule="nonzero" stroke="#5F5F5F" stroke-width="2" rx="3.461"/>
                        <text fill="#5F5F5F" font-family="NotoSansJP-Bold, Noto Sans JP" font-size="22" font-weight="bold">
                            <tspan x="49" y="36">出品</tspan>
                        </text>
                    </g>
                    <text fill="#5F5F5F" font-family="NotoSansJP-Bold, Noto Sans JP" font-size="22" font-weight="bold">
                        <tspan x="223" y="328">運営管理</tspan>
                    </text>
                    <g transform="translate(320 428)">
                        <rect width="140" height="54" x="1" y="1" fill="#FFF" fill-rule="nonzero" stroke="#5F5F5F" stroke-width="2" rx="3.461"/>
                        <text fill="#5F5F5F" font-family="NotoSansJP-Bold, Noto Sans JP" font-size="22" font-weight="bold">
                            <tspan x="17" y="36">販売データ</tspan>
                        </text>
                    </g>
                    <path fill-rule="nonzero" stroke="#F8ABAB" stroke-width="5" d="M353 926L446 926 446 1131"/>
                    <path fill-rule="nonzero" stroke="#F8ABAB" stroke-width="5" d="M86 926L179 926 179 1130" transform="matrix(-1 0 0 1 265 0)"/>
                    <rect width="158" height="54" x="368" y="1000" fill="#FFF" fill-rule="nonzero" stroke="#FA2828" stroke-width="2" rx="3.461"/>
                    <rect width="158" height="54" x="8" y="1000" fill="#FFF" fill-rule="nonzero" stroke="#FA2828" stroke-width="2" rx="3.461"/>
                    <text fill="#FA2828" font-family="NotoSansJP-Bold, Noto Sans JP" font-size="22" font-weight="bold">
                        <tspan x="403" y="1035">商品発送</tspan>
                    </text>
                    <text fill="#FA2828" font-family="NotoSansJP-Bold, Noto Sans JP" font-size="22" font-weight="bold">
                        <tspan x="38.732" y="1035">来店/購入</tspan>
                    </text>
                    <path fill-rule="nonzero" stroke="#666" stroke-width="5" d="M86 1403L86 1453 446 1453 446 1403"/>
                    <path fill="#666" fill-rule="nonzero" d="M115.46 1411h303.08c1.91 0 3.46 1.55 3.46 3.46v83.08c0 1.91-1.55 3.46-3.46 3.46H115.46c-1.91 0-3.46-1.55-3.46-3.46v-83.08c0-1.91 1.55-3.46 3.46-3.46z"/>
                    <text fill="#FFF" font-family="NotoSansJP-Bold, Noto Sans JP" font-size="22" font-weight="bold">
                        <tspan x="157.5" y="1453">運営側と商品提供者側</tspan> <tspan x="135.5" y="1482.415">それぞれに管理画面を用意 </tspan>
                    </text>
                </g>
            </g>
        </g>
    </g>
</svg>
