<svg xmlns="http://www.w3.org/2000/svg" xmlns:xlink="http://www.w3.org/1999/xlink" width="504" height="639" viewBox="0 0 504 639">
    <defs>
        <path id="9rh4pg4dsa" d="M0.001 0.001L100.5 0.001 100.5 100.5 0.001 100.5z"/>
        <path id="9cfh2bdjpc" d="M0.001 0.001L100.5 0.001 100.5 100.5 0.001 100.5z"/>
        <path id="2knmab98ae" d="M0.001 0.001L100.5 0.001 100.5 100.5 0.001 100.5z"/>
        <path id="8w87x82t4g" d="M0 0L92.654 0 92.654 101 0 101z"/>
    </defs>
    <g fill="none" fill-rule="evenodd">
        <g>
            <g>
                <text fill="#5F5F5F" font-family="NotoSansJP-Bold, Noto Sans JP" font-size="22" font-weight="bold" transform="translate(-68 -868) translate(68 868)">
                    <tspan x="193" y="394">商品データ</tspan>
                </text>
                <text fill="#5F5F5F" font-family="NotoSansJP-Bold, Noto Sans JP" font-size="22" font-weight="bold" transform="translate(-68 -868) translate(68 868)">
                    <tspan x="431" y="394">中国</tspan>
                </text>
                <text fill="#5F5F5F" font-family="NotoSansJP-Bold, Noto Sans JP" font-size="22" font-weight="bold" transform="translate(-68 -868) translate(68 868)">
                    <tspan x="25" y="394">韓国</tspan>
                </text>
                <g transform="translate(-68 -868) translate(68 868) translate(166)">
                    <text fill="#5F5F5F" font-family="NotoSansJP-Bold, Noto Sans JP" font-size="22" font-weight="bold">
                        <tspan x="60" y="156">日本</tspan>
                    </text>
                    <g fill-rule="nonzero">
                        <g>
                            <path fill="#FFF" stroke="#5F5F5F" stroke-width="3" d="M41.85 1.5c.456 0 .868.185 1.167.483.298.299.483.711.483 1.167h0V66h-42V3.15c0-.456.185-.868.483-1.167.299-.298.711-.483 1.167-.483h0z" transform="translate(25 15) translate(0 27)"/>
                            <path fill="#FFF" stroke="#5F5F5F" stroke-width="3" d="M15 45H28.744V65.885H15z" transform="translate(25 15) translate(0 27)"/>
                            <path fill="#5F5F5F" d="M7.5 9H36.802V12H7.5zM7.5 17.25H36.802V20.25H7.5zM7.5 25.5H36.802V28.5H7.5z" transform="translate(25 15) translate(0 27)"/>
                        </g>
                        <g>
                            <path fill="#FFF" stroke="#5F5F5F" stroke-width="3" d="M41.85 1.5c.456 0 .868.185 1.167.483.298.299.483.711.483 1.167h0V66h-42V3.15c0-.456.185-.868.483-1.167.299-.298.711-.483 1.167-.483h0z" transform="translate(25 15) translate(69 27)"/>
                            <path fill="#FFF" stroke="#5F5F5F" stroke-width="3" d="M15 45H28.744V65.885H15z" transform="translate(25 15) translate(69 27)"/>
                            <path fill="#5F5F5F" d="M7.5 9H36.802V12H7.5zM7.5 17.25H36.802V20.25H7.5zM7.5 25.5H36.802V28.5H7.5z" transform="translate(25 15) translate(69 27)"/>
                        </g>
                        <g>
                            <path fill="#FFF" stroke="#5F5F5F" stroke-width="3" d="M59.85 1.5c.456 0 .868.185 1.167.483.298.299.483.711.483 1.167h0V93h-60V3.15c0-.456.185-.868.483-1.167.299-.298.711-.483 1.167-.483h0z" transform="translate(25 15) translate(25.5)"/>
                            <path fill="#FFF" stroke="#5F5F5F" stroke-width="3" d="M42 63v30H21V63h21z" transform="translate(25 15) translate(25.5)"/>
                            <path fill="#5F5F5F" d="M10.5 10.5L51 10.5 51 13.5 10.5 13.5zM10.5 21L51 21 51 24 10.5 24zM10.5 31.5L51 31.5 51 34.5 10.5 34.5zM10.5 42L51 42 51 45 10.5 45z" transform="translate(25 15) translate(25.5)"/>
                        </g>
                    </g>
                    <rect width="163.5" height="3" y="107" fill="#5F5F5F" fill-rule="nonzero" rx="1.5"/>
                    <rect width="28.2" height="14.7" x="67.65" y="1.65" fill="#FFF" fill-rule="nonzero" stroke="#5F5F5F" stroke-width="3.3" rx="1.5"/>
                </g>
                <g>
                    <g transform="translate(-68 -868) translate(68 868) translate(0 247)">
                        <mask id="hub91rho6b" fill="#fff">
                            <use xlink:href="#9rh4pg4dsa"/>
                        </mask>
                        <path fill="#5F5F5F" d="M67.862 81.72l21.172-10.586L96.51 96.04 67.862 81.72zm-16.09 15.736V86.121c0-.842-.68-1.524-1.522-1.524H27.738l1.373-8.457h20.78L92.53 97.456H51.772zm-3.045 0H25.646l1.597-9.813h21.484v9.813zm-45.16 0L9.966 76.14h16.059L22.56 97.456H3.567zm11.271-37.564h13.827l-2.144 13.201H10.877l3.961-13.2zm16.915 0h3.771c4.22 5.762 8.457 10.452 11.082 13.201H29.607l2.146-13.2zm-6.515-31.83c0-13.795 11.22-25.015 25.012-25.015 13.791 0 25.016 11.22 25.016 25.014 0 17.87-20.136 39.442-25.016 44.406-4.879-4.96-25.012-26.521-25.012-44.406zm60.427 31.83l2.481 8.281L64.46 80.02 52.823 74.2c2.42-2.464 7.3-7.684 12.156-14.309h20.686zM100.44 98.54L88.255 57.935c-.196-.645-.789-1.087-1.461-1.087H67.129c5.898-8.626 11.181-19.061 11.181-28.787 0-15.473-12.588-28.06-28.06-28.06C34.779 0 22.19 12.588 22.19 28.06c0 9.726 5.28 20.16 11.177 28.787H13.705c-.672 0-1.266.442-1.457 1.087L.064 98.539c-.136.463-.05.96.237 1.348.289.385.741.614 1.22.614h97.456c.484 0 .936-.229 1.223-.614.287-.387.375-.885.239-1.348z" mask="url(#hub91rho6b)"/>
                    </g>
                    <path fill="#5F5F5F" d="M39.664 28.307c0-5.836 4.749-10.588 10.586-10.588 5.837 0 10.588 4.752 10.588 10.588 0 5.84-4.75 10.588-10.588 10.588-5.837 0-10.586-4.749-10.586-10.588m24.22 0c0-7.517-6.117-13.633-13.634-13.633-7.514 0-13.632 6.116-13.632 13.633 0 7.518 6.118 13.634 13.632 13.634 7.517 0 13.635-6.116 13.635-13.634" transform="translate(-68 -868) translate(68 868) translate(0 247)"/>
                </g>
                <g>
                    <g transform="translate(-68 -868) translate(68 868) translate(403 247)">
                        <mask id="ffre8gr06d" fill="#fff">
                            <use xlink:href="#9cfh2bdjpc"/>
                        </mask>
                        <path fill="#5F5F5F" d="M67.862 81.72l21.172-10.586L96.51 96.04 67.862 81.72zm-16.09 15.736V86.121c0-.842-.68-1.524-1.522-1.524H27.738l1.373-8.457h20.78L92.53 97.456H51.772zm-3.045 0H25.646l1.597-9.813h21.484v9.813zm-45.16 0L9.966 76.14h16.059L22.56 97.456H3.567zm11.271-37.564h13.827l-2.144 13.201H10.877l3.961-13.2zm16.915 0h3.771c4.22 5.762 8.457 10.452 11.082 13.201H29.607l2.146-13.2zm-6.515-31.83c0-13.795 11.22-25.015 25.012-25.015 13.791 0 25.016 11.22 25.016 25.014 0 17.87-20.136 39.442-25.016 44.406-4.879-4.96-25.012-26.521-25.012-44.406zm60.427 31.83l2.481 8.281L64.46 80.02 52.823 74.2c2.42-2.464 7.3-7.684 12.156-14.309h20.686zM100.44 98.54L88.255 57.935c-.196-.645-.789-1.087-1.461-1.087H67.129c5.898-8.626 11.181-19.061 11.181-28.787 0-15.473-12.588-28.06-28.06-28.06C34.779 0 22.19 12.588 22.19 28.06c0 9.726 5.28 20.16 11.177 28.787H13.705c-.672 0-1.266.442-1.457 1.087L.064 98.539c-.136.463-.05.96.237 1.348.289.385.741.614 1.22.614h97.456c.484 0 .936-.229 1.223-.614.287-.387.375-.885.239-1.348z" mask="url(#ffre8gr06d)"/>
                    </g>
                    <path fill="#5F5F5F" d="M39.664 28.307c0-5.836 4.749-10.588 10.586-10.588 5.837 0 10.588 4.752 10.588 10.588 0 5.84-4.75 10.588-10.588 10.588-5.837 0-10.586-4.749-10.586-10.588m24.22 0c0-7.517-6.117-13.633-13.634-13.633-7.514 0-13.632 6.116-13.632 13.633 0 7.518 6.118 13.634 13.632 13.634 7.517 0 13.635-6.116 13.635-13.634" transform="translate(-68 -868) translate(68 868) translate(403 247)"/>
                </g>
                <g>
                    <text fill="#5F5F5F" font-family="NotoSansJP-Bold, Noto Sans JP" font-size="22" font-weight="bold" transform="translate(-68 -868) translate(68 868) translate(198 485)">
                        <tspan x="6" y="147">アメリカ</tspan>
                    </text>
                    <g>
                        <g transform="translate(-68 -868) translate(68 868) translate(198 485)">
                            <mask id="0fzggo1a3f" fill="#fff">
                                <use xlink:href="#2knmab98ae"/>
                            </mask>
                            <path fill="#5F5F5F" d="M67.862 81.72l21.172-10.586L96.51 96.04 67.862 81.72zm-16.09 15.736V86.121c0-.842-.68-1.524-1.522-1.524H27.738l1.373-8.457h20.78L92.53 97.456H51.772zm-3.045 0H25.646l1.597-9.813h21.484v9.813zm-45.16 0L9.966 76.14h16.059L22.56 97.456H3.567zm11.271-37.564h13.827l-2.144 13.201H10.877l3.961-13.2zm16.915 0h3.771c4.22 5.762 8.457 10.452 11.082 13.201H29.607l2.146-13.2zm-6.515-31.83c0-13.795 11.22-25.015 25.012-25.015 13.791 0 25.016 11.22 25.016 25.014 0 17.87-20.136 39.442-25.016 44.406-4.879-4.96-25.012-26.521-25.012-44.406zm60.427 31.83l2.481 8.281L64.46 80.02 52.823 74.2c2.42-2.464 7.3-7.684 12.156-14.309h20.686zM100.44 98.54L88.255 57.935c-.196-.645-.789-1.087-1.461-1.087H67.129c5.898-8.626 11.181-19.061 11.181-28.787 0-15.473-12.588-28.06-28.06-28.06C34.779 0 22.19 12.588 22.19 28.06c0 9.726 5.28 20.16 11.177 28.787H13.705c-.672 0-1.266.442-1.457 1.087L.064 98.539c-.136.463-.05.96.237 1.348.289.385.741.614 1.22.614h97.456c.484 0 .936-.229 1.223-.614.287-.387.375-.885.239-1.348z" mask="url(#0fzggo1a3f)"/>
                        </g>
                        <path fill="#5F5F5F" d="M39.664 28.307c0-5.836 4.749-10.588 10.586-10.588 5.837 0 10.588 4.752 10.588 10.588 0 5.84-4.75 10.588-10.588 10.588-5.837 0-10.586-4.749-10.586-10.588m24.22 0c0-7.517-6.117-13.633-13.634-13.633-7.514 0-13.632 6.116-13.632 13.633 0 7.518 6.118 13.634 13.632 13.634 7.517 0 13.635-6.116 13.635-13.634" transform="translate(-68 -868) translate(68 868) translate(198 485)"/>
                    </g>
                </g>
                <g>
                    <g transform="translate(-68 -868) translate(68 868) translate(202 247)">
                        <mask id="3tvwkzjivh" fill="#fff">
                            <use xlink:href="#8w87x82t4g"/>
                        </mask>
                        <path fill="#5F5F5F" d="M89.599 77.532h-7.13v-65.8c0-.843-.682-1.53-1.527-1.53H23.42v-7.14H89.6v74.47zM79.416 87.737h-7.128V38.26c0-.406-.161-.796-.45-1.084L55.55 20.854c-.285-.286-.674-.446-1.08-.446H13.237v-7.146h66.18v74.475zM55.996 25.63l11.078 11.098H55.996V25.63zM3.056 97.94V23.467h49.887V38.26c0 .843.685 1.53 1.527 1.53h14.763v58.15H3.055zM91.125 0H21.891c-.844 0-1.526.686-1.526 1.531v8.672H11.71c-.843 0-1.527.686-1.527 1.53v8.675H1.529c-.844 0-1.529.684-1.529 1.528v77.536C0 100.316.685 101 1.529 101h69.23c.845 0 1.53-.684 1.53-1.528v-8.673h8.653c.845 0 1.527-.686 1.527-1.532v-8.674h8.656c.842 0 1.53-.686 1.53-1.53V1.532c0-.845-.688-1.531-1.53-1.531z" mask="url(#3tvwkzjivh)"/>
                    </g>
                    <path fill="#5F5F5F" d="M11.708 39.79h32.581c.845 0 1.527-.686 1.527-1.532 0-.843-.682-1.53-1.527-1.53H11.708c-.842 0-1.527.687-1.527 1.53 0 .846.685 1.532 1.527 1.532M11.708 52.031h29.018c.844 0 1.526-.684 1.526-1.53 0-.844-.682-1.53-1.526-1.53H11.708c-.842 0-1.527.686-1.527 1.53 0 .846.685 1.53 1.527 1.53M60.582 48.971H50.91c-.844 0-1.526.686-1.526 1.532 0 .844.682 1.528 1.526 1.528h9.673c.842 0 1.527-.684 1.527-1.528 0-.846-.685-1.532-1.527-1.532M11.708 64.276h11.71c.844 0 1.526-.684 1.526-1.532 0-.844-.682-1.527-1.526-1.527h-11.71c-.842 0-1.527.683-1.527 1.527 0 .848.685 1.532 1.527 1.532M60.582 61.216h-26.98c-.845 0-1.53.684-1.53 1.53s.685 1.53 1.53 1.53h26.98c.842 0 1.527-.684 1.527-1.53s-.685-1.53-1.527-1.53M37.417 73.459H11.708c-.844 0-1.526.686-1.526 1.532 0 .844.682 1.53 1.526 1.53h25.709c.842 0 1.526-.686 1.526-1.53 0-.846-.684-1.532-1.526-1.532M60.582 73.459H47.6c-.844 0-1.529.686-1.529 1.532 0 .844.685 1.53 1.529 1.53h12.982c.842 0 1.527-.686 1.527-1.53 0-.846-.685-1.532-1.527-1.532M30.034 85.702H11.707c-.842 0-1.527.686-1.527 1.532 0 .843.685 1.527 1.527 1.527h18.327c.842 0 1.529-.684 1.529-1.527 0-.846-.687-1.532-1.53-1.532" transform="translate(-68 -868) translate(68 868) translate(202 247)"/>
                </g>
                <g fill-rule="nonzero">
                    <g>
                        <path fill="#F8ABAB" d="M19.636 24.465L19.636 46.667 4.162 35.566z" transform="translate(-68 -868) translate(68 868) translate(217 179) translate(0 4) rotate(-90 11.9 35.566)"/>
                        <path stroke="#F8ABAB" stroke-width="5" d="M11.73 1.5L11.73 35.149" transform="translate(-68 -868) translate(68 868) translate(217 179) translate(0 4)"/>
                    </g>
                    <g>
                        <path fill="#F8ABAB" d="M19.636 24.465L19.636 46.667 4.162 35.566z" transform="translate(-68 -868) translate(68 868) translate(217 179) matrix(1 0 0 -1 39 44) rotate(-90 11.9 35.566)"/>
                        <path stroke="#F8ABAB" stroke-width="5" d="M11.73 1.5L11.73 35.149" transform="translate(-68 -868) translate(68 868) translate(217 179) matrix(1 0 0 -1 39 44)"/>
                    </g>
                </g>
                <g fill-rule="nonzero">
                    <g>
                        <path fill="#F8ABAB" d="M19.636 24.465L19.636 46.667 4.162 35.566z" transform="translate(-68 -868) translate(68 868) rotate(90 53 319) translate(0 4) rotate(-90 11.9 35.566)"/>
                        <path stroke="#F8ABAB" stroke-width="5" d="M11.73 1.5L11.73 35.149" transform="translate(-68 -868) translate(68 868) rotate(90 53 319) translate(0 4)"/>
                    </g>
                    <g>
                        <path fill="#F8ABAB" d="M19.636 24.465L19.636 46.667 4.162 35.566z" transform="translate(-68 -868) translate(68 868) rotate(90 53 319) matrix(1 0 0 -1 39 44) rotate(-90 11.9 35.566)"/>
                        <path stroke="#F8ABAB" stroke-width="5" d="M11.73 1.5L11.73 35.149" transform="translate(-68 -868) translate(68 868) rotate(90 53 319) matrix(1 0 0 -1 39 44)"/>
                    </g>
                </g>
                <g fill-rule="nonzero">
                    <g>
                        <path fill="#F8ABAB" d="M19.636 24.465L19.636 46.667 4.162 35.566z" transform="translate(-68 -868) translate(68 868) matrix(0 1 1 0 123 266) translate(0 4) rotate(-90 11.9 35.566)"/>
                        <path stroke="#F8ABAB" stroke-width="5" d="M11.73 1.5L11.73 35.149" transform="translate(-68 -868) translate(68 868) matrix(0 1 1 0 123 266) translate(0 4)"/>
                    </g>
                    <g>
                        <path fill="#F8ABAB" d="M19.636 24.465L19.636 46.667 4.162 35.566z" transform="translate(-68 -868) translate(68 868) matrix(0 1 1 0 123 266) matrix(1 0 0 -1 39 44) rotate(-90 11.9 35.566)"/>
                        <path stroke="#F8ABAB" stroke-width="5" d="M11.73 1.5L11.73 35.149" transform="translate(-68 -868) translate(68 868) matrix(0 1 1 0 123 266) matrix(1 0 0 -1 39 44)"/>
                    </g>
                </g>
                <g fill-rule="nonzero">
                    <g>
                        <path fill="#F8ABAB" d="M19.636 24.465L19.636 46.667 4.162 35.566z" transform="translate(-68 -868) translate(68 868) translate(217 417) translate(0 4) rotate(-90 11.9 35.566)"/>
                        <path stroke="#F8ABAB" stroke-width="5" d="M11.73 1.5L11.73 35.149" transform="translate(-68 -868) translate(68 868) translate(217 417) translate(0 4)"/>
                    </g>
                    <g>
                        <path fill="#F8ABAB" d="M19.636 24.465L19.636 46.667 4.162 35.566z" transform="translate(-68 -868) translate(68 868) translate(217 417) matrix(1 0 0 -1 39 44) rotate(-90 11.9 35.566)"/>
                        <path stroke="#F8ABAB" stroke-width="5" d="M11.73 1.5L11.73 35.149" transform="translate(-68 -868) translate(68 868) translate(217 417) matrix(1 0 0 -1 39 44)"/>
                    </g>
                </g>
                <path fill-rule="nonzero" stroke="#A5A5A5" stroke-dasharray="5.19 5.19" stroke-width="3" d="M46 222.995V102c0-22.644 18.356-41 41-41h72.696M46 421v120.995c0 22.644 18.356 41 41 41h72.696M451.696 222.995V102c0-22.644-18.356-41-41-41H338h0M451.696 421v120.995c0 22.644-18.356 41-41 41H338h0" transform="translate(-68 -868) translate(68 868)"/>
            </g>
        </g>
    </g>
</svg>
