<svg xmlns="http://www.w3.org/2000/svg" width="403" height="175" viewBox="0 0 403 175">
    <g fill="none" fill-rule="evenodd">
        <g>
            <g>
                <g>
                    <path stroke="#F8ABAB" stroke-dasharray=".15 22.5" stroke-linecap="round" stroke-linejoin="round" stroke-width="7.5" d="M283.5 54.875L145.5 54.875" transform="translate(-100 -2191) translate(30 481) translate(70 1710)"/>
                    <g fill="#5F5F5F">
                        <path d="M14.958 16.321h89.768V3.271H14.958v13.05zM106.362 0H13.325c-.905 0-1.638.733-1.638 1.638V58.396c0 .907.733 1.638 1.638 1.638.902 0 1.633-.731 1.633-1.638V19.595h89.77v84.87h-89.77V90.46c0-.902-.731-1.636-1.633-1.636-.905 0-1.638.734-1.638 1.636v15.64c0 .906.733 1.638 1.638 1.638h93.037c.907 0 1.638-.732 1.638-1.638V1.638C108 .733 107.269 0 106.362 0z" transform="translate(-100 -2191) translate(30 481) translate(70 1710) translate(12)"/>
                        <path d="M96.624 8.646c-.295.295-.475.72-.475 1.148 0 .44.18.85.491 1.159.297.312.722.474 1.147.474.444 0 .851-.162 1.161-.474.313-.293.475-.718.475-1.16 0-.427-.162-.852-.475-1.147-.605-.62-1.703-.62-2.324 0M88.82 8.156c-.9 0-1.636.736-1.636 1.638 0 .916.736 1.634 1.636 1.634.9 0 1.64-.718 1.64-1.634 0-.902-.74-1.638-1.64-1.638M78.675 8.646c-.297.295-.475.72-.475 1.148 0 .44.178.85.475 1.159.31.312.736.474 1.163.474.423 0 .848-.162 1.161-.474.293-.309.473-.718.473-1.16 0-.427-.18-.836-.473-1.162-.623-.606-1.705-.606-2.324.015M28.021 32.91h6.519l.002 6.521h-6.52v-6.52zm6.519 9.797c1.806 0 3.273-1.471 3.273-3.276v-6.52c0-1.805-1.467-3.272-3.273-3.272H28.02c-1.804 0-3.271 1.467-3.271 3.272v6.52c0 1.805 1.467 3.276 3.271 3.276h6.519zM26.38 92.784c0 .902.731 1.638 1.638 1.638h6.53c1.802 0 3.264-1.467 3.264-3.27v-6.529c0-1.802-1.462-3.27-3.265-3.27H31.28c-.904 0-1.635.734-1.635 1.639 0 .904.73 1.636 1.635 1.636l3.26-.005.007 6.523h-6.53c-.906 0-1.637.736-1.637 1.638M95.141 29.639H82.11c-.902 0-1.635.731-1.635 1.638 0 .902.733 1.634 1.635 1.634h13.032c.905 0 1.638-.732 1.638-1.634 0-.907-.733-1.638-1.638-1.638M72.31 29.639H47.804c-.905 0-1.638.731-1.638 1.638 0 .902.733 1.634 1.638 1.634h24.504c.905 0 1.638-.732 1.638-1.634 0-.907-.733-1.638-1.638-1.638M65.78 41.07c0 .901.73 1.637 1.637 1.637h17.928c.905 0 1.636-.736 1.636-1.638 0-.902-.731-1.638-1.636-1.638H67.417c-.907 0-1.638.736-1.638 1.638M47.806 42.706h11.439c.904 0 1.638-.733 1.638-1.638 0-.902-.734-1.636-1.638-1.636h-11.44c-.904 0-1.64.734-1.64 1.636 0 .905.736 1.638 1.64 1.638M95.141 55.498H65.747c-.909 0-1.64.732-1.64 1.636 0 .902.731 1.636 1.64 1.636h29.394c.905 0 1.638-.734 1.638-1.636 0-.904-.733-1.636-1.638-1.636M47.806 58.77h8.138c.907 0 1.638-.733 1.638-1.638 0-.902-.731-1.633-1.638-1.633h-8.138c-.905 0-1.64.731-1.64 1.633 0 .905.735 1.638 1.64 1.638M82.072 68.564c.902 0 1.638-.732 1.638-1.636 0-.905-.736-1.638-1.638-1.638h-8.11c-.906 0-1.64.733-1.64 1.638 0 .904.734 1.636 1.64 1.636h8.11zM47.806 68.564h17.986c.905 0 1.638-.732 1.638-1.636 0-.905-.733-1.638-1.638-1.638H47.806c-.905 0-1.64.733-1.64 1.638 0 .904.735 1.636 1.64 1.636M69.018 82.993c0 .902.731 1.636 1.636 1.636H95.14c.907 0 1.638-.734 1.638-1.636 0-.904-.73-1.64-1.638-1.64H70.654c-.905 0-1.636.736-1.636 1.64M47.806 84.628h13.05c.904 0 1.635-.732 1.635-1.636 0-.905-.731-1.638-1.635-1.638h-13.05c-.905 0-1.64.733-1.64 1.638 0 .904.735 1.636 1.64 1.636M47.806 94.421h27.72c.906 0 1.638-.733 1.638-1.638 0-.902-.732-1.636-1.638-1.636h-27.72c-.905 0-1.64.734-1.64 1.636 0 .905.735 1.638 1.64 1.638" transform="translate(-100 -2191) translate(30 481) translate(70 1710) translate(12)"/>
                        <path d="M28.647 64.663l-7.735 22.545-4.307-9.672c-.162-.37-.459-.666-.828-.83l-9.675-4.307 22.545-7.736zm-3.89-7.521c0-.903.734-1.636 1.636-1.636h9.776c.902 0 1.636.733 1.636 1.636v9.776c0 .902-.734 1.638-1.636 1.638h-5.398l2.057-5.996c.205-.588.054-1.245-.39-1.688-.443-.443-1.1-.594-1.687-.39l-5.994 2.057v-5.397zM19.611 92.34c.266.591.853.97 1.497.97l.074-.003c.67-.03 1.258-.468 1.476-1.102l6.99-20.376h6.521c2.71 0 4.907-2.203 4.907-4.912v-9.776c0-2.707-2.198-4.91-4.907-4.91h-9.776c-2.707 0-4.91 2.203-4.91 4.91v6.52L1.107 70.655c-.636.218-1.077.803-1.104 1.474-.032.673.353 1.296.967 1.57l12.902 5.738 5.74 12.904z" transform="translate(-100 -2191) translate(30 481) translate(70 1710) translate(12)"/>
                    </g>
                    <text fill="#5F5F5F" font-family="NotoSansJP-Bold, Noto Sans JP" font-size="22" font-weight="bold" transform="translate(-100 -2191) translate(30 481) translate(70 1710)">
                        <tspan x="0" y="168">テンプレート</tspan>
                    </text>
                    <text fill="#5F5F5F" font-family="NotoSansJP-Bold, Noto Sans JP" font-size="22" font-weight="bold" transform="translate(-100 -2191) translate(30 481) translate(70 1710)">
                        <tspan x="308" y="168">ECサイト</tspan>
                    </text>
                    <g transform="translate(-100 -2191) translate(30 481) translate(70 1710) translate(309 6)">
                        <rect width="90.031" height="101" x="1.985" y="1.5" fill-rule="nonzero" stroke="#5F5F5F" stroke-width="3" rx="1.5"/>
                        <g fill="#5F5F5F">
                            <path d="M17.903.449c-.285.283-.46.693-.46 1.105 0 .424.175.819.476 1.115.287.301.7.458 1.112.458.43 0 .824-.156 1.125-.458.303-.281.46-.69.46-1.115 0-.412-.157-.822-.46-1.105-.587-.599-1.65-.599-2.253 0M10.307 0c-.872 0-1.585.709-1.585 1.577 0 .882.713 1.573 1.585 1.573s1.59-.69 1.59-1.573C11.896.71 11.178 0 10.306 0M.46.45C.172.734 0 1.144 0 1.555c0 .425.172.82.46 1.116.301.301.713.457 1.127.457.41 0 .822-.156 1.125-.457.284-.297.458-.69.458-1.116 0-.411-.174-.806-.458-1.12C2.108-.148 1.06-.148.46.45" transform="translate(64.443 7.222)"/>
                        </g>
                        <path fill-rule="nonzero" stroke="#5F5F5F" stroke-width="1.5" d="M1.235 16.639H92.766V18.028H1.235z"/>
                        <rect width="63.866" height="25.889" x="15.067" y="28.944" fill="#FFF" fill-rule="nonzero" stroke="#5F5F5F" stroke-width="3" rx="3"/>
                        <path fill="#FFF" fill-rule="nonzero" stroke="#5F5F5F" stroke-width="3" d="M39.64 65.056c.413 0 .788.167 1.06.439.271.271.44.646.44 1.06h0v22.89c0 .414-.169.789-.44 1.06-.272.272-.647.44-1.06.44h0-23.073c-.414 0-.79-.168-1.06-.44-.272-.271-.44-.646-.44-1.06h0v-22.89c0-.414.168-.789.44-1.06.27-.272.646-.44 1.06-.44h0z"/>
                        <rect width="27.619" height="2.889" x="49.907" y="66.444" fill="#5F5F5F" fill-rule="nonzero" rx="1.444"/>
                        <rect width="27.619" height="2.889" x="49.907" y="75.111" fill="#5F5F5F" fill-rule="nonzero" rx="1.444"/>
                        <rect width="27.619" height="2.889" x="49.907" y="83.778" fill="#5F5F5F" fill-rule="nonzero" rx="1.444"/>
                    </g>
                </g>
            </g>
        </g>
    </g>
</svg>
