<svg xmlns="http://www.w3.org/2000/svg" xmlns:xlink="http://www.w3.org/1999/xlink" width="580" height="1286" viewBox="0 0 580 1286">
    <defs>
        <path id="llf0by2rla" d="M1.905 1.277L78.44 1.277 78.44 78.131 1.905 78.131z"/>
        <path id="5ngpq5azwc" d="M0 0.001L80.335 0.001 80.335 101 0 101z"/>
        <path id="m6830e3eae" d="M1.905 1.277L78.44 1.277 78.44 78.131 1.905 78.131z"/>
        <path id="jn05vigyig" d="M0 0.001L80.335 0.001 80.335 101 0 101z"/>
        <path id="ud4jgckyui" d="M0 0.001L81.508 0.001 81.508 101 0 101z"/>
    </defs>
    <g fill="none" fill-rule="evenodd">
        <g>
            <g>
                <text fill="#444" font-family="NotoSansJP-Regular, Noto Sans JP" font-size="26" transform="translate(-30 -1049) translate(30 1049)">
                    <tspan x="0" y="465">手動の入力作業による時間やコスト、</tspan> <tspan x="0" y="509">人的ミスによるトラブルを大幅に削減できます。 </tspan>
                </text>
                <path fill="#F8ABAB" fill-rule="nonzero" d="M289.476 582.082c1.065-1.269 2.957-1.434 4.226-.368l42.27 35.488c.132.112.256.236.368.369 1.065 1.269.9 3.161-.369 4.227l-42.269 35.489c-.54.453-1.223.702-1.929.702-1.656 0-3-1.343-3-3v-14.916H247c-1.657 0-3-1.343-3-3v-33.597c0-1.657 1.343-3 3-3l41.773-.001v-16.464c0-.635.202-1.252.573-1.763z" transform="translate(-30 -1049) translate(30 1049) rotate(90 290.5 619.5)"/>
                <g transform="translate(-30 -1049) translate(30 1049) translate(31 716)">
                    <path fill-rule="nonzero" stroke="#F8ABAB" stroke-dasharray="4.5 4.5" stroke-width="4.5" d="M45.313 207.75L45.313 248.793M361.802 207.75L361.802 248.793M361.8 126.75L361.8 158.793M43.802 108.75L43.802 161.793"/>
                    <g fill-rule="nonzero">
                        <path fill="#F8ABAB" d="M15.884 130.725L15.884 149.044 3.116 139.884z" transform="matrix(1 0 0 -1 151 255) scale(1 -1) rotate(90 149.384 0)"/>
                        <path stroke="#F8ABAB" stroke-width="4.5" d="M9.34 0.75L9.34 140.25" transform="matrix(1 0 0 -1 151 255) rotate(-180 9.34 70.5)"/>
                    </g>
                    <g fill-rule="nonzero">
                        <path fill="#F8ABAB" d="M15.884 133.725L15.884 152.044 3.116 142.884z" transform="matrix(-1 0 0 1 485 106.5) scale(1 -1) rotate(90 152.384 0)"/>
                        <path stroke="#F8ABAB" stroke-width="4.5" d="M9.34 0.75L9.34 143.25" transform="matrix(-1 0 0 1 485 106.5) rotate(-180 9.34 72)"/>
                    </g>
                    <g fill-rule="nonzero">
                        <path fill="#333" d="M16.384 -2.5L16.384 15.819 3.616 6.66z" transform="rotate(90 13.5 332) matrix(0 1 1 0 3.34 -3.34)"/>
                        <path stroke="#333" stroke-width="4.5" d="M10 7.25L10 172.25" transform="rotate(90 13.5 332)"/>
                    </g>
                    <rect width="516" height="78" x="1.5" y="1.5" fill="#FFF" fill-rule="nonzero" stroke="#FA2828" stroke-width="3" rx="6"/>
                    <path fill="#FA2828" fill-rule="nonzero" d="M141.278 49.25c1 0 1.912-.194 2.736-.583.824-.39 1.481-.922 1.972-1.598.49-.675.736-1.449.736-2.319 0-1.833-1.065-3.065-3.194-3.694l-1.584-.528c-.63-.185-1.055-.403-1.277-.653-.223-.25-.334-.523-.334-.82 0-.407.195-.759.584-1.055.389-.296.916-.444 1.583-.444.685 0 1.347.138 1.986.416.639.278 1.18.565 1.625.861v-3.11c-.407-.334-.981-.63-1.722-.89-.74-.259-1.546-.389-2.417-.389-1.055 0-1.99.19-2.805.57-.815.38-1.45.898-1.903 1.555-.454.658-.68 1.431-.68 2.32 0 .889.203 1.657.61 2.305.408.649 1.149 1.149 2.223 1.5l1.722.612c.611.203 1.074.407 1.389.61.315.204.472.482.472.834 0 .463-.19.82-.57 1.07-.38.25-.92.374-1.624.374-.445 0-.936-.069-1.473-.208-.537-.139-1.055-.32-1.555-.542-.5-.222-.926-.453-1.278-.694v3.083c.463.352 1.139.676 2.028.973.889.296 1.805.444 2.75.444zm11.972-.417v-8.889c.389-.555.856-1.037 1.403-1.444.546-.407 1.134-.611 1.764-.611.796 0 1.421.231 1.875.694.453.463.68 1.167.68 2.111l.028 8.14h3.528v-8.612c0-1.926-.482-3.37-1.445-4.333-.963-.963-2.157-1.445-3.583-1.445-.944 0-1.782.25-2.514.75-.731.5-1.31 1.037-1.736 1.612v-7.973h-3.528v20h3.528zm19.861.417c1.37 0 2.62-.329 3.75-.986 1.13-.658 2.042-1.542 2.736-2.653.695-1.111 1.042-2.361 1.042-3.75 0-1.389-.347-2.643-1.042-3.764-.694-1.12-1.606-2.009-2.736-2.666-1.13-.658-2.38-.987-3.75-.987-1.352 0-2.597.33-3.736.987-1.139.657-2.05 1.546-2.736 2.666-.685 1.12-1.028 2.375-1.028 3.764 0 1.389.343 2.639 1.028 3.75.685 1.111 1.597 1.995 2.736 2.653 1.139.657 2.384.986 3.736.986zm0-3.417c-.667 0-1.287-.152-1.861-.458-.574-.306-1.032-.755-1.375-1.347-.343-.593-.514-1.315-.514-2.167 0-.852.171-1.574.514-2.167.343-.592.8-1.046 1.375-1.36.574-.315 1.194-.473 1.861-.473s1.287.158 1.861.472c.574.315 1.037.769 1.39 1.361.351.593.527 1.315.527 2.167 0 .852-.176 1.574-.528 2.167-.352.592-.815 1.041-1.389 1.347-.574.306-1.194.458-1.86.458zM187.5 55.5v-8.25c.519.574 1.162 1.05 1.93 1.43.77.38 1.542.57 2.32.57 1.204 0 2.3-.3 3.292-.903.99-.602 1.777-1.467 2.36-2.597.584-1.13.876-2.472.876-4.028 0-1.555-.292-2.875-.875-3.958-.584-1.083-1.352-1.908-2.306-2.472-.953-.565-1.986-.848-3.097-.848-1.037 0-1.944.264-2.722.792s-1.37 1.171-1.778 1.93v-2.36h-3.528V55.5h3.528zm3.528-9.694c-.685 0-1.32-.172-1.903-.514-.583-.343-1.125-.773-1.625-1.292v-2.028c-.019-.833.144-1.546.486-2.139.343-.592.792-1.05 1.347-1.375.556-.324 1.148-.486 1.778-.486 1.056 0 1.903.361 2.542 1.084.639.722.958 1.61.958 2.666 0 .704-.148 1.366-.444 1.986-.297.62-.713 1.125-1.25 1.514-.537.39-1.167.584-1.89.584zM218 49.25c1.111 0 2.144-.287 3.097-.861.954-.574 1.722-1.408 2.306-2.5.583-1.093.875-2.417.875-3.972 0-1.556-.292-2.89-.875-4-.584-1.111-1.37-1.968-2.361-2.57-.991-.602-2.088-.903-3.292-.903-.778 0-1.55.176-2.32.528-.768.352-1.411.824-1.93 1.417v-7.556h-3.528v20h3.528v-2.36c.407.758 1 1.411 1.778 1.958.778.546 1.685.819 2.722.819zm-.889-3.556c-.63 0-1.222-.162-1.778-.486-.555-.324-1.004-.787-1.347-1.389-.342-.601-.505-1.328-.486-2.18v-2c.5-.537 1.042-.958 1.625-1.264.583-.306 1.218-.458 1.903-.458.722 0 1.352.19 1.889.57.537.379.953.87 1.25 1.471.296.602.444 1.255.444 1.959 0 1.055-.32 1.949-.958 2.68-.64.732-1.486 1.097-2.542 1.097zm14.472 9.806l10.195-20.694h-4.028l-3.889 8.944-4-8.944h-4.111l6.056 13-4.223 7.694h4zm24.5 0v-8.25c.519.574 1.162 1.05 1.93 1.43.77.38 1.543.57 2.32.57 1.204 0 2.301-.3 3.292-.903.99-.602 1.778-1.467 2.361-2.597.583-1.13.875-2.472.875-4.028 0-1.555-.292-2.875-.875-3.958-.583-1.083-1.352-1.908-2.305-2.472-.954-.565-1.987-.848-3.098-.848-1.037 0-1.944.264-2.722.792s-1.37 1.171-1.778 1.93v-2.36h-3.527V55.5h3.527zm3.528-9.694c-.685 0-1.32-.172-1.903-.514-.583-.343-1.125-.773-1.625-1.292v-2.028c-.018-.833.144-1.546.486-2.139.343-.592.792-1.05 1.348-1.375.555-.324 1.148-.486 1.777-.486 1.056 0 1.903.361 2.542 1.084.639.722.958 1.61.958 2.666 0 .704-.148 1.366-.444 1.986-.296.62-.713 1.125-1.25 1.514-.537.39-1.167.584-1.889.584zm14.139 3.027V41c.407-.778.88-1.43 1.417-1.958s1.213-.792 2.027-.792c.649 0 1.269.167 1.862.5v-3.972c-.408-.167-.862-.25-1.362-.25-.833 0-1.578.278-2.236.833-.657.556-1.227 1.25-1.708 2.083v-2.638h-3.528v14.027h3.528zm14.583.417c1.056 0 2.023-.2 2.903-.597.88-.398 1.542-.792 1.986-1.18l.028-3.279c-.5.426-1.167.843-2 1.25-.833.408-1.76.612-2.778.612-1.074 0-1.981-.287-2.722-.862-.74-.574-1.204-1.333-1.389-2.277h10.167v-1.5c0-1.37-.264-2.579-.792-3.625-.528-1.047-1.287-1.866-2.278-2.459-.99-.592-2.171-.889-3.541-.889s-2.593.348-3.667 1.042c-1.074.695-1.917 1.607-2.528 2.736-.61 1.13-.916 2.38-.916 3.75 0 1.408.338 2.658 1.013 3.75.676 1.093 1.584 1.954 2.723 2.584 1.139.63 2.402.944 3.791.944zm2.806-8.75h-6.722c.222-.907.63-1.63 1.222-2.167.592-.537 1.324-.805 2.194-.805.797 0 1.528.245 2.195.736.666.49 1.037 1.236 1.11 2.236zm10.139 8.333v-9.139c.37-.481.787-.902 1.25-1.263.463-.362.99-.542 1.583-.542.778 0 1.412.231 1.903.694.49.463.736 1.167.736 2.111l.028 8.14h3.528v-9.028c.388-.519.805-.968 1.25-1.348.444-.38.972-.57 1.583-.57.796 0 1.44.232 1.93.695.491.463.737 1.167.737 2.111l.027 8.14h3.528v-8.612c0-1.278-.236-2.342-.708-3.194-.472-.852-1.097-1.496-1.875-1.93-.778-.436-1.64-.654-2.584-.654-.981 0-1.842.264-2.583.792-.74.528-1.389 1.171-1.944 1.93-.445-.907-1.065-1.587-1.861-2.041-.797-.454-1.686-.68-2.667-.68-.945 0-1.718.222-2.32.666-.601.445-1.115.935-1.541 1.472v-1.777h-3.528v14.027h3.528zm25.055-16.555c.667 0 1.241-.241 1.723-.722.481-.482.722-1.037.722-1.667 0-.648-.241-1.208-.722-1.68-.482-.473-1.056-.709-1.723-.709-.666 0-1.236.236-1.708.708-.472.473-.708 1.033-.708 1.68 0 .63.236 1.186.708 1.668.472.481 1.042.722 1.708.722zm2.056 16.555V34.806h-5.778v3h2.25v11.027h3.528zm10.5.334c1.204 0 2.282-.241 3.236-.723.954-.481 1.708-1.17 2.264-2.069.555-.898.833-1.968.833-3.208v-8.361h-3.583v7.722c0 1.092-.255 1.907-.764 2.444-.51.537-1.171.806-1.986.806-.833 0-1.5-.269-2-.806s-.75-1.352-.75-2.444l-.028-7.722h-3.555v8.36c0 1.241.273 2.31.819 3.209.546.898 1.296 1.588 2.25 2.07.954.48 2.042.722 3.264.722zm13.889-.334v-9.139c.37-.481.787-.902 1.25-1.263.463-.362.99-.542 1.583-.542.778 0 1.412.231 1.903.694.49.463.736 1.167.736 2.111l.028 8.14h3.528v-9.028c.388-.519.805-.968 1.25-1.348.444-.38.972-.57 1.583-.57.796 0 1.44.232 1.93.695.491.463.737 1.167.737 2.111l.027 8.14h3.528v-8.612c0-1.278-.236-2.342-.708-3.194-.472-.852-1.097-1.496-1.875-1.93-.778-.436-1.64-.654-2.584-.654-.981 0-1.842.264-2.583.792-.74.528-1.389 1.171-1.944 1.93-.445-.907-1.065-1.587-1.861-2.041-.797-.454-1.686-.68-2.667-.68-.945 0-1.718.222-2.32.666-.601.445-1.115.935-1.541 1.472v-1.777h-3.528v14.027h3.528z"/>
                    <text fill="#5F5F5F" font-family="NotoSansJP-Bold, Noto Sans JP" font-size="18" font-weight="bold">
                        <tspan x="397.5" y="424">買手</tspan>
                    </text>
                    <text fill="#5F5F5F" font-family="NotoSansJP-Bold, Noto Sans JP" font-size="18" font-weight="bold">
                        <tspan x="61.5" y="424">メーカー</tspan>
                    </text>
                    <g fill-rule="nonzero" transform="translate(39 280.5)">
                        <path fill="#FFF" stroke="#5F5F5F" stroke-width="3" d="M87 1.5c.828 0 1.578.336 2.121.879.543.543.879 1.293.879 2.121h0V96H28.5V4.5c0-.828.336-1.578.879-2.121.543-.543 1.293-.879 2.121-.879h0z"/>
                        <path fill="#FFF" stroke="#5F5F5F" stroke-width="3" d="M48 64.5H69V96H48z"/>
                        <path fill="#5F5F5F" d="M37.5 10.5H79.5V13.5H37.5zM37.5 22.5H79.5V25.5H37.5zM37.5 34.5H79.5V37.5H37.5zM37.5 46.5H79.5V49.5H37.5z"/>
                        <rect width="117" height="3" y="94.5" fill="#5F5F5F" rx="1.5"/>
                    </g>
                    <path fill="#F8ABAB" fill-rule="nonzero" d="M369 105L369 123 355.5 114z" transform="rotate(90 362.25 114)"/>
                    <g fill-rule="nonzero" transform="translate(357 280.5)">
                        <path fill="#FFF" stroke="#5F5F5F" stroke-width="3" d="M87 1.5c.828 0 1.578.336 2.121.879.543.543.879 1.293.879 2.121h0V96H28.5V4.5c0-.828.336-1.578.879-2.121.543-.543 1.293-.879 2.121-.879h0z"/>
                        <path fill="#FFF" stroke="#5F5F5F" stroke-width="3" d="M48 64.5H69V96H48z"/>
                        <path fill="#5F5F5F" d="M37.5 10.5H79.5V13.5H37.5zM37.5 22.5H79.5V25.5H37.5zM37.5 34.5H79.5V37.5H37.5zM37.5 46.5H79.5V49.5H37.5z"/>
                        <rect width="117" height="3" y="94.5" fill="#5F5F5F" rx="1.5"/>
                    </g>
                    <rect width="111" height="36" x="204" y="310.5" fill="#FFF" fill-rule="nonzero" stroke="#333" stroke-width="3" rx="3"/>
                    <g transform="translate(316.5 165)">
                        <rect width="87" height="36" x="1.5" y="1.5" fill="#FFF" fill-rule="nonzero" stroke="#FA2828" stroke-width="3" rx="3"/>
                        <text fill="#FA2828" font-family="NotoSansJP-Bold, Noto Sans JP" font-size="18" font-weight="bold">
                            <tspan x="19.5" y="26.5">支払い</tspan>
                        </text>
                    </g>
                    <path fill="#F8ABAB" fill-rule="nonzero" d="M51.75 240.75L51.75 258.75 38.25 249.75z" transform="rotate(-90 45 249.75)"/>
                    <g transform="translate(0 165)">
                        <rect width="87" height="36" x="1.5" y="1.5" fill="#FFF" fill-rule="nonzero" stroke="#FA2828" stroke-width="3" rx="3"/>
                        <text fill="#FA2828" font-family="NotoSansJP-Bold, Noto Sans JP" font-size="18" font-weight="bold">
                            <tspan x="18" y="26.5">支払い</tspan>
                        </text>
                    </g>
                    <text fill="#333" font-family="NotoSansJP-Bold, Noto Sans JP" font-size="18" font-weight="bold">
                        <tspan x="223.5" y="335.5">商品発送</tspan>
                    </text>
                    <g transform="translate(429 165)">
                        <rect width="87" height="36" x="1.5" y="1.5" fill="#FFF" fill-rule="nonzero" stroke="#FA2828" stroke-width="3" rx="3"/>
                        <text fill="#FA2828" font-family="NotoSansJP-Bold, Noto Sans JP" font-size="18" font-weight="bold">
                            <tspan x="28.5" y="26.5">販売</tspan>
                        </text>
                    </g>
                    <g transform="translate(112.5 165)">
                        <rect width="91.5" height="36" x="1.5" y="1.5" fill="#FFF" fill-rule="nonzero" stroke="#FA2828" stroke-width="3" rx="3"/>
                        <text fill="#FA2828" font-family="NotoSansJP-Bold, Noto Sans JP" font-size="18" font-weight="bold">
                            <tspan x="12" y="26.5">商品登録</tspan>
                        </text>
                    </g>
                </g>
                <g transform="translate(-30 -1049) translate(30 1049) translate(16)">
                    <text fill="#5F5F5F" font-family="NotoSansJP-Bold, Noto Sans JP" font-size="22" font-weight="bold">
                        <tspan x="417" y="381">請求書作成</tspan>
                    </text>
                    <text fill="#5F5F5F" font-family="NotoSansJP-Bold, Noto Sans JP" font-size="22" font-weight="bold">
                        <tspan x="24" y="380">請求書</tspan>
                    </text>
                    <text fill="#5F5F5F" font-family="NotoSansJP-Bold, Noto Sans JP" font-size="22" font-weight="bold">
                        <tspan x="189" y="380">郵送・FAX</tspan>
                    </text>
                    <g>
                        <g transform="translate(429 223) translate(6.293 14.73)">
                            <mask id="56krieclsb" fill="#fff">
                                <use xlink:href="#llf0by2rla"/>
                            </mask>
                            <path fill="#5F5F5F" d="M74.946 14.154l-4.013 4.03-9.357-9.375 4.01-4.025c.596-.598 1.57-.595 2.159-.002l7.199 7.21c.289.29.446.672.446 1.078 0 .41-.157.794-.444 1.084zM19.264 70.08l-3.6-3.605 49.517-49.732 3.596 3.605L19.264 70.08zM8.533 63.654l7.796 7.811-10.725 2.952 2.929-10.763zm50.89-52.68l3.598 3.607-49.515 49.732-3.6-3.604 49.518-49.735zm17.673-1.148l-7.19-7.211C68.113.83 65.21.83 63.43 2.619l-4.008 4.03c-.6-.602-1.563-.598-2.159 0-.596.597-.596 1.567 0 2.162v.003L6.673 59.627c-.19.192-.324.423-.391.682L1.959 76.197c-.145.53.006 1.1.394 1.486.288.29.68.448 1.076.448.139 0 .27-.019.407-.053l15.83-4.355c.26-.074.491-.208.68-.396l50.59-50.813c.297.296.69.446 1.08.446.387 0 .78-.152 1.075-.448.596-.598.596-1.568 0-2.166l4.013-4.029c.862-.869 1.338-2.022 1.338-3.247 0-1.229-.48-2.38-1.346-3.244z" mask="url(#56krieclsb)"/>
                        </g>
                        <path fill="#5F5F5F" d="M61.033 17.842c0-.843-.682-1.53-1.527-1.53l-14.746.011c-.843 0-1.523.686-1.523 1.534 0 .844.682 1.526 1.523 1.526l14.748-.007c.843 0 1.525-.688 1.525-1.534M27.984 19.394l8.644-.006c.841 0 1.523-.684 1.523-1.53 0-.844-.684-1.53-1.527-1.53h-.002l-8.642.006c-.841 0-1.523.684-1.523 1.532 0 .846.684 1.528 1.523 1.528h.004zM49.087 30.098c0-.846-.682-1.53-1.523-1.53h-.002l-17.783.017c-.84 0-1.523.686-1.523 1.532 0 .843.686 1.527 1.525 1.527h.004l17.779-.015c.845 0 1.523-.688 1.523-1.531M21.644 31.645c.846 0 1.53-.686 1.53-1.532 0-.844-.686-1.528-1.53-1.528l-9.938.005c-.847 0-1.53.685-1.53 1.53s.687 1.531 1.53 1.531l9.938-.006zM36.127 42.355c0-.844-.682-1.532-1.525-1.532l-22.891.008c-.843 0-1.525.688-1.525 1.532 0 .844.682 1.53 1.525 1.53l22.89-.006c.844 0 1.526-.688 1.526-1.532M23.912 53.052l-12.197.026c-.848.002-1.525.688-1.523 1.531.002.846.682 1.53 1.525 1.53h.004l12.195-.025c.845-.002 1.525-.688 1.525-1.532-.004-.846-.686-1.53-1.525-1.53h-.004z" transform="translate(429 223)"/>
                        <g transform="translate(429 223)">
                            <mask id="nonla1lkad" fill="#fff">
                                <use xlink:href="#5ngpq5azwc"/>
                            </mask>
                            <path fill="#5F5F5F" d="M16.277 5.226v11.103H5.211L16.277 5.226zM78.81 44.212c-.843 0-1.53.686-1.53 1.532v52.198H3.053V19.389h14.755c.839 0 1.52-.684 1.52-1.528V3.063h57.954v8.835c0 .846.686 1.53 1.529 1.53.839 0 1.525-.684 1.525-1.53V1.531c0-.844-.686-1.53-1.525-1.53H17.807c-.407 0-.795.162-1.083.446L.45 16.777c-.29.289-.449.678-.449 1.084v81.61c0 .844.684 1.53 1.525 1.53H78.81c.839 0 1.525-.686 1.525-1.53V45.744c0-.846-.686-1.532-1.525-1.532z" mask="url(#nonla1lkad)"/>
                        </g>
                        <path fill="#5F5F5F" d="M68.624 68.205c.842 0 1.525-.686 1.525-1.532 0-.844-.683-1.528-1.525-1.528H57.956c-.839 0-1.523.684-1.523 1.528 0 .846.684 1.532 1.523 1.532h10.668zM44.226 78.919c0 .843.682 1.531 1.527 1.531h22.872c.84 0 1.522-.688 1.522-1.531 0-.844-.681-1.532-1.522-1.532H45.753c-.845 0-1.527.688-1.527 1.532" transform="translate(429 223)"/>
                    </g>
                    <circle cx="246.5" cy="282.5" r="2.5" fill="#5F5F5F" fill-rule="nonzero"/>
                    <g transform="translate(180 238)">
                        <g fill-rule="nonzero" stroke="#5F5F5F" stroke-width="3" transform="translate(.5 53)">
                            <rect width="48" height="30" x="1.5" y="1.5" fill="#FFF" rx="2.4"/>
                            <path d="M1.5 1.5l22.028 16.88c.862.66 2.06.66 2.922-.001L48 1.828h0"/>
                        </g>
                        <rect width="69" height="31.5" x="63.5" y="36.5" fill="#FFF" fill-rule="nonzero" stroke="#5F5F5F" stroke-width="3" rx="3"/>
                        <rect width="51" height="34.5" x="72.5" y="2" fill="#FFF" fill-rule="nonzero" stroke="#5F5F5F" stroke-width="3" rx="3"/>
                        <rect width="39" height="31.5" x="78.5" y="51.5" fill="#FFF" fill-rule="nonzero" stroke="#5F5F5F" stroke-width="3" rx="3"/>
                        <rect width="24" height="3" x="86" y="59" fill="#5F5F5F" fill-rule="nonzero" rx="1.5"/>
                        <rect width="24" height="3" x="86" y="65" fill="#5F5F5F" fill-rule="nonzero" rx="1.5"/>
                        <g fill="#5F5F5F">
                            <path d="M.317 0L8.6 0 8.6 2.178 2.907 2.178 2.907 4.901 7.84 4.901 7.84 6.913 2.907 6.913 2.907 11.781.317 11.781zM13.207 7.227h3.053l-1.485-4.323h-.033l-1.535 4.323zM13.455 0h2.656l4.406 11.781h-2.69l-.89-2.623H12.53l-.924 2.623H9L13.455 0zM25.026 5.829L21.231.219 24.234.219 26.544 3.981 28.936.219 31.774.219 27.996 5.846 32.105 12 29.019 12 26.445 7.925 23.822 12 20.918 12z" transform="translate(81.5 14)"/>
                        </g>
                    </g>
                    <text fill="#5F5F5F" font-family="NotoSansJP-Bold, Noto Sans JP" font-size="22" font-weight="bold">
                        <tspan x="0" y="156">発注書作成</tspan>
                    </text>
                    <text fill="#5F5F5F" font-family="NotoSansJP-Bold, Noto Sans JP" font-size="22" font-weight="bold">
                        <tspan x="395" y="156">注文内容を入力</tspan>
                    </text>
                    <text fill="#5F5F5F" font-family="NotoSansJP-Bold, Noto Sans JP" font-size="22" font-weight="bold">
                        <tspan x="189" y="156">郵送・FAX</tspan>
                    </text>
                    <g fill-rule="nonzero">
                        <path fill="#F8ABAB" d="M15.544 -2.775L15.544 15.544 2.775 6.384z" transform="rotate(90 60 102) matrix(0 1 1 0 2.775 -2.775)"/>
                        <path stroke="#F8ABAB" stroke-width="4.5" d="M9 6.75L9 56.689" transform="rotate(90 60 102)"/>
                    </g>
                    <g fill-rule="nonzero">
                        <path fill="#F8ABAB" d="M15.544 -2.775L15.544 15.544 2.775 6.384z" transform="matrix(0 1 1 0 105 266) matrix(0 1 1 0 2.775 -2.775)"/>
                        <path stroke="#F8ABAB" stroke-width="4.5" d="M9 6.75L9 56.689" transform="matrix(0 1 1 0 105 266)"/>
                    </g>
                    <g fill-rule="nonzero">
                        <path fill="#F8ABAB" d="M15.544 -2.775L15.544 15.544 2.775 6.384z" transform="rotate(90 177.5 217.5) matrix(0 1 1 0 2.775 -2.775)"/>
                        <path stroke="#F8ABAB" stroke-width="4.5" d="M9 6.75L9 56.689" transform="rotate(90 177.5 217.5)"/>
                    </g>
                    <g fill-rule="nonzero">
                        <path fill="#F8ABAB" d="M15.544 -2.775L15.544 15.544 2.775 6.384z" transform="matrix(0 1 1 0 338 266) matrix(0 1 1 0 2.775 -2.775)"/>
                        <path stroke="#F8ABAB" stroke-width="4.5" d="M9 6.75L9 56.689" transform="matrix(0 1 1 0 338 266)"/>
                    </g>
                    <g>
                        <g transform="translate(12) translate(6.293 14.73)">
                            <mask id="7cpx5edcvf" fill="#fff">
                                <use xlink:href="#m6830e3eae"/>
                            </mask>
                            <path fill="#5F5F5F" d="M74.946 14.154l-4.013 4.03-9.357-9.375 4.01-4.025c.596-.598 1.57-.595 2.159-.002l7.199 7.21c.289.29.446.672.446 1.078 0 .41-.157.794-.444 1.084zM19.264 70.08l-3.6-3.605 49.517-49.732 3.596 3.605L19.264 70.08zM8.533 63.654l7.796 7.811-10.725 2.952 2.929-10.763zm50.89-52.68l3.598 3.607-49.515 49.732-3.6-3.604 49.518-49.735zm17.673-1.148l-7.19-7.211C68.113.83 65.21.83 63.43 2.619l-4.008 4.03c-.6-.602-1.563-.598-2.159 0-.596.597-.596 1.567 0 2.162v.003L6.673 59.627c-.19.192-.324.423-.391.682L1.959 76.197c-.145.53.006 1.1.394 1.486.288.29.68.448 1.076.448.139 0 .27-.019.407-.053l15.83-4.355c.26-.074.491-.208.68-.396l50.59-50.813c.297.296.69.446 1.08.446.387 0 .78-.152 1.075-.448.596-.598.596-1.568 0-2.166l4.013-4.029c.862-.869 1.338-2.022 1.338-3.247 0-1.229-.48-2.38-1.346-3.244z" mask="url(#7cpx5edcvf)"/>
                        </g>
                        <path fill="#5F5F5F" d="M61.033 17.842c0-.843-.682-1.53-1.527-1.53l-14.746.011c-.843 0-1.523.686-1.523 1.534 0 .844.682 1.526 1.523 1.526l14.748-.007c.843 0 1.525-.688 1.525-1.534M27.984 19.394l8.644-.006c.841 0 1.523-.684 1.523-1.53 0-.844-.684-1.53-1.527-1.53h-.002l-8.642.006c-.841 0-1.523.684-1.523 1.532 0 .846.684 1.528 1.523 1.528h.004zM49.087 30.098c0-.846-.682-1.53-1.523-1.53h-.002l-17.783.017c-.84 0-1.523.686-1.523 1.532 0 .843.686 1.527 1.525 1.527h.004l17.779-.015c.845 0 1.523-.688 1.523-1.531M21.644 31.645c.846 0 1.53-.686 1.53-1.532 0-.844-.686-1.528-1.53-1.528l-9.938.005c-.847 0-1.53.685-1.53 1.53s.687 1.531 1.53 1.531l9.938-.006zM36.127 42.355c0-.844-.682-1.532-1.525-1.532l-22.891.008c-.843 0-1.525.688-1.525 1.532 0 .844.682 1.53 1.525 1.53l22.89-.006c.844 0 1.526-.688 1.526-1.532M23.912 53.052l-12.197.026c-.848.002-1.525.688-1.523 1.531.002.846.682 1.53 1.525 1.53h.004l12.195-.025c.845-.002 1.525-.688 1.525-1.532-.004-.846-.686-1.53-1.525-1.53h-.004z" transform="translate(12)"/>
                        <g transform="translate(12)">
                            <mask id="d0n8erci9h" fill="#fff">
                                <use xlink:href="#jn05vigyig"/>
                            </mask>
                            <path fill="#5F5F5F" d="M16.277 5.226v11.103H5.211L16.277 5.226zM78.81 44.212c-.843 0-1.53.686-1.53 1.532v52.198H3.053V19.389h14.755c.839 0 1.52-.684 1.52-1.528V3.063h57.954v8.835c0 .846.686 1.53 1.529 1.53.839 0 1.525-.684 1.525-1.53V1.531c0-.844-.686-1.53-1.525-1.53H17.807c-.407 0-.795.162-1.083.446L.45 16.777c-.29.289-.449.678-.449 1.084v81.61c0 .844.684 1.53 1.525 1.53H78.81c.839 0 1.525-.686 1.525-1.53V45.744c0-.846-.686-1.532-1.525-1.532z" mask="url(#d0n8erci9h)"/>
                        </g>
                        <path fill="#5F5F5F" d="M68.624 68.205c.842 0 1.525-.686 1.525-1.532 0-.844-.683-1.528-1.525-1.528H57.956c-.839 0-1.523.684-1.523 1.528 0 .846.684 1.532 1.523 1.532h10.668zM44.226 78.919c0 .843.682 1.531 1.527 1.531h22.872c.84 0 1.522-.688 1.522-1.531 0-.844-.681-1.532-1.522-1.532H45.753c-.845 0-1.527.688-1.527 1.532" transform="translate(12)"/>
                    </g>
                    <g>
                        <path fill="#5F5F5F" d="M28.392 19.394l40.695-.006c.856 0 1.546-.684 1.546-1.53 0-.844-.694-1.53-1.548-1.53h-.002l-40.695.006c-.854 0-1.545.684-1.545 1.532 0 .846.693 1.528 1.547 1.528h.002zM28.392 31.642l40.695-.006c.856 0 1.546-.684 1.546-1.53 0-.844-.694-1.53-1.548-1.53h-.002l-40.695.006c-.854 0-1.545.684-1.545 1.532 0 .846.693 1.528 1.547 1.528h.002zM21.962 31.645c.855 0 1.549-.686 1.549-1.532 0-.844-.696-1.527-1.55-1.527l-10.085.004c-.858 0-1.55.686-1.55 1.53 0 .845.694 1.531 1.55 1.531l10.086-.006zM28.392 68.291l40.695-.006c.856 0 1.546-.684 1.546-1.53 0-.844-.694-1.53-1.548-1.53h-.002l-40.695.007c-.854 0-1.545.684-1.545 1.532 0 .845.693 1.527 1.547 1.527h.002zM21.962 68.295c.855 0 1.549-.686 1.549-1.531 0-.844-.696-1.528-1.55-1.528l-10.085.004c-.858 0-1.55.686-1.55 1.53 0 .846.694 1.532 1.55 1.532l10.086-.007zM36.655 42.355c0-.844-.691-1.532-1.549-1.532l-23.225.008c-.853 0-1.547.688-1.547 1.532 0 .844.694 1.53 1.547 1.53l23.225-.006c.858 0 1.55-.688 1.55-1.532M64.215 54.592c0-.844-.692-1.532-1.55-1.532l-23.224.008c-.854 0-1.548.688-1.548 1.532 0 .844.694 1.53 1.548 1.53l23.225-.007c.857 0 1.549-.688 1.549-1.531" transform="translate(15 223)"/>
                        <g transform="translate(15 223)">
                            <mask id="nay25bnvoj" fill="#fff">
                                <use xlink:href="#ud4jgckyui"/>
                            </mask>
                            <path fill="#5F5F5F" d="M16.516 5.226v11.103H5.286l11.23-11.103zm61.895 40.518V97.94H3.096V19.39h14.97c.853 0 1.545-.684 1.545-1.528V3.063h58.8v42.681zM79.961 0H18.065c-.413 0-.805.162-1.096.446L.455 16.777c-.292.289-.456.678-.456 1.084v81.61c0 .844.694 1.53 1.55 1.53H79.96c.854 0 1.55-.686 1.55-1.53V1.531c0-.844-.696-1.53-1.55-1.53z" mask="url(#nay25bnvoj)"/>
                        </g>
                        <path fill="#5F5F5F" d="M44.872 78.919c0 .844.692 1.532 1.55 1.532h23.205c.854 0 1.545-.688 1.545-1.532 0-.844-.691-1.532-1.545-1.532H46.421c-.857 0-1.55.688-1.55 1.532" transform="translate(15 223)"/>
                    </g>
                    <rect width="24" height="3" x="235" y="79" fill="#5F5F5F" fill-rule="nonzero" rx="1.5"/>
                    <g transform="translate(180 15)">
                        <g fill-rule="nonzero" stroke="#5F5F5F" stroke-width="3" transform="translate(0 52)">
                            <rect width="48" height="30" x="1.5" y="1.5" fill="#FFF" rx="2.4"/>
                            <path d="M1.5 1.5l22.028 16.88c.862.66 2.06.66 2.922-.001L48 1.828h0"/>
                        </g>
                        <rect width="69" height="31.5" x="63.5" y="35.5" fill="#FFF" fill-rule="nonzero" stroke="#5F5F5F" stroke-width="3" rx="3"/>
                        <rect width="51" height="34.5" x="72.5" y="1.5" fill="#FFF" fill-rule="nonzero" stroke="#5F5F5F" stroke-width="3" rx="3"/>
                        <rect width="39" height="31.5" x="78.5" y="50.5" fill="#FFF" fill-rule="nonzero" stroke="#5F5F5F" stroke-width="3" rx="3"/>
                        <rect width="24" height="3" x="86" y="58" fill="#5F5F5F" fill-rule="nonzero" rx="1.5"/>
                        <circle cx="124.25" cy="44.25" r="2.25" fill="#5F5F5F" fill-rule="nonzero"/>
                        <g fill="#5F5F5F">
                            <path d="M.317 0L8.6 0 8.6 2.178 2.907 2.178 2.907 4.901 7.84 4.901 7.84 6.913 2.907 6.913 2.907 11.781.317 11.781zM13.207 7.227h3.053l-1.485-4.323h-.033l-1.535 4.323zM13.455 0h2.656l4.406 11.781h-2.69l-.89-2.623H12.53l-.924 2.623H9L13.455 0zM25.026 5.829L21.231.219 24.234.219 26.544 3.981 28.936.219 31.774.219 27.996 5.846 32.105 12 29.019 12 26.445 7.925 23.822 12 20.918 12z" transform="translate(81 13)"/>
                        </g>
                    </g>
                    <g fill="#FFF" stroke="#5F5F5F" stroke-width="3">
                        <g fill-rule="nonzero" transform="translate(427 15)">
                            <rect width="21" height="21" x="34.5" y="1.5" rx="3"/>
                            <rect width="21" height="21" x="67.5" y="1.5" rx="3"/>
                            <rect width="21" height="21" x="1.5" y="1.5" rx="3"/>
                        </g>
                        <g>
                            <path d="M22.342-1.5c1.159 0 2.22.365 2.995.918.995.71 1.526 1.71 1.526 2.737h0V19.02c1.06-1.236 2.581-1.883 4.121-1.88 1.543.002 3.062.656 4.013 1.886 1.052-.843 2.266-1.305 3.534-1.305 1.173 0 2.273.398 3.142 1.068.885.683 1.528 1.646 1.782 2.757.84-.386 1.67-.59 2.502-.59 1.316 0 2.513.483 3.413 1.3.9.817 1.51 1.972 1.63 3.347h0V55.5H26.566c-1.377 0-4.352-2.03-6.944-4.048-3.095-2.398-6.552-5.12-10.392-6.305-.595-.182-1.4-.236-2.284-.236-2.224 0-4.906.39-6.566.67-.406.068-.87.15-1.373.245-.183-.598-.29-1.09-.355-1.478-.103-.616-.189-1.513-.136-2.749.066-1.583 1.12-3.168 3.19-4.347 1.637-.931 3.91-1.614 6.527-1.838 4.392-.383 8.097.452 9.494.825h0l.066-34.084c0-1.027.534-2.03 1.54-2.74.78-.552 1.845-.915 3.009-.915z" transform="translate(427 15) translate(23 19)"/>
                            <path fill-rule="nonzero" d="M51 55.5V63c0 .414-.168.79-.44 1.06-.27.272-.646.44-1.06.44h0-21c-.414 0-.79-.168-1.06-.44-.272-.27-.44-.646-.44-1.06h0v-7.5h24z" transform="translate(427 15) translate(23 19)"/>
                        </g>
                    </g>
                </g>
                <text fill="#444" font-family="NotoSansJP-Regular, Noto Sans JP" font-size="26" transform="translate(-30 -1049) translate(30 1049)">
                    <tspan x="0" y="1228">EC化のためWEB検索から新しい取引先ができた</tspan> <tspan x="0" y="1272">り、個人からの受注が発生するケースもある。 </tspan>
                </text>
            </g>
        </g>
    </g>
</svg>
