<svg xmlns="http://www.w3.org/2000/svg" xmlns:xlink="http://www.w3.org/1999/xlink" width="520" height="1077" viewBox="0 0 520 1077">
    <defs>
        <rect id="3ykbhov1ia" width="520" height="356" x="0" y="27" rx="15.573"/>
        <rect id="qd01tvtnfb" width="520" height="617" x="0" y="433" rx="15.573"/>
        <path id="631grhdnie" d="M0 0L107.275 0 107.275 107.279 0 107.279z"/>
        <path id="7i7yql0m0g" d="M0 0L107.275 0 107.275 107.279 0 107.279z"/>
        <mask id="auug3d4m8c" width="520" height="356" x="0" y="0" fill="#fff" maskContentUnits="userSpaceOnUse" maskUnits="objectBoundingBox">
            <use xlink:href="#3ykbhov1ia"/>
        </mask>
        <mask id="jktryp5s8d" width="520" height="617" x="0" y="0" fill="#fff" maskContentUnits="userSpaceOnUse" maskUnits="objectBoundingBox">
            <use xlink:href="#qd01tvtnfb"/>
        </mask>
    </defs>
    <g fill="none" fill-rule="evenodd">
        <g>
            <g>
                <g transform="translate(-60 -3254) translate(30 481) translate(30 2773)">
                    <use fill="#FFF" fill-rule="nonzero" stroke="#A5A5A5" stroke-dasharray="5.191 5.191" stroke-width="6" mask="url(#auug3d4m8c)" xlink:href="#3ykbhov1ia"/>
                    <use fill="#FFF" fill-rule="nonzero" stroke="#A5A5A5" stroke-dasharray="5.191 5.191" stroke-width="6" mask="url(#jktryp5s8d)" xlink:href="#qd01tvtnfb"/>
                    <g>
                        <g transform="translate(205 78)">
                            <mask id="n1893zmxbf" fill="#fff">
                                <use xlink:href="#631grhdnie"/>
                            </mask>
                            <path fill="#5F5F5F" d="M96.983 56.348h-8.67c-3.882 0-7.044-3.16-7.044-7.042v-.543h22.756v.543c0 3.882-3.16 7.042-7.042 7.042zm-1.627 10.84H11.919v-7.59h7.043c3.65 0 6.841-1.92 8.67-4.79 1.83 2.87 5.02 4.79 8.669 4.79h8.667c3.65 0 6.841-1.92 8.67-4.79 1.83 2.87 5.02 4.79 8.667 4.79h8.672c3.647 0 6.836-1.92 8.667-4.79 1.828 2.87 5.02 4.79 8.67 4.79h7.042v7.59zM48.759 91.024h46.597V70.438H48.759v20.586zm0 13.003h46.597v-9.753H48.759v9.753zm-3.252 0H29.254V92.66l.002-.011V70.438h16.25v33.59zM26.004 91.024H11.92v-4.21l9.258-9.256c.634-.635.634-1.665 0-2.3-.637-.632-1.665-.632-2.3 0l-6.958 6.958V70.438h14.085v20.586zM11.92 104.027h14.085v-9.753H11.92v9.753zM3.25 49.306v-.543h22.757v.543c0 3.882-3.16 7.042-7.044 7.042h-8.67c-3.882 0-7.042-3.16-7.042-7.042zm12.052-13.544h16.201l-4.876 9.751H5.546l9.755-9.751zm36.71 13v.544c0 3.882-3.158 7.042-7.043 7.042h-8.667c-3.885 0-7.045-3.16-7.045-7.042v-.543h22.755zm-16.872-13H52.01v9.751H30.26l4.878-9.751zM16.253 21.675h74.77V3.252h-74.77v18.423zm60.76 23.838H55.265v-9.751h16.874l4.874 9.751zM35.758 32.51h35.76v-7.588h-35.76v7.588zm19.507 16.253h22.754v.543c0 3.882-3.158 7.042-7.042 7.042h-8.672c-3.882 0-7.04-3.16-7.04-7.042v-.543zm36.712-13.001l9.753 9.751H80.65l-4.877-9.751h16.204zm15.298 13.544v-2.168c0-.423-.16-.838-.474-1.149L93.796 32.986c-.304-.304-.715-.476-1.149-.476h-17.88v-7.588h17.88c.898 0 1.627-.726 1.627-1.625V1.625C94.274.728 93.545 0 92.647 0H14.628c-.898 0-1.627.728-1.627 1.625v21.672c0 .899.729 1.625 1.627 1.625h17.88v7.588h-17.88c-.433 0-.845.172-1.149.476L.474 45.989c-.313.31-.474.726-.474 1.149v2.168c0 5.12 3.766 9.342 8.667 10.129v44.592H1.623c-.896 0-1.623.729-1.623 1.627 0 .896.727 1.625 1.623 1.625h104.03c.896 0 1.622-.729 1.622-1.625 0-.898-.726-1.627-1.623-1.627h-7.044V59.435c4.901-.787 8.667-5.009 8.667-10.13z" mask="url(#n1893zmxbf)"/>
                        </g>
                        <path fill="#5F5F5F" d="M40.631 89.94c.899 0 1.627-.726 1.627-1.624 0-.899-.728-1.625-1.627-1.625-.896 0-1.624.726-1.624 1.625 0 .898.728 1.625 1.624 1.625M67.712 86.704c.416 0 .831-.159 1.151-.478l8.67-8.668c.632-.634.632-1.665 0-2.3-.637-.632-1.668-.632-2.303 0l-8.669 8.67c-.633.635-.633 1.663 0 2.298.317.32.733.478 1.151.478M54.708 86.704c.418 0 .83-.159 1.146-.478l8.67-8.668c.637-.634.637-1.665 0-2.3-.635-.632-1.663-.632-2.298 0l-8.67 8.67c-.634.635-.634 1.663 0 2.298.318.32.734.478 1.152.478M80.716 86.704c.418 0 .829-.159 1.149-.478l8.67-8.668c.632-.634.632-1.665 0-2.3-.638-.632-1.666-.632-2.303 0l-8.67 8.67c-.632.635-.632 1.663 0 2.298.322.32.736.478 1.154.478" transform="translate(205 78)"/>
                    </g>
                    <g>
                        <g transform="translate(205 614)">
                            <mask id="sd29shglyh" fill="#fff">
                                <use xlink:href="#7i7yql0m0g"/>
                            </mask>
                            <path fill="#5F5F5F" d="M96.983 56.348h-8.67c-3.882 0-7.044-3.16-7.044-7.042v-.543h22.756v.543c0 3.882-3.16 7.042-7.042 7.042zm-1.627 10.84H11.919v-7.59h7.043c3.65 0 6.841-1.92 8.67-4.79 1.83 2.87 5.02 4.79 8.669 4.79h8.667c3.65 0 6.841-1.92 8.67-4.79 1.83 2.87 5.02 4.79 8.667 4.79h8.672c3.647 0 6.836-1.92 8.667-4.79 1.828 2.87 5.02 4.79 8.67 4.79h7.042v7.59zM48.759 91.024h46.597V70.438H48.759v20.586zm0 13.003h46.597v-9.753H48.759v9.753zm-3.252 0H29.254V92.66l.002-.011V70.438h16.25v33.59zM26.004 91.024H11.92v-4.21l9.258-9.256c.634-.635.634-1.665 0-2.3-.637-.632-1.665-.632-2.3 0l-6.958 6.958V70.438h14.085v20.586zM11.92 104.027h14.085v-9.753H11.92v9.753zM3.25 49.306v-.543h22.757v.543c0 3.882-3.16 7.042-7.044 7.042h-8.67c-3.882 0-7.042-3.16-7.042-7.042zm12.052-13.544h16.201l-4.876 9.751H5.546l9.755-9.751zm36.71 13v.544c0 3.882-3.158 7.042-7.043 7.042h-8.667c-3.885 0-7.045-3.16-7.045-7.042v-.543h22.755zm-16.872-13H52.01v9.751H30.26l4.878-9.751zM16.253 21.675h74.77V3.252h-74.77v18.423zm60.76 23.838H55.265v-9.751h16.874l4.874 9.751zM35.758 32.51h35.76v-7.588h-35.76v7.588zm19.507 16.253h22.754v.543c0 3.882-3.158 7.042-7.042 7.042h-8.672c-3.882 0-7.04-3.16-7.04-7.042v-.543zm36.712-13.001l9.753 9.751H80.65l-4.877-9.751h16.204zm15.298 13.544v-2.168c0-.423-.16-.838-.474-1.149L93.796 32.986c-.304-.304-.715-.476-1.149-.476h-17.88v-7.588h17.88c.898 0 1.627-.726 1.627-1.625V1.625C94.274.728 93.545 0 92.647 0H14.628c-.898 0-1.627.728-1.627 1.625v21.672c0 .899.729 1.625 1.627 1.625h17.88v7.588h-17.88c-.433 0-.845.172-1.149.476L.474 45.989c-.313.31-.474.726-.474 1.149v2.168c0 5.12 3.766 9.342 8.667 10.129v44.592H1.623c-.896 0-1.623.729-1.623 1.627 0 .896.727 1.625 1.623 1.625h104.03c.896 0 1.622-.729 1.622-1.625 0-.898-.726-1.627-1.623-1.627h-7.044V59.435c4.901-.787 8.667-5.009 8.667-10.13z" mask="url(#sd29shglyh)"/>
                        </g>
                        <path fill="#5F5F5F" d="M40.631 89.94c.899 0 1.627-.726 1.627-1.624 0-.899-.728-1.625-1.627-1.625-.896 0-1.624.726-1.624 1.625 0 .898.728 1.625 1.624 1.625M67.712 86.704c.416 0 .831-.159 1.151-.478l8.67-8.668c.632-.634.632-1.665 0-2.3-.637-.632-1.668-.632-2.303 0l-8.669 8.67c-.633.635-.633 1.663 0 2.298.317.32.733.478 1.151.478M54.708 86.704c.418 0 .83-.159 1.146-.478l8.67-8.668c.637-.634.637-1.665 0-2.3-.635-.632-1.663-.632-2.298 0l-8.67 8.67c-.634.635-.634 1.663 0 2.298.318.32.734.478 1.152.478M80.716 86.704c.418 0 .829-.159 1.149-.478l8.67-8.668c.632-.634.632-1.665 0-2.3-.638-.632-1.666-.632-2.303 0l-8.67 8.67c-.632.635-.632 1.663 0 2.298.322.32.736.478 1.154.478" transform="translate(205 614)"/>
                    </g>
                    <g fill-rule="nonzero">
                        <path fill="#F8ABAB" d="M18.746 105.549L18.746 126.681 4.017 116.115z" transform="matrix(1 0 0 -1 355 604) rotate(-90 11.382 116.115)"/>
                        <path stroke="#F8ABAB" stroke-width="5" d="M11.382 0.865L11.382 116.149" transform="matrix(1 0 0 -1 355 604)"/>
                    </g>
                    <path fill="#F8ABAB" fill-rule="nonzero" d="M250.164 309L271.296 309 260.73 323.729zM250.164 852L271.296 852 260.73 866.729z"/>
                    <path fill-rule="nonzero" stroke="#F8ABAB" stroke-width="5" d="M260.73 195.221L260.73 317.149M260.73 738.221L260.73 860.149"/>
                    <g fill-rule="nonzero" stroke="#5F5F5F" stroke-width="3.266" transform="translate(211 888)">
                        <rect width="84.91" height="73.48" x="6.736" y="10.378" fill="#FFF" rx="1.633"/>
                        <rect width="94.707" height="19.595" x="1.838" y="2.214" fill="#FFF" rx="1.633"/>
                        <path d="M36.128 21.809v37.694c0 .901.731 1.632 1.633 1.632.38 0 .75-.132 1.042-.375l11.37-9.423h0l9.316 8.975c.65.625 1.683.606 2.309-.043.293-.305.457-.71.457-1.133V21.809h0"/>
                    </g>
                    <g fill-rule="nonzero">
                        <path fill="#F8ABAB" d="M17.93 -3.201L17.93 17.93 3.201 7.364z" transform="matrix(1 0 0 -1 143 605) matrix(0 1 1 0 3.201 -3.201)"/>
                        <path stroke="#F8ABAB" stroke-width="5" d="M10.382 7.786L10.382 123.07" transform="matrix(1 0 0 -1 143 605)"/>
                    </g>
                    <g transform="translate(83 514)">
                        <rect width="140" height="54" x="1" y="1" fill="#FFF" fill-rule="nonzero" stroke="#5F5F5F" stroke-width="2" rx="3.461"/>
                        <text fill="#5F5F5F" font-family="NotoSansJP-Bold, Noto Sans JP" font-size="22" font-weight="bold">
                            <tspan x="49" y="36">注文</tspan>
                        </text>
                    </g>
                    <g transform="translate(295 514)">
                        <rect width="140" height="54" x="1" y="1" fill="#FFF" fill-rule="nonzero" stroke="#5F5F5F" stroke-width="2" rx="3.461"/>
                        <text fill="#5F5F5F" font-family="NotoSansJP-Bold, Noto Sans JP" font-size="22" font-weight="bold">
                            <tspan x="28" y="36">商品登録</tspan>
                        </text>
                    </g>
                    <g transform="translate(189 229)">
                        <rect width="140" height="54" x="1" y="1" fill="#FFF" fill-rule="nonzero" stroke="#5F5F5F" stroke-width="2" rx="3.461"/>
                        <text fill="#5F5F5F" font-family="NotoSansJP-Bold, Noto Sans JP" font-size="22" font-weight="bold">
                            <tspan x="49" y="36">集客</tspan>
                        </text>
                    </g>
                    <g transform="translate(189)">
                        <rect width="142" height="56" fill="#FFF" fill-rule="nonzero" rx="3.461"/>
                        <text fill="#5F5F5F" font-family="NotoSansJP-Bold, Noto Sans JP" font-size="22" font-weight="bold">
                            <tspan x="27" y="36">導入企業</tspan>
                        </text>
                    </g>
                    <g transform="translate(189 1021)">
                        <rect width="142" height="56" fill="#FFF" fill-rule="nonzero" rx="3.461"/>
                        <text fill="#5F5F5F" font-family="NotoSansJP-Bold, Noto Sans JP" font-size="22" font-weight="bold">
                            <tspan x="38" y="36">仕入先</tspan>
                        </text>
                    </g>
                    <g transform="translate(189 771)">
                        <rect width="140" height="54" x="1" y="1" fill="#FFF" fill-rule="nonzero" stroke="#5F5F5F" stroke-width="2" rx="3.461"/>
                        <text fill="#5F5F5F" font-family="NotoSansJP-Bold, Noto Sans JP" font-size="22" font-weight="bold">
                            <tspan x="49" y="36">発送</tspan>
                        </text>
                    </g>
                    <rect width="307" height="107" x="106.5" y="351.5" fill="#FFF" fill-rule="nonzero" stroke="#FA2828" stroke-width="3" rx="3.461"/>
                    <path fill="#FA2828" fill-rule="nonzero" d="M147.597 412.75c1 0 1.912-.194 2.736-.583.824-.39 1.482-.922 1.973-1.598.49-.675.736-1.449.736-2.319 0-1.833-1.065-3.065-3.195-3.694l-1.583-.528c-.63-.185-1.056-.403-1.278-.653-.222-.25-.333-.523-.333-.82 0-.407.194-.759.583-1.055.389-.296.917-.444 1.583-.444.686 0 1.348.138 1.987.416.638.278 1.18.565 1.625.861v-3.11c-.408-.334-.982-.63-1.723-.89-.74-.259-1.546-.389-2.416-.389-1.056 0-1.991.19-2.806.57-.815.38-1.449.898-1.903 1.555-.453.658-.68 1.431-.68 2.32 0 .889.203 1.657.61 2.305.408.649 1.149 1.149 2.223 1.5l1.722.612c.611.203 1.074.407 1.39.61.314.204.471.482.471.834 0 .463-.19.82-.569 1.07-.38.25-.921.374-1.625.374-.444 0-.935-.069-1.472-.208-.537-.139-1.056-.32-1.556-.542-.5-.222-.926-.453-1.278-.694v3.083c.463.352 1.14.676 2.028.973.89.296 1.806.444 2.75.444zm11.972-.417v-8.889c.39-.555.857-1.037 1.403-1.444.547-.407 1.134-.611 1.764-.611.796 0 1.421.231 1.875.694.454.463.68 1.167.68 2.111l.028 8.14h3.528v-8.612c0-1.926-.481-3.37-1.444-4.333-.963-.963-2.158-1.445-3.584-1.445-.944 0-1.782.25-2.513.75-.732.5-1.31 1.037-1.737 1.612v-7.973h-3.527v20h3.527zm19.862.417c1.37 0 2.62-.329 3.75-.986 1.13-.658 2.041-1.542 2.736-2.653.694-1.111 1.041-2.361 1.041-3.75 0-1.389-.347-2.643-1.041-3.764-.695-1.12-1.607-2.009-2.736-2.666-1.13-.658-2.38-.987-3.75-.987-1.352 0-2.598.33-3.737.987-1.138.657-2.05 1.546-2.736 2.666-.685 1.12-1.027 2.375-1.027 3.764 0 1.389.342 2.639 1.027 3.75.686 1.111 1.598 1.995 2.736 2.653 1.14.657 2.385.986 3.737.986zm0-3.417c-.667 0-1.287-.152-1.862-.458-.574-.306-1.032-.755-1.375-1.347-.342-.593-.513-1.315-.513-2.167 0-.852.17-1.574.513-2.167.343-.592.801-1.046 1.375-1.36.575-.315 1.195-.473 1.862-.473.666 0 1.287.158 1.86.472.575.315 1.038.769 1.39 1.361.351.593.527 1.315.527 2.167 0 .852-.176 1.574-.527 2.167-.352.592-.815 1.041-1.39 1.347-.573.306-1.194.458-1.86.458zM193.819 419v-8.25c.519.574 1.162 1.05 1.931 1.43.769.38 1.542.57 2.32.57 1.203 0 2.3-.3 3.291-.903.99-.602 1.778-1.467 2.361-2.597.584-1.13.875-2.472.875-4.028 0-1.555-.291-2.875-.875-3.958-.583-1.083-1.352-1.908-2.305-2.472-.954-.565-1.986-.848-3.098-.848-1.037 0-1.944.264-2.722.792s-1.37 1.171-1.778 1.93v-2.36h-3.527V419h3.527zm3.528-9.694c-.685 0-1.32-.172-1.903-.514-.583-.343-1.125-.773-1.625-1.292v-2.028c-.018-.833.144-1.546.487-2.139.342-.592.791-1.05 1.347-1.375.555-.324 1.148-.486 1.778-.486 1.055 0 1.902.361 2.541 1.084.64.722.959 1.61.959 2.666 0 .704-.149 1.366-.445 1.986-.296.62-.713 1.125-1.25 1.514-.537.39-1.167.584-1.889.584zm26.972 3.444c1.112 0 2.144-.287 3.098-.861.953-.574 1.722-1.408 2.305-2.5.584-1.093.875-2.417.875-3.972 0-1.556-.291-2.89-.875-4-.583-1.111-1.37-1.968-2.36-2.57-.992-.602-2.089-.903-3.293-.903-.777 0-1.55.176-2.319.528-.769.352-1.412.824-1.93 1.417v-7.556h-3.528v20h3.527v-2.36c.408.758 1 1.411 1.778 1.958.778.546 1.685.819 2.722.819zm-.888-3.556c-.63 0-1.223-.162-1.778-.486-.556-.324-1.005-.787-1.347-1.389-.343-.601-.505-1.328-.487-2.18v-2c.5-.537 1.042-.958 1.625-1.264.584-.306 1.218-.458 1.903-.458.722 0 1.352.19 1.89.57.536.379.953.87 1.25 1.471.295.602.444 1.255.444 1.959 0 1.055-.32 1.949-.959 2.68-.639.732-1.486 1.097-2.541 1.097zM237.903 419l10.194-20.694h-4.028l-3.888 8.944-4-8.944h-4.112l6.056 13-4.222 7.694h4zm24.5 0v-8.25c.518.574 1.162 1.05 1.93 1.43.769.38 1.542.57 2.32.57 1.203 0 2.3-.3 3.291-.903.991-.602 1.778-1.467 2.362-2.597.583-1.13.875-2.472.875-4.028 0-1.555-.292-2.875-.875-3.958-.584-1.083-1.352-1.908-2.306-2.472-.954-.565-1.986-.848-3.097-.848-1.037 0-1.945.264-2.722.792-.778.528-1.37 1.171-1.778 1.93v-2.36h-3.528V419h3.528zm3.528-9.694c-.686 0-1.32-.172-1.903-.514-.584-.343-1.125-.773-1.625-1.292v-2.028c-.019-.833.143-1.546.486-2.139.342-.592.792-1.05 1.347-1.375.556-.324 1.148-.486 1.778-.486 1.055 0 1.903.361 2.542 1.084.638.722.958 1.61.958 2.666 0 .704-.148 1.366-.445 1.986-.296.62-.713 1.125-1.25 1.514-.537.39-1.166.584-1.888.584zm14.138 3.027V404.5c.408-.778.88-1.43 1.417-1.958s1.213-.792 2.028-.792c.648 0 1.268.167 1.861.5v-3.972c-.407-.167-.861-.25-1.361-.25-.833 0-1.579.278-2.236.833-.658.556-1.227 1.25-1.709 2.083v-2.638h-3.527v14.027h3.527zm14.584.417c1.055 0 2.023-.2 2.903-.597.88-.398 1.541-.792 1.986-1.18l.027-3.279c-.5.426-1.166.843-2 1.25-.833.408-1.759.612-2.777.612-1.074 0-1.982-.287-2.723-.862-.74-.574-1.203-1.333-1.388-2.277h10.166v-1.5c0-1.37-.264-2.579-.791-3.625-.528-1.047-1.287-1.866-2.278-2.459-.991-.592-2.172-.889-3.542-.889-1.37 0-2.592.348-3.667 1.042-1.074.695-1.916 1.607-2.527 2.736-.611 1.13-.917 2.38-.917 3.75 0 1.408.338 2.658 1.014 3.75.676 1.093 1.583 1.954 2.722 2.584 1.139.63 2.403.944 3.792.944zm2.805-8.75h-6.722c.222-.907.63-1.63 1.222-2.167.593-.537 1.324-.805 2.195-.805.796 0 1.528.245 2.194.736.667.49 1.037 1.236 1.111 2.236zm10.14 8.333v-9.139c.37-.481.786-.902 1.25-1.263.462-.362.99-.542 1.583-.542.777 0 1.412.231 1.902.694.491.463.736 1.167.736 2.111l.028 8.14h3.528v-9.028c.389-.519.806-.968 1.25-1.348.444-.38.972-.57 1.583-.57.797 0 1.44.232 1.93.695.492.463.737 1.167.737 2.111l.028 8.14h3.528v-8.612c0-1.278-.237-2.342-.709-3.194-.472-.852-1.097-1.496-1.875-1.93-.778-.436-1.639-.654-2.583-.654-.982 0-1.843.264-2.583.792-.741.528-1.39 1.171-1.945 1.93-.444-.907-1.065-1.587-1.861-2.041-.796-.454-1.685-.68-2.667-.68-.944 0-1.717.222-2.32.666-.601.445-1.115.935-1.54 1.472v-1.777h-3.529v14.027h3.528zm25.055-16.555c.666 0 1.24-.241 1.722-.722.481-.482.722-1.037.722-1.667 0-.648-.24-1.208-.722-1.68-.481-.473-1.056-.709-1.722-.709-.667 0-1.236.236-1.709.708-.472.473-.708 1.033-.708 1.68 0 .63.236 1.186.708 1.668.473.481 1.042.722 1.709.722zm2.055 16.555v-14.027h-5.777v3h2.25v11.027h3.527zm10.5.334c1.204 0 2.283-.241 3.236-.723.954-.481 1.709-1.17 2.264-2.069.556-.898.834-1.968.834-3.208v-8.361h-3.584v7.722c0 1.092-.254 1.907-.764 2.444-.509.537-1.17.806-1.986.806-.833 0-1.5-.269-2-.806s-.75-1.352-.75-2.444l-.027-7.722h-3.556v8.36c0 1.241.273 2.31.82 3.209.546.898 1.296 1.588 2.25 2.07.953.48 2.041.722 3.263.722zm13.89-.334v-9.139c.37-.481.786-.902 1.25-1.263.462-.362.99-.542 1.583-.542.777 0 1.412.231 1.902.694.491.463.736 1.167.736 2.111l.028 8.14h3.528v-9.028c.389-.519.806-.968 1.25-1.348.444-.38.972-.57 1.583-.57.797 0 1.44.232 1.93.695.492.463.737 1.167.737 2.111l.028 8.14h3.528v-8.612c0-1.278-.237-2.342-.709-3.194-.472-.852-1.097-1.496-1.875-1.93-.778-.436-1.639-.654-2.583-.654-.982 0-1.843.264-2.583.792-.741.528-1.39 1.171-1.945 1.93-.444-.907-1.065-1.587-1.861-2.041-.796-.454-1.685-.68-2.667-.68-.944 0-1.717.222-2.32.666-.601.445-1.115.935-1.54 1.472v-1.777h-3.529v14.027h3.528z"/>
                </g>
            </g>
        </g>
    </g>
</svg>
