<svg xmlns="http://www.w3.org/2000/svg" xmlns:xlink="http://www.w3.org/1999/xlink" width="420" height="519" viewBox="0 0 420 519">
    <defs>
        <path id="ur3l8evlxa" d="M0.001 0L117.367 0 117.367 117.367 0.001 117.367z"/>
        <path id="vjf6d8ex4c" d="M0 106.967L106.967 106.967 106.967 0 0 0z"/>
    </defs>
    <g fill="none" fill-rule="evenodd">
        <g>
            <g>
                <g>
                    <path fill="#FFF" fill-rule="nonzero" stroke="#5F5F5F" stroke-width="2" d="M414.057 1c1.365 0 2.6.553 3.495 1.448.895.894 1.448 2.13 1.448 3.495h0v88.114c0 1.365-.553 2.6-1.448 3.495-.894.895-2.13 1.448-3.495 1.448h0H5.943c-1.365 0-2.6-.553-3.495-1.448C1.553 96.658 1 95.422 1 94.057h0V5.943c0-1.365.553-2.6 1.448-3.495C3.342 1.553 4.578 1 5.943 1h0z" transform="translate(-100 -1230) translate(30 481) translate(70 749)"/>
                    <g>
                        <path fill="#5F5F5F" d="M86.959 51.15c-.807 2.054-2.758 3.384-4.964 3.384H71.796l4.49-23.867 17.844 2.23L86.96 51.15zm-18.786 3.384H51.172l2.77-26.662 18.806 2.35-4.575 24.312zm-20.579 0H37.342c-2.94 0-5.333-2.394-5.333-5.335V25.13l18.402 2.303-2.817 27.1zm49.248-24.882l-64.994-8.125c-.785-5.78-5.702-10.262-11.695-10.262-.98 0-1.778.794-1.778 1.775 0 .983.797 1.78 1.778 1.78 4.577 0 8.298 3.722 8.298 8.296V49.2c0 4.902 3.99 8.89 8.891 8.89h44.653c3.68 0 6.927-2.21 8.274-5.64l8.008-20.383c.2-.511.152-1.086-.13-1.558-.278-.472-.757-.787-1.305-.856z" transform="translate(-100 -1230) translate(30 481) translate(70 749) translate(12 336)"/>
                        <g transform="translate(-100 -1230) translate(30 481) translate(70 749) translate(12 336)">
                            <mask id="a66mfsgtub" fill="#fff">
                                <use xlink:href="#ur3l8evlxa"/>
                            </mask>
                            <path fill="#5F5F5F" d="M113.813 85.358H3.556V6.522c0-1.636 1.33-2.966 2.964-2.966h104.327c1.635 0 2.966 1.33 2.966 2.966v78.836zm0 11.262c0 1.636-1.33 2.964-2.966 2.964H6.52c-1.634 0-2.964-1.328-2.964-2.964v-7.704h110.257v7.704zm-74.69 17.192h39.123v-10.668H39.123v10.668zM110.847 0H6.52C2.923 0 0 2.925 0 6.522V96.62c0 3.597 2.922 6.521 6.519 6.521h29.046v10.671H23.117c-.98 0-1.777.797-1.777 1.778 0 .983.797 1.777 1.777 1.777h71.134c.98 0 1.778-.794 1.778-1.777 0-.98-.797-1.778-1.778-1.778h-12.45v-10.67h29.046c3.596 0 6.52-2.925 6.52-6.522V6.522c0-3.597-2.924-6.522-6.52-6.522z" mask="url(#a66mfsgtub)"/>
                        </g>
                        <path fill="#5F5F5F" d="M87.133 13.035c.474 0 .924-.19 1.254-.523.333-.333.521-.78.521-1.257 0-.474-.188-.922-.52-1.257-.688-.662-1.85-.64-2.517 0-.327.335-.52.783-.52 1.257 0 .477.193.924.52 1.257.335.333.785.523 1.262.523M96.618 9.477c-.976 0-1.783.807-1.783 1.78 0 .996.807 1.778 1.783 1.778.995 0 1.775-.782 1.775-1.778 0-.973-.78-1.78-1.775-1.78M104.841 9.998c-.33.335-.52.807-.52 1.26 0 .474.19.923.52 1.254.338.332.783.523 1.26.523.471 0 .921-.19 1.256-.523.333-.33.519-.78.519-1.255 0-.452-.186-.924-.519-1.26-.662-.662-1.85-.662-2.516 0M77.656 75.873c-2.942 0-5.335-2.393-5.335-5.335 0-2.941 2.393-5.333 5.335-5.333 2.937 0 5.333 2.392 5.333 5.333 0 2.942-2.396 5.335-5.333 5.335m-37.944 0c-2.941 0-5.335-2.393-5.335-5.335 0-2.941 2.394-5.333 5.335-5.333 2.944 0 5.336 2.392 5.336 5.333 0 2.942-2.392 5.335-5.336 5.335m37.944-14.225c-4.296 0-7.886 3.061-8.712 7.113h-20.52c-.826-4.052-4.418-7.113-8.712-7.113-4.902 0-8.89 3.988-8.89 8.89 0 4.903 3.988 8.893 8.89 8.893 4.294 0 7.886-3.061 8.712-7.115h20.52c.826 4.054 4.416 7.115 8.712 7.115 4.902 0 8.888-3.99 8.888-8.893 0-4.902-3.986-8.89-8.888-8.89" transform="translate(-100 -1230) translate(30 481) translate(70 749) translate(12 336)"/>
                    </g>
                    <g fill="#494949">
                        <path fill-rule="nonzero" d="M5.597 21.92c1 0 1.912-.194 2.736-.583.824-.39 1.482-.922 1.973-1.597.49-.676.736-1.45.736-2.32 0-1.833-1.065-3.065-3.195-3.694l-1.583-.528c-.63-.185-1.056-.403-1.278-.653-.222-.25-.333-.523-.333-.82 0-.407.194-.759.583-1.055.389-.296.917-.444 1.583-.444.686 0 1.348.139 1.987.416.638.278 1.18.565 1.625.861v-3.11c-.408-.334-.982-.63-1.723-.89-.74-.259-1.546-.388-2.416-.388-1.056 0-1.991.19-2.806.569-.815.38-1.449.898-1.903 1.556-.453.657-.68 1.43-.68 2.319s.203 1.657.61 2.306c.408.648 1.149 1.148 2.223 1.5l1.722.61c.611.204 1.074.408 1.39.612.314.203.471.481.471.833 0 .463-.19.82-.569 1.07-.38.25-.921.375-1.625.375-.444 0-.935-.07-1.472-.209-.537-.139-1.056-.32-1.556-.541-.5-.223-.926-.454-1.278-.695v3.083c.463.352 1.14.676 2.028.973.89.296 1.806.444 2.75.444zm11.972-.417v-8.888c.39-.556.857-1.038 1.403-1.445.547-.407 1.134-.611 1.764-.611.796 0 1.421.231 1.875.694.454.463.68 1.167.68 2.112l.028 8.138h3.528v-8.61c0-1.927-.481-3.371-1.444-4.334-.963-.963-2.158-1.444-3.584-1.444-.944 0-1.782.25-2.513.75-.732.5-1.31 1.037-1.737 1.61V1.504h-3.527v20h3.527zm19.862.417c1.37 0 2.62-.329 3.75-.986s2.041-1.542 2.736-2.653c.694-1.11 1.041-2.36 1.041-3.75 0-1.389-.347-2.643-1.041-3.764-.695-1.12-1.607-2.009-2.736-2.666-1.13-.658-2.38-.986-3.75-.986-1.352 0-2.598.328-3.737.986-1.138.657-2.05 1.546-2.736 2.666-.685 1.12-1.027 2.375-1.027 3.764 0 1.39.342 2.64 1.027 3.75.686 1.111 1.598 1.996 2.736 2.653 1.14.657 2.385.986 3.737.986zm0-3.417c-.667 0-1.287-.152-1.862-.458-.574-.305-1.032-.755-1.375-1.347-.342-.593-.513-1.315-.513-2.167 0-.852.17-1.574.513-2.166.343-.593.801-1.047 1.375-1.362.575-.314 1.195-.472 1.862-.472.666 0 1.287.158 1.86.472.575.315 1.038.769 1.39 1.362.351.592.527 1.314.527 2.166 0 .852-.176 1.574-.527 2.167-.352.592-.815 1.042-1.39 1.347-.573.306-1.194.458-1.86.458zm14.388 9.667v-8.25c.519.574 1.162 1.051 1.931 1.43.769.38 1.542.57 2.32.57 1.203 0 2.3-.3 3.291-.903.99-.602 1.778-1.467 2.361-2.597.584-1.13.875-2.472.875-4.028 0-1.555-.291-2.875-.875-3.958-.583-1.083-1.352-1.907-2.305-2.472-.954-.565-1.986-.847-3.098-.847-1.037 0-1.944.263-2.722.791s-1.37 1.171-1.778 1.93v-2.36h-3.527V28.17h3.527zm3.528-9.694c-.685 0-1.32-.172-1.903-.514-.583-.343-1.125-.773-1.625-1.292v-2.028c-.018-.833.144-1.546.487-2.139.342-.592.791-1.05 1.347-1.375.555-.324 1.148-.486 1.778-.486 1.055 0 1.902.361 2.541 1.084.64.722.959 1.61.959 2.666 0 .704-.149 1.366-.445 1.986-.296.62-.713 1.125-1.25 1.514-.537.39-1.167.584-1.889.584zM82.32 21.92c1.112 0 2.144-.287 3.098-.861.953-.574 1.722-1.407 2.305-2.5.584-1.093.875-2.417.875-3.972 0-1.556-.291-2.89-.875-4-.583-1.111-1.37-1.968-2.36-2.57-.992-.602-2.089-.902-3.293-.902-.777 0-1.55.175-2.319.527-.769.352-1.412.824-1.93 1.417V1.503h-3.528v20h3.527v-2.36c.408.759 1 1.411 1.778 1.958.778.546 1.685.82 2.722.82zm-.888-3.555c-.63 0-1.223-.163-1.778-.487-.556-.324-1.005-.787-1.347-1.388-.343-.602-.505-1.33-.487-2.181v-2c.5-.537 1.042-.958 1.625-1.264.584-.305 1.218-.458 1.903-.458.722 0 1.352.19 1.89.57.536.379.953.87 1.25 1.471.295.602.444 1.255.444 1.959 0 1.055-.32 1.949-.959 2.68-.639.732-1.486 1.098-2.541 1.098zm14.472 9.805l10.194-20.694h-4.028l-3.888 8.944-4-8.944h-4.112l6.056 13-4.222 7.694h4zm24.5 0v-8.25c.518.574 1.162 1.051 1.93 1.43.769.38 1.542.57 2.32.57 1.203 0 2.3-.3 3.291-.903.991-.602 1.778-1.467 2.362-2.597.583-1.13.875-2.472.875-4.028 0-1.555-.292-2.875-.875-3.958-.584-1.083-1.352-1.907-2.306-2.472s-1.986-.847-3.097-.847c-1.037 0-1.945.263-2.722.791-.778.528-1.37 1.171-1.778 1.93v-2.36h-3.528V28.17h3.528zm3.528-9.694c-.686 0-1.32-.172-1.903-.514-.584-.343-1.125-.773-1.625-1.292v-2.028c-.019-.833.143-1.546.486-2.139.342-.592.792-1.05 1.347-1.375.556-.324 1.148-.486 1.778-.486 1.055 0 1.903.361 2.542 1.084.638.722.958 1.61.958 2.666 0 .704-.148 1.366-.445 1.986-.296.62-.713 1.125-1.25 1.514-.537.39-1.166.584-1.888.584zm14.138 3.027V13.67c.408-.778.88-1.43 1.417-1.958s1.213-.792 2.028-.792c.648 0 1.268.167 1.861.5V7.448c-.407-.167-.861-.25-1.361-.25-.833 0-1.579.278-2.236.833-.658.556-1.227 1.25-1.709 2.084v-2.64h-3.527v14.028h3.527zm14.584.417c1.055 0 2.023-.199 2.903-.597.88-.398 1.541-.792 1.986-1.18l.027-3.278c-.5.425-1.166.842-2 1.25-.833.407-1.759.61-2.777.61-1.074 0-1.982-.286-2.723-.86-.74-.575-1.203-1.334-1.388-2.278h10.166v-1.5c0-1.37-.264-2.579-.791-3.625-.528-1.047-1.287-1.866-2.278-2.459-.991-.592-2.172-.888-3.542-.888-1.37 0-2.592.347-3.667 1.041-1.074.695-1.916 1.607-2.527 2.736-.611 1.13-.917 2.38-.917 3.75 0 1.408.338 2.658 1.014 3.75.676 1.093 1.583 1.954 2.722 2.584 1.139.63 2.403.944 3.792.944zm2.805-8.75h-6.722c.222-.907.63-1.63 1.222-2.167.593-.537 1.324-.805 2.195-.805.796 0 1.528.245 2.194.736.667.49 1.037 1.236 1.111 2.236zm10.14 8.333v-9.138c.37-.482.786-.903 1.25-1.264.462-.361.99-.542 1.583-.542.777 0 1.412.231 1.902.694.491.463.736 1.167.736 2.112l.028 8.138h3.528v-9.027c.389-.519.806-.968 1.25-1.348.444-.38.972-.569 1.583-.569.797 0 1.44.231 1.93.694.492.463.737 1.167.737 2.112l.028 8.138h3.528v-8.61c0-1.278-.237-2.343-.709-3.195-.472-.852-1.097-1.496-1.875-1.93-.778-.436-1.639-.653-2.583-.653-.982 0-1.843.263-2.583.791-.741.528-1.39 1.171-1.945 1.93-.444-.907-1.065-1.587-1.861-2.04-.796-.455-1.685-.681-2.667-.681-.944 0-1.717.222-2.32.666-.601.445-1.115.935-1.54 1.472V7.476h-3.529v14.027h3.528zm25.055-16.555c.666 0 1.24-.24 1.722-.722.481-.482.722-1.037.722-1.667 0-.648-.24-1.208-.722-1.68-.481-.473-1.056-.709-1.722-.709-.667 0-1.236.236-1.709.708-.472.473-.708 1.033-.708 1.681 0 .63.236 1.185.708 1.667.473.481 1.042.722 1.709.722zm2.055 16.555V7.476h-5.777v3h2.25v11.027h3.527zm10.5.334c1.204 0 2.283-.241 3.236-.722.954-.482 1.709-1.172 2.264-2.07.556-.898.834-1.968.834-3.208V7.476h-3.584v7.722c0 1.092-.254 1.907-.764 2.444-.509.537-1.17.806-1.986.806-.833 0-1.5-.269-2-.806s-.75-1.352-.75-2.444l-.027-7.722h-3.556v8.36c0 1.241.273 2.31.82 3.21.546.897 1.296 1.587 2.25 2.069.953.481 2.041.722 3.263.722zm13.89-.334v-9.138c.37-.482.786-.903 1.25-1.264.462-.361.99-.542 1.583-.542.777 0 1.412.231 1.902.694.491.463.736 1.167.736 2.112l.028 8.138h3.528v-9.027c.389-.519.806-.968 1.25-1.348.444-.38.972-.569 1.583-.569.797 0 1.44.231 1.93.694.492.463.737 1.167.737 2.112l.028 8.138h3.528v-8.61c0-1.278-.237-2.343-.709-3.195-.472-.852-1.097-1.496-1.875-1.93-.778-.436-1.639-.653-2.583-.653-.982 0-1.843.263-2.583.791-.741.528-1.39 1.171-1.945 1.93-.444-.907-1.065-1.587-1.861-2.04-.796-.455-1.685-.681-2.667-.681-.944 0-1.717.222-2.32.666-.601.445-1.115.935-1.54 1.472V7.476h-3.529v14.027h3.528z" transform="translate(-100 -1230) translate(30 481) translate(70 749) translate(92 21)"/>
                        <text font-family="NotoSansJP-Regular, Noto Sans JP" font-size="20.799" transform="translate(-100 -1230) translate(30 481) translate(70 749) translate(92 21)">
                            <tspan x="98.369" y="60.17">API</tspan>
                        </text>
                    </g>
                    <path stroke="#F8ABAB" stroke-dasharray=".149 22.285" stroke-linecap="round" stroke-linejoin="round" stroke-width="7.428" d="M71.138 309.486L71.138 124.5M348.138 309.486L348.138 144.5" transform="translate(-100 -1230) translate(30 481) translate(70 749)"/>
                    <path fill="#F8ABAB" fill-rule="nonzero" d="M77.599 301.772L77.599 319.599 64.228 310.685z" transform="translate(-100 -1230) translate(30 481) translate(70 749) rotate(-90 70.914 310.685)"/>
                    <path fill="#F8ABAB" fill-rule="nonzero" d="M355.599 301.772L355.599 319.599 342.228 310.685z" transform="translate(-100 -1230) translate(30 481) translate(70 749) rotate(-90 348.914 310.685)"/>
                    <path fill="#F8ABAB" fill-rule="nonzero" d="M355.599 122.772L355.599 140.599 342.228 131.685z" transform="translate(-100 -1230) translate(30 481) translate(70 749) rotate(90 348.914 131.685)"/>
                    <path fill="#FFF" fill-rule="nonzero" stroke="#FA2828" stroke-width="2" d="M139.029 194c.544 0 1.037.22 1.394.577.356.357.577.85.577 1.394h0v50.058c0 .544-.22 1.037-.577 1.394-.357.356-.85.577-1.394.577h0H2.97c-.544 0-1.037-.22-1.394-.577-.356-.357-.577-.85-.577-1.394h0V195.97c0-.544.22-1.037.577-1.394.357-.356.85-.577 1.394-.577h0zM417.029 194c.544 0 1.037.22 1.394.577.356.357.577.85.577 1.394h0v50.058c0 .544-.22 1.037-.577 1.394-.357.356-.85.577-1.394.577h0H280.97c-.544 0-1.037-.22-1.394-.577-.356-.357-.577-.85-.577-1.394h0V195.97c0-.544.22-1.037.577-1.394.357-.356.85-.577 1.394-.577h0z" transform="translate(-100 -1230) translate(30 481) translate(70 749)"/>
                    <text fill="#FA2828" font-family="NotoSansJP-Bold, Noto Sans JP" font-size="22" font-weight="bold" transform="translate(-100 -1230) translate(30 481) translate(70 749)">
                        <tspan x="25" y="229">API 提供</tspan>
                    </text>
                    <text fill="#FA2828" font-family="NotoSansJP-Bold, Noto Sans JP" font-size="22" font-weight="bold" transform="translate(-100 -1230) translate(30 481) translate(70 749)">
                        <tspan x="303" y="229">API 連携</tspan>
                    </text>
                    <text fill="#5F5F5F" font-family="NotoSansJP-Bold, Noto Sans JP" font-size="22" font-weight="bold" transform="translate(-100 -1230) translate(30 481) translate(70 749)">
                        <tspan x="27" y="512">導入企業</tspan>
                    </text>
                    <text fill="#5F5F5F" font-family="NotoSansJP-Bold, Noto Sans JP" font-size="22" font-weight="bold" transform="translate(-100 -1230) translate(30 481) translate(70 749)">
                        <tspan x="309" y="512">外部API</tspan>
                    </text>
                    <g transform="translate(-100 -1230) translate(30 481) translate(70 749) translate(296 342)">
                        <path fill="#5F5F5F" d="M85.272 83.782l-2.754 4.775c-.063.098-.194.132-.297.078l-4.285-2.476c-.695-.4-1.573-.234-2.075.39-1.31 1.632-2.803 3.127-4.439 4.44-.624.503-.789 1.381-.39 2.074l2.474 4.288c.06.102.022.234-.078.294l-4.776 2.754c-.084.056-.24.01-.292-.078l-2.471-4.283c-.401-.697-1.253-.991-1.992-.697-1.977.769-4.018 1.317-6.064 1.629-.791.12-1.377.798-1.377 1.602v4.938c0 .118-.098.217-.216.217h-5.511c-.119 0-.217-.099-.217-.217v-4.938c0-.804-.586-1.482-1.377-1.602-2.048-.312-4.09-.86-6.064-1.63-.191-.077-.392-.11-.59-.11-.564 0-1.105.296-1.402.808l-2.471 4.283c-.051.087-.207.127-.297.078l-4.769-2.754c-.104-.06-.14-.192-.082-.294l2.474-4.288c.4-.693.234-1.573-.388-2.074-1.631-1.309-3.127-2.802-4.441-4.44-.502-.624-1.38-.79-2.073-.39l-4.285 2.476c-.107.058-.239.023-.297-.078l-2.754-4.775c-.06-.103-.025-.234.078-.295l4.28-2.47c.694-.402.992-1.249.7-1.993-.77-1.975-1.319-4.018-1.629-6.062-.12-.795-.802-1.38-1.602-1.38h-4.94c-.118 0-.214-.097-.214-.215v-5.511c0-.12.096-.216.214-.216h4.94c.8 0 1.482-.584 1.602-1.378.31-2.048.858-4.089 1.63-6.061.291-.747-.007-1.591-.7-1.995l-4.279-2.469c-.105-.06-.14-.194-.08-.296l2.754-4.774.294-.078 4.288 2.472c.693.403 1.576.236 2.073-.388 1.308-1.633 2.803-3.127 4.44-4.444.625-.497.79-1.381.389-2.072l-2.474-4.283c-.049-.09-.009-.245.08-.297l4.771-2.754c.103-.06.237-.024.297.078l2.471 4.28c.4.694 1.246.993 1.992.698 1.968-.764 4.01-1.314 6.066-1.629.792-.12 1.375-.802 1.375-1.602V33.71c0-.116.098-.214.217-.214h5.51c.119 0 .217.098.217.214v4.938c0 .8.584 1.482 1.375 1.602 2.057.315 4.098.865 6.066 1.63.742.294 1.593-.005 1.992-.698L68.36 36.9c.058-.102.187-.143.294-.078l4.774 2.754.078.297-2.474 4.283c-.399.69-.234 1.573.39 2.072 1.638 1.317 3.131 2.81 4.44 4.446.5.622 1.381.79 2.074.386l4.288-2.472c.082-.058.243-.01.294.078l2.754 4.774c.06.102.025.236-.078.296l-4.283 2.47c-.693.403-.99 1.247-.697 1.994.768 1.968 1.317 4.009 1.629 6.064.12.79.802 1.375 1.602 1.375h4.938c.12 0 .216.095.216.216v5.51c0 .119-.095.217-.216.217h-4.938c-.8 0-1.482.584-1.602 1.377-.312 2.05-.86 4.092-1.63 6.064-.291.744.005 1.59.698 1.992l4.281 2.471c.105.06.14.192.08.295m1.542-3.102l-3.102-1.792c.455-1.333.82-2.694 1.095-4.065h3.576c1.906 0 3.459-1.55 3.459-3.456v-5.511c0-1.906-1.553-3.459-3.459-3.459h-3.576c-.275-1.368-.64-2.728-1.095-4.062l3.105-1.794c1.649-.954 2.215-3.073 1.263-4.723l-2.756-4.77c-.462-.803-1.208-1.376-2.1-1.612-.891-.24-1.825-.116-2.623.346l-3.106 1.793c-.925-1.054-1.921-2.048-2.975-2.975l1.794-3.108c.461-.798.586-1.732.345-2.623-.24-.894-.811-1.638-1.611-2.1l-4.771-2.754c-1.652-.956-3.769-.385-4.725 1.266l-1.79 3.1c-1.334-.453-2.693-.818-4.066-1.092v-3.58c0-1.902-1.551-3.456-3.456-3.456h-5.511c-1.906 0-3.457 1.554-3.457 3.457v3.579c-1.373.274-2.732.64-4.067 1.092l-1.792-3.1c-.953-1.651-3.077-2.215-4.722-1.266l-4.77 2.755c-.803.46-1.374 1.207-1.614 2.101-.239.891-.116 1.823.347 2.62l1.792 3.11c-1.054.926-2.05 1.918-2.973 2.974l-3.106-1.793c-.798-.462-1.73-.587-2.623-.346-.894.236-1.64.809-2.1 1.611l-2.756 4.771c-.954 1.65-.386 3.769 1.266 4.723l3.1 1.794c-.455 1.337-.82 2.696-1.092 4.062h-3.58c-1.902 0-3.456 1.553-3.456 3.459v5.51c0 1.906 1.554 3.457 3.457 3.457h3.579c.271 1.368.637 2.73 1.092 4.065l-3.102 1.792c-1.65.956-2.218 3.075-1.264 4.724l2.757 4.771c.951 1.65 3.07 2.222 4.722 1.266l3.106-1.794c.925 1.054 1.921 2.052 2.973 2.973l-1.792 3.109c-.953 1.649-.387 3.768 1.266 4.722l4.77 2.754c.801.464 1.73.586 2.624.346.892-.237 1.638-.81 2.1-1.61l1.791-3.102c1.337.457 2.697.82 4.067 1.092v3.58c0 1.907 1.551 3.456 3.457 3.456h5.51c1.906 0 3.457-1.549 3.457-3.457v-3.579c1.37-.271 2.728-.635 4.067-1.092l1.79 3.103c.46.8 1.207 1.372 2.099 1.609.893.24 1.827.118 2.625-.346l4.773-2.754c1.65-.954 2.218-3.073 1.264-4.722l-1.794-3.11c1.054-.924 2.048-1.92 2.973-2.972l3.108 1.794c1.654.954 3.77.385 4.723-1.266l2.756-4.771c.952-1.65.386-3.768-1.266-4.724"/>
                        <path fill="#5F5F5F" d="M53.484 87.52c-10.425 0-18.91-8.483-18.91-18.908 0-10.427 8.485-18.909 18.91-18.909 10.427 0 18.908 8.482 18.908 18.909 0 10.425-8.481 18.908-18.908 18.908m0-41.06c-12.212 0-22.15 9.935-22.15 22.152 0 12.214 9.938 22.149 22.15 22.149 12.212 0 22.149-9.935 22.149-22.15 0-12.216-9.937-22.15-22.15-22.15"/>
                        <mask id="dqc4cd92nd" fill="#fff">
                            <use xlink:href="#vjf6d8ex4c"/>
                        </mask>
                        <path fill="#5F5F5F" d="M3.24 15.127h100.485V3.242H3.24v11.885zM105.347 0H1.622C.726 0 0 .726 0 1.622v88.596c0 .896.726 1.622 1.622 1.622h12.961c.894 0 1.62-.726 1.62-1.622 0-.894-.726-1.62-1.62-1.62H3.243V18.369h100.482v70.229H92.384c-.894 0-1.62.726-1.62 1.62 0 .896.726 1.622 1.62 1.622h12.963c.894 0 1.62-.726 1.62-1.622V1.622c0-.896-.726-1.622-1.62-1.622z" mask="url(#dqc4cd92nd)"/>
                        <path fill="#5F5F5F" d="M94.972 10.807c.432 0 .842-.171 1.145-.474.301-.303.475-.713.475-1.146 0-.43-.174-.84-.475-1.143-.584-.606-1.662-.626-2.29 0-.304.303-.478.713-.478 1.143 0 .433.174.843.477 1.146.303.303.736.474 1.146.474M86.328 10.807c.887 0 1.62-.733 1.62-1.62 0-.909-.733-1.62-1.62-1.62-.885 0-1.62.711-1.62 1.62 0 .887.735 1.62 1.62 1.62M77.684 10.807c.432 0 .842-.171 1.145-.474.3-.303.477-.713.477-1.146 0-.43-.176-.84-.477-1.167-.604-.582-1.685-.582-2.29.024-.302.303-.476.713-.476 1.143 0 .433.174.843.475 1.146.303.303.716.474 1.146.474M57.19 56.254c-.848-.256-1.76.23-2.016 1.085l-6.483 21.612c-.258.856.228 1.76 1.086 2.02.156.044.312.066.465.066.698 0 1.342-.455 1.554-1.154l6.482-21.61c.257-.858-.23-1.763-1.087-2.019M45.848 60.844c-.744-.497-1.751-.297-2.248.448l-4.321 6.482c-.364.544-.364 1.255 0 1.799l4.32 6.482c.313.47.827.722 1.351.722.308 0 .622-.089.898-.271.744-.495.945-1.502.45-2.247l-3.723-5.584 3.723-5.585c.495-.744.294-1.751-.45-2.246M61.12 60.844c-.744.495-.947 1.502-.45 2.246l3.724 5.585-3.724 5.584c-.497.745-.294 1.752.45 2.247.277.182.588.272.898.272.524 0 1.036-.252 1.348-.723l4.324-6.482c.363-.544.363-1.255 0-1.799l-4.324-6.482c-.496-.745-1.502-.945-2.246-.448" mask="url(#dqc4cd92nd)"/>
                    </g>
                </g>
            </g>
        </g>
    </g>
</svg>
