<svg xmlns="http://www.w3.org/2000/svg" xmlns:xlink="http://www.w3.org/1999/xlink" width="130" height="34" viewBox="0 0 130 34">
    <defs>
        <path id="2jq02tzpga" d="M0.278 0.253L16.828 0.253 16.828 23.902 0.278 23.902z"/>
        <path id="jgww65n97c" d="M0 32.495L129.76 32.495 129.76 0.364 0 0.364z"/>
    </defs>
    <g fill="none" fill-rule="evenodd">
        <g>
            <g transform="translate(-30 -18) translate(30 18.626)">
                <path fill="#FA2828" d="M77.632 11.172c-2.518 0-4.566 2.048-4.566 4.566 0 2.517 2.048 4.565 4.566 4.565 2.517 0 4.565-2.048 4.565-4.565 0-2.518-2.048-4.566-4.565-4.566m0 12.84c-4.564 0-8.275-3.712-8.275-8.274 0-4.563 3.711-8.275 8.275-8.275 4.563 0 8.275 3.712 8.275 8.275 0 4.562-3.712 8.275-8.275 8.275"/>
                <g transform="translate(86.964 .111)">
                    <mask id="ykxwa6s7ib" fill="#fff">
                        <use xlink:href="#2jq02tzpga"/>
                    </mask>
                    <path fill="#FA2828" d="M8.553 23.902c-4.563 0-8.275-3.713-8.275-8.276 0-4.562 3.712-8.275 8.275-8.275h1.239v3.71h-1.24c-2.517 0-4.565 2.048-4.565 4.565 0 2.518 2.048 4.566 4.566 4.566 2.517 0 4.565-2.048 4.565-4.566V.253h3.71v15.373c0 4.563-3.713 8.276-8.275 8.276" mask="url(#ykxwa6s7ib)"/>
                </g>
                <path fill="#FA2828" d="M113.403 11.172c-2.518 0-4.566 2.048-4.566 4.566 0 2.517 2.048 4.565 4.566 4.565 2.517 0 4.565-2.048 4.565-4.565 0-2.518-2.048-4.566-4.565-4.566m0 12.84c-4.563 0-8.276-3.712-8.276-8.274 0-4.563 3.713-8.275 8.276-8.275 4.562 0 8.275 3.712 8.275 8.275 0 4.562-3.713 8.275-8.275 8.275"/>
                <mask id="zrwj9m3fld" fill="#fff">
                    <use xlink:href="#jgww65n97c"/>
                </mask>
                <path fill="#FA2828" d="M126.062 14.042L129.76 14.042 129.76 10.343 126.062 10.343zM126.062 21.464L129.76 21.464 129.76 17.766 126.062 17.766zM59.67 32.495h-.385v-3.709h.385c2.56 0 4.642-2.082 4.642-4.642v-8.406c0-2.56-2.082-4.643-4.642-4.643-2.56 0-4.642 2.083-4.642 4.643 0 2.56 2.083 4.641 4.642 4.641h1.24v3.71h-1.24c-4.605 0-8.351-3.747-8.351-8.351 0-4.605 3.746-8.352 8.351-8.352s8.351 3.747 8.351 8.352v8.406c0 4.605-3.746 8.351-8.35 8.351" mask="url(#zrwj9m3fld)"/>
                <path fill="#4D4B49" d="M2.141 11.959c0-.75-.15-1.276-.645-1.57-.08-.045-.163-.07-.245-.01-.18.12-.735.661-.97.92-.22.248-.281.396-.281.795v7.942c0 .66.148 1.13.64 1.385.085.046.166.063.247.012.18-.109.736-.585.968-.815.224-.221.286-.347.286-.702v-7.957zM16.25 11.959c0-.75-.145-1.276-.64-1.57-.082-.045-.163-.07-.245-.01-.176.12-.734.661-.97.92-.224.248-.28.396-.28.795v7.942c0 .66.145 1.13.642 1.385.082.046.158.063.246.012.177-.109.732-.585.969-.815.223-.221.278-.347.278-.702v-7.957zM11.574 16.354c.627.322.995.687 1 1.272.005.103-.014.185-.105.238-.19.12-.906.416-1.238.524-.31.106-.465.099-.8-.071l-5.585-2.848c-.704-.356-1.134-.751-1.17-1.356-.006-.1.009-.193.105-.239.201-.114.981-.38 1.336-.474.343-.092.513-.072.885.115l5.572 2.839zM31.649 11.959c0-.75-.148-1.276-.641-1.57-.079-.045-.16-.07-.244-.01-.181.12-.738.661-.973.92-.221.248-.279.396-.279.795v7.942c0 .66.149 1.13.64 1.385.083.046.162.063.248.012.177-.109.733-.585.97-.815.222-.221.279-.347.279-.702v-7.957zM45.76 11.959c0-.75-.141-1.276-.641-1.57-.08-.045-.162-.07-.246-.01-.178.12-.732.661-.966.92-.225.248-.285.396-.285.795v7.942c0 .66.152 1.13.645 1.385.081.046.165.063.245.012.178-.109.733-.585.97-.815.222-.221.277-.347.277-.702v-7.957zM41.087 16.354c.622.322.996.687 1 1.272 0 .103-.02.185-.106.238-.186.12-.904.416-1.237.524-.315.106-.47.099-.798-.071l-5.588-2.848c-.705-.356-1.129-.751-1.17-1.356-.007-.1.01-.193.108-.239.2-.114.979-.38 1.333-.474.34-.092.51-.072.887.115l5.571 2.839z" mask="url(#zrwj9m3fld)"/>
                <path fill="#FA2828" d="M19.924 14.773c-.421 0-.578.057-.842.296-.276.246-.848.837-.975 1.024-.064.09-.039.176.015.263.308.523.87.683 1.66.683h6.057c.418 0 .579-.067.844-.303.272-.243.844-.838.977-1.025.06-.091.033-.175-.019-.26-.307-.526-.868-.678-1.658-.678h-6.059z" mask="url(#zrwj9m3fld)"/>
            </g>
        </g>
    </g>
</svg>
