<svg xmlns="http://www.w3.org/2000/svg" xmlns:xlink="http://www.w3.org/1999/xlink" width="183" height="49" viewBox="0 0 183 49">
    <defs>
        <path id="nmgygxzana" d="M0 0.442L17.677 0.442 17.677 19.374 0 19.374z"/>
        <path id="a03g3dnilc" d="M0.35 0.172L18.828 0.172 18.828 28.583 0.35 28.583z"/>
        <path id="m46j9x2t7e" d="M0.408 0.458L38.888 0.458 38.888 47.469 0.408 47.469z"/>
    </defs>
    <g fill="none" fill-rule="evenodd">
        <g>
            <g>
                <g transform="translate(-30 -90) translate(30 90) translate(0 18.427)">
                    <mask id="a645w4v2pb" fill="#fff">
                        <use xlink:href="#nmgygxzana"/>
                    </mask>
                    <path fill="#423E3D" d="M.667 19.374V15.85H12.07c.57 0 1.06-.204 1.47-.614.408-.409.614-.899.614-1.468 0-.588-.206-1.086-.615-1.496-.41-.391-.9-.587-1.469-.587l-6.462-.027c-1.548 0-2.866-.542-3.95-1.629C.55 8.925 0 7.598 0 6.05 0 4.5.55 3.184 1.656 2.098 2.741.994 4.06.442 5.607.442h9.853v3.525H5.607c-.57 0-1.059.205-1.468.614-.41.41-.614.9-.614 1.469 0 .587.204 1.085.614 1.495.41.41.899.614 1.468.614h6.462c1.55 0 2.875.543 3.98 1.629 1.085 1.104 1.628 2.43 1.628 3.979 0 1.548-.543 2.874-1.629 3.978-1.104 1.086-2.43 1.63-3.979 1.63H.667z" mask="url(#a645w4v2pb)"/>
                </g>
                <path fill="#423E3D" d="M19.98 37.801V10.538h3.524V20.98c1.745-1.406 3.649-2.11 5.715-2.11 2.598 0 4.796.926 6.595 2.778 1.763 1.833 2.643 4.067 2.643 6.701v9.453h-3.524v-9.453c0-1.654-.544-3.06-1.63-4.219-1.103-1.156-2.465-1.735-4.084-1.735-1.621 0-2.982.579-4.086 1.735-1.085 1.158-1.629 2.565-1.629 4.22V37.8H19.98zM46.02 24.13c-1.158 1.174-1.736 2.581-1.736 4.219 0 1.638.578 3.034 1.736 4.192 1.157 1.157 2.554 1.736 4.192 1.736 1.638 0 3.035-.579 4.193-1.736 1.174-1.158 1.762-2.554 1.762-4.192 0-1.638-.588-3.045-1.762-4.22-1.158-1.156-2.555-1.735-4.193-1.735-1.638 0-3.035.579-4.192 1.735m-2.483 10.895c-1.852-1.851-2.778-4.076-2.778-6.675 0-2.617.926-4.85 2.778-6.703 1.85-1.851 4.076-2.777 6.675-2.777 2.617 0 4.85.926 6.703 2.777 1.85 1.852 2.776 4.086 2.776 6.703 0 2.6-.925 4.824-2.776 6.675-1.852 1.852-4.086 2.777-6.703 2.777-2.6 0-4.824-.925-6.675-2.777M71.446 34.517c1.638 0 3.045-.578 4.22-1.735 1.156-1.158 1.735-2.555 1.735-4.193 0-1.637-.579-3.044-1.736-4.22-1.174-1.156-2.581-1.735-4.219-1.735-1.638 0-3.035.58-4.192 1.736-1.157 1.175-1.736 2.582-1.736 4.219 0 1.638.579 3.035 1.736 4.193 1.157 1.157 2.554 1.735 4.192 1.735m0-15.407c2.617 0 4.85.925 6.703 2.777 1.851 1.852 2.776 4.085 2.776 6.702 0 2.6-.925 4.824-2.776 6.676-1.852 1.852-4.086 2.776-6.703 2.776-2.19 0-4.166-.72-5.928-2.162v10.52h-3.525v-17.81c0-2.617.926-4.85 2.778-6.702 1.85-1.852 4.076-2.777 6.675-2.777M99.866 34.25c1.637 0 3.035-.578 4.192-1.736 1.156-1.157 1.735-2.554 1.735-4.192 0-1.638-.579-3.044-1.735-4.22-1.157-1.156-2.555-1.735-4.192-1.735-1.656 0-3.062.58-4.22 1.736-1.157 1.175-1.735 2.581-1.735 4.219 0 1.638.578 3.035 1.735 4.192 1.158 1.158 2.564 1.736 4.22 1.736m0-15.408c2.599 0 4.823.926 6.675 2.778 1.851 1.851 2.777 4.085 2.777 6.702 0 2.6-.926 4.824-2.777 6.676-1.852 1.851-4.076 2.777-6.675 2.777-2.617 0-4.852-.926-6.703-2.777-1.851-1.852-2.777-4.077-2.777-6.676v-17.81h3.525v10.494c1.762-1.442 3.747-2.164 5.955-2.164" transform="translate(-30 -90) translate(30 90)"/>
                <g transform="translate(-30 -90) translate(30 90) translate(111.27 18.938)">
                    <mask id="iqrx8vqxkd" fill="#fff">
                        <use xlink:href="#a03g3dnilc"/>
                    </mask>
                    <path fill="#423E3D" d="M18.828 19.158c-.018 2.599-.953 4.823-2.804 6.675-1.834 1.833-4.059 2.75-6.676 2.75v-3.525c1.656 0 3.062-.578 4.22-1.735 1.156-1.158 1.735-2.564 1.735-4.22v-2.028c-1.692 1.353-3.596 2.029-5.715 2.029-2.599 0-4.797-.925-6.595-2.777C1.231 14.494.35 12.267.35 9.652V.172h3.524v9.48c0 1.655.544 3.052 1.63 4.192C6.607 15 7.969 15.579 9.588 15.579c1.62 0 2.982-.578 4.086-1.735 1.086-1.14 1.629-2.537 1.629-4.192V.172h3.525v18.986z" mask="url(#iqrx8vqxkd)"/>
                </g>
                <g transform="translate(-30 -90) translate(30 90) translate(143.938 .052)">
                    <mask id="p6gmqgbvff" fill="#fff">
                        <use xlink:href="#m46j9x2t7e"/>
                    </mask>
                    <path fill="#FA2828" d="M0.408 47.469L0.408 0.458 38.888 0.458 38.888 38.938 11.838 38.938z" mask="url(#p6gmqgbvff)"/>
                </g>
            </g>
        </g>
    </g>
</svg>
