<svg xmlns="http://www.w3.org/2000/svg" xmlns:xlink="http://www.w3.org/1999/xlink" width="521" height="611" viewBox="0 0 521 611">
    <defs>
        <path id="w3oicv1kha" d="M0.001 0L100.5 0 100.5 100.5 0.001 100.5z"/>
        <path id="fyno13868c" d="M0.001 0L100.5 0 100.5 100.5 0.001 100.5z"/>
        <path id="j72pnw1gwe" d="M0.001 0L100.5 0 100.5 100.5 0.001 100.5z"/>
        <path id="57n5p0y4vg" d="M0.001 0L100.5 0 100.5 100.5 0.001 100.5z"/>
    </defs>
    <g fill="none" fill-rule="evenodd">
        <g>
            <g>
                <g fill-rule="nonzero" stroke="#5F5F5F" stroke-width="3" transform="translate(-60 -928) translate(60 928) translate(5 11)">
                    <circle cx="56.25" cy="56.25" r="56.25" fill="#FFF"/>
                    <path d="M56.887 72.5c19.579 0 36.376 7.75 43.544 18.793-10.315 12.898-25.99 21.282-43.544 21.282s-33.23-8.384-43.545-21.281C20.511 80.25 37.308 72.5 56.887 72.5z"/>
                    <circle cx="57" cy="39" r="25.5"/>
                </g>
                <g fill-rule="nonzero" transform="translate(-60 -928) translate(60 928) translate(337)">
                    <rect width="136.2" height="116.7" x="1.65" y="1.65" fill="#FFF" stroke="#5F5F5F" stroke-width="3.3" rx="1.2"/>
                    <g fill="#5F5F5F">
                        <path d="M0 0H3.3V18H0zM69.885 0H73.185V18H69.885z" transform="translate(33 117)"/>
                    </g>
                    <path fill="#5F5F5F" d="M0 102H139.5V105.3H0z"/>
                    <rect width="108" height="3.3" x="17" y="135" fill="#5F5F5F" rx="1.65"/>
                    <g fill="#5F5F5F">
                        <path d="M37.972 68.735c0 2.003-1.645 3.626-3.67 3.626h-7.716c-2.027 0-3.67-1.623-3.67-3.626v-1.674c0-2.003 1.643-3.625 3.67-3.625h7.716c2.025 0 3.67 1.622 3.67 3.625v1.674zM4.37 54.639h-.645c-2.025 0-3.67 1.625-3.67 3.626v5.007c0 2.003.946 3.628 2.564 3.628h.404c1.75 0 1.347 1.623 1.347 3.626v2.349c0 2 1.644 3.625 3.67 3.625h5.608c2.027 0 3.67-1.625 3.67-3.626v-14.61c0-2-1.643-3.625-3.67-3.625H4.37zM49.948 24.121c-1.727 0-3.22 1.19-3.584 2.858l-2.051 9.343c-.364 1.667-1.86 2.857-3.587 2.857H17.75c-2.025 0-3.67 1.625-3.67 3.626v2.745c0 2.001 1.645 3.626 3.67 3.626h.753c2.025 0 3.67 1.625 3.67 3.628v1.805c0 2 1.644 3.625 3.669 3.625h28.446c1.723 0 3.213-1.186 3.584-2.853l5.945-26.861c.238-1.07-.029-2.19-.726-3.045-.696-.859-1.748-1.354-2.86-1.354H49.947zM72.573 16.249c-.331 1.706-1.84 2.941-3.606 2.941H53.012c-1.094 0-2.133-.478-2.826-1.312-.699-.835-.985-1.933-.78-2.992l2.307-11.94C52.043 1.237 53.556 0 55.318 0h15.958c1.093 0 2.128.481 2.825 1.317.7.833.983 1.93.778 2.993l-2.306 11.939z" transform="translate(33 17)"/>
                    </g>
                </g>
                <text fill="#5F5F5F" font-family="NotoSansJP-Bold, Noto Sans JP" font-size="22" font-weight="bold" transform="translate(-60 -928) translate(60 928)">
                    <tspan x="338.508" y="185">地域ECサイト</tspan>
                </text>
                <text fill="#5F5F5F" font-family="NotoSansJP-Bold, Noto Sans JP" font-size="22" font-weight="bold" transform="translate(-60 -928) translate(60 928)">
                    <tspan x="17" y="604">工芸品</tspan>
                </text>
                <text fill="#5F5F5F" font-family="NotoSansJP-Bold, Noto Sans JP" font-size="22" font-weight="bold" transform="translate(-60 -928) translate(60 928)">
                    <tspan x="157" y="604">特産物</tspan>
                </text>
                <text fill="#5F5F5F" font-family="NotoSansJP-Bold, Noto Sans JP" font-size="22" font-weight="bold" transform="translate(-60 -928) translate(60 928)">
                    <tspan x="306" y="604">観光</tspan>
                </text>
                <text fill="#5F5F5F" font-family="NotoSansJP-Bold, Noto Sans JP" font-size="22" font-weight="bold" transform="translate(-60 -928) translate(60 928)">
                    <tspan x="448" y="604">雑貨</tspan>
                </text>
                <text fill="#5F5F5F" font-family="NotoSansJP-Bold, Noto Sans JP" font-size="22" font-weight="bold" transform="translate(-60 -928) translate(60 928)">
                    <tspan x="29" y="185">お客様</tspan>
                </text>
                <path fill-rule="nonzero" stroke="#F8ABAB" stroke-dasharray="4.5 4.5" stroke-width="4.5" d="M351.302 319.75L351.302 369M351.3 238.75L351.3 270.793" transform="translate(-60 -928) translate(60 928)"/>
                <g fill-rule="nonzero">
                    <path fill="#F8ABAB" d="M15.725 133.725L15.725 152.044 2.956 142.884z" transform="translate(-60 -928) translate(60 928) matrix(-1 0 0 1 475 219) scale(1 -1) rotate(90 152.225 0)"/>
                    <path stroke="#F8ABAB" stroke-width="4.5" d="M9.34 0.75L9.34 143.25" transform="translate(-60 -928) translate(60 928) matrix(-1 0 0 1 475 219) rotate(-180 9.34 72)"/>
                </g>
                <g fill-rule="nonzero">
                    <path fill="#F8ABAB" d="M15.725 133.725L15.725 152.044 2.956 142.884z" transform="translate(-60 -928) translate(60 928) rotate(180 35.5 184.5) scale(1 -1) rotate(90 152.225 0)"/>
                    <path stroke="#F8ABAB" stroke-width="4.5" d="M9.34 0.75L9.34 143.25" transform="translate(-60 -928) translate(60 928) rotate(180 35.5 184.5) rotate(-180 9.34 72)"/>
                </g>
                <g>
                    <g transform="translate(-60 -928) translate(60 928) translate(420 457)">
                        <mask id="q79pvxlj9b" fill="#fff">
                            <use xlink:href="#w3oicv1kha"/>
                        </mask>
                        <path fill="#5F5F5F" d="M97.454 36.037c0 3.64-2.96 6.6-6.597 6.6h-8.122c-3.639 0-6.6-2.96-6.6-6.6v-.506h21.32v.506zm-21.898-3.553l-4.571-9.137h15.18l9.137 9.137H75.556zm-2.465 3.553c0 3.64-2.96 6.6-6.6 6.6h-8.12c-3.638 0-6.598-2.96-6.598-6.6v-.506H73.09v.506zm-5.51-12.69l4.57 9.137H51.773v-9.137H67.58zm-52.353-3.042h70.047V3.046H15.228v17.259zm33.5 12.18H28.35l4.569-9.138h15.81v9.137zm0 3.552c0 3.64-2.962 6.6-6.599 6.6h-8.122c-3.639 0-6.6-2.96-6.6-6.6v-.506h21.321v.506zm-23.782-3.553H5.197l9.137-9.137h15.18l-4.568 9.137zm-.582 3.553c0 3.64-2.961 6.6-6.6 6.6h-8.12c-3.638 0-6.6-2.96-6.6-6.6v-.506h21.32v.506zm75.69-3.105L88.32 21.195V1.524C88.32.682 87.637 0 86.795 0h-73.09c-.84 0-1.523.682-1.523 1.524v19.67L.445 32.933c-.292.29-.444.679-.444 1.077v2.028c0 5.319 4.325 9.644 9.643 9.644h2.538v53.297c0 .841.683 1.522 1.522 1.522h14.21c.84 0 1.523-.68 1.523-1.522s-.683-1.523-1.522-1.523H15.228V45.681h2.536c3.42 0 6.409-1.798 8.122-4.487 1.714 2.689 4.704 4.487 8.121 4.487h8.122c3.417 0 6.407-1.798 8.122-4.487 1.712 2.689 4.702 4.487 8.12 4.487h8.12c3.42 0 6.41-1.798 8.123-4.487 1.712 2.689 4.702 4.487 8.121 4.487h2.538v51.774H72.587c-.842 0-1.524.68-1.524 1.523 0 .841.682 1.522 1.524 1.522h14.208c.842 0 1.524-.68 1.524-1.522V45.68h2.538c5.318 0 9.644-4.325 9.644-9.644V34.01c0-.398-.155-.788-.446-1.077z" mask="url(#q79pvxlj9b)"/>
                    </g>
                    <path fill="#5F5F5F" d="M75.558 10.59c-.285.306-.446.691-.446 1.098 0 .385.161.77.446 1.055.285.285.69.446 1.076.446.406 0 .812-.161 1.097-.446.264-.285.425-.67.425-1.055 0-.407-.161-.813-.446-1.098-.57-.567-1.564-.567-2.152 0M67.498 10.144c-.834 0-1.522.69-1.522 1.543 0 .833.688 1.503 1.522 1.503.852 0 1.522-.67 1.522-1.503 0-.852-.67-1.543-1.522-1.543M57.285 10.59c-.285.285-.446.691-.446 1.077 0 .406.16.812.467 1.097.284.282.67.425 1.055.425.406 0 .791-.143 1.076-.425.285-.306.448-.691.448-1.097 0-.386-.163-.792-.448-1.077-.549-.567-1.583-.548-2.152 0" transform="translate(-60 -928) translate(60 928) translate(420 457)"/>
                    <g fill-rule="nonzero" transform="translate(-60 -928) translate(60 928) translate(420 457) translate(33 51)">
                        <rect width="18.214" height="11.488" x="7.393" y="1.5" fill="#FFF" stroke="#5F5F5F" stroke-width="3" rx="1.08"/>
                        <rect width="18.214" height="11.488" x="7.393" y="36.512" fill="#FFF" stroke="#5F5F5F" stroke-width="3" rx="1.08"/>
                        <ellipse cx="16.5" cy="24.402" fill="#FFF" stroke="#5F5F5F" stroke-width="3" rx="16.5" ry="16.902"/>
                        <g fill="#5F5F5F" transform="translate(13.5 15)">
                            <rect width="3" height="12.073" x="1.5" rx="1.5"/>
                            <rect width="3" height="12.073" x="6" y="4.5" rx="1.5" transform="rotate(-90 7.5 10.537)"/>
                        </g>
                    </g>
                </g>
                <g>
                    <g transform="translate(-60 -928) translate(60 928) translate(279 457) translate(.5)">
                        <mask id="j3yp9xnrld" fill="#fff">
                            <use xlink:href="#fyno13868c"/>
                        </mask>
                        <path fill="#5F5F5F" d="M97.454 36.037c0 3.64-2.96 6.6-6.597 6.6h-8.122c-3.639 0-6.6-2.96-6.6-6.6v-.506h21.32v.506zm-21.898-3.553l-4.571-9.137h15.18l9.137 9.137H75.556zm-2.465 3.553c0 3.64-2.96 6.6-6.6 6.6h-8.12c-3.638 0-6.598-2.96-6.598-6.6v-.506H73.09v.506zm-5.51-12.69l4.57 9.137H51.773v-9.137H67.58zm-52.353-3.042h70.047V3.046H15.228v17.259zm33.5 12.18H28.35l4.569-9.138h15.81v9.137zm0 3.552c0 3.64-2.962 6.6-6.599 6.6h-8.122c-3.639 0-6.6-2.96-6.6-6.6v-.506h21.321v.506zm-23.782-3.553H5.197l9.137-9.137h15.18l-4.568 9.137zm-.582 3.553c0 3.64-2.961 6.6-6.6 6.6h-8.12c-3.638 0-6.6-2.96-6.6-6.6v-.506h21.32v.506zm75.69-3.105L88.32 21.195V1.524C88.32.682 87.637 0 86.795 0h-73.09c-.84 0-1.523.682-1.523 1.524v19.67L.445 32.933c-.292.29-.444.679-.444 1.077v2.028c0 5.319 4.325 9.644 9.643 9.644h2.538v53.297c0 .841.683 1.522 1.522 1.522h14.21c.84 0 1.523-.68 1.523-1.522s-.683-1.523-1.522-1.523H15.228V45.681h2.536c3.42 0 6.409-1.798 8.122-4.487 1.714 2.689 4.704 4.487 8.121 4.487h8.122c3.417 0 6.407-1.798 8.122-4.487 1.712 2.689 4.702 4.487 8.12 4.487h8.12c3.42 0 6.41-1.798 8.123-4.487 1.712 2.689 4.702 4.487 8.121 4.487h2.538v51.774H72.587c-.842 0-1.524.68-1.524 1.523 0 .841.682 1.522 1.524 1.522h14.208c.842 0 1.524-.68 1.524-1.522V45.68h2.538c5.318 0 9.644-4.325 9.644-9.644V34.01c0-.398-.155-.788-.446-1.077z" mask="url(#j3yp9xnrld)"/>
                    </g>
                    <path fill="#5F5F5F" d="M76.058 10.59c-.285.306-.446.691-.446 1.098 0 .385.161.77.446 1.055.285.285.69.446 1.076.446.406 0 .812-.161 1.097-.446.264-.285.425-.67.425-1.055 0-.407-.161-.813-.446-1.098-.57-.567-1.564-.567-2.152 0M67.998 10.144c-.834 0-1.522.69-1.522 1.543 0 .833.688 1.503 1.522 1.503.852 0 1.522-.67 1.522-1.503 0-.852-.67-1.543-1.522-1.543M57.785 10.59c-.285.285-.446.691-.446 1.077 0 .406.16.812.467 1.097.284.282.67.425 1.055.425.406 0 .791-.143 1.076-.425.285-.306.448-.691.448-1.097 0-.386-.163-.792-.448-1.077-.549-.567-1.583-.548-2.152 0" transform="translate(-60 -928) translate(60 928) translate(279 457)"/>
                    <g fill-rule="nonzero" transform="translate(-60 -928) translate(60 928) translate(279 457) translate(33 61.5)">
                        <rect width="33" height="26.586" x="1.5" y="10.914" stroke="#5F5F5F" stroke-width="3" rx="1.35"/>
                        <path stroke="#5F5F5F" stroke-width="3" d="M9.536 8.678C9.841 6.89 10.7 5.29 11.93 4.061c1.553-1.554 3.7-2.515 6.071-2.515 2.371 0 4.518.961 6.071 2.515 1.272 1.271 2.146 2.94 2.422 4.802l.039.304z"/>
                        <path fill="#5F5F5F" d="M8 9.414H11V39H8zM25.333 9.414H28.333V39H25.333z"/>
                    </g>
                </g>
                <g>
                    <g>
                        <g transform="translate(-60 -928) translate(60 928) translate(140 457)">
                            <mask id="mzoqsdxscf" fill="#fff">
                                <use xlink:href="#j72pnw1gwe"/>
                            </mask>
                            <path fill="#5F5F5F" d="M97.454 36.037c0 3.64-2.96 6.6-6.597 6.6h-8.122c-3.639 0-6.6-2.96-6.6-6.6v-.506h21.32v.506zm-21.898-3.553l-4.571-9.137h15.18l9.137 9.137H75.556zm-2.465 3.553c0 3.64-2.96 6.6-6.6 6.6h-8.12c-3.638 0-6.598-2.96-6.598-6.6v-.506H73.09v.506zm-5.51-12.69l4.57 9.137H51.773v-9.137H67.58zm-52.353-3.042h70.047V3.046H15.228v17.259zm33.5 12.18H28.35l4.569-9.138h15.81v9.137zm0 3.552c0 3.64-2.962 6.6-6.599 6.6h-8.122c-3.639 0-6.6-2.96-6.6-6.6v-.506h21.321v.506zm-23.782-3.553H5.197l9.137-9.137h15.18l-4.568 9.137zm-.582 3.553c0 3.64-2.961 6.6-6.6 6.6h-8.12c-3.638 0-6.6-2.96-6.6-6.6v-.506h21.32v.506zm75.69-3.105L88.32 21.195V1.524C88.32.682 87.637 0 86.795 0h-73.09c-.84 0-1.523.682-1.523 1.524v19.67L.445 32.933c-.292.29-.444.679-.444 1.077v2.028c0 5.319 4.325 9.644 9.643 9.644h2.538v53.297c0 .841.683 1.522 1.522 1.522h14.21c.84 0 1.523-.68 1.523-1.522s-.683-1.523-1.522-1.523H15.228V45.681h2.536c3.42 0 6.409-1.798 8.122-4.487 1.714 2.689 4.704 4.487 8.121 4.487h8.122c3.417 0 6.407-1.798 8.122-4.487 1.712 2.689 4.702 4.487 8.12 4.487h8.12c3.42 0 6.41-1.798 8.123-4.487 1.712 2.689 4.702 4.487 8.121 4.487h2.538v51.774H72.587c-.842 0-1.524.68-1.524 1.523 0 .841.682 1.522 1.524 1.522h14.208c.842 0 1.524-.68 1.524-1.522V45.68h2.538c5.318 0 9.644-4.325 9.644-9.644V34.01c0-.398-.155-.788-.446-1.077z" mask="url(#mzoqsdxscf)"/>
                        </g>
                        <path fill="#5F5F5F" d="M75.558 10.59c-.285.306-.446.691-.446 1.098 0 .385.161.77.446 1.055.285.285.69.446 1.076.446.406 0 .812-.161 1.097-.446.264-.285.425-.67.425-1.055 0-.407-.161-.813-.446-1.098-.57-.567-1.564-.567-2.152 0M67.498 10.144c-.834 0-1.522.69-1.522 1.543 0 .833.688 1.503 1.522 1.503.852 0 1.522-.67 1.522-1.503 0-.852-.67-1.543-1.522-1.543M57.285 10.59c-.285.285-.446.691-.446 1.077 0 .406.16.812.467 1.097.284.282.67.425 1.055.425.406 0 .791-.143 1.076-.425.285-.306.448-.691.448-1.097 0-.386-.163-.792-.448-1.077-.549-.567-1.583-.548-2.152 0" transform="translate(-60 -928) translate(60 928) translate(140 457)"/>
                    </g>
                    <g fill="#FFF" fill-rule="nonzero" stroke="#5F5F5F" stroke-width="3" transform="translate(-60 -928) translate(60 928) translate(140 457) translate(33 55.5)">
                        <rect width="31.5" height="27" x="1.5" y="16.5" rx="1.5"/>
                        <rect width="10.5" height="9" x="12" y="7.5" rx="1.5"/>
                        <rect width="19.5" height="6" x="7.5" y="1.5" rx="1.5"/>
                    </g>
                </g>
                <g>
                    <g>
                        <g transform="translate(-60 -928) translate(60 928) translate(0 457)">
                            <mask id="13jvwzfvoh" fill="#fff">
                                <use xlink:href="#57n5p0y4vg"/>
                            </mask>
                            <path fill="#5F5F5F" d="M97.454 36.037c0 3.64-2.96 6.6-6.597 6.6h-8.122c-3.639 0-6.6-2.96-6.6-6.6v-.506h21.32v.506zm-21.898-3.553l-4.571-9.137h15.18l9.137 9.137H75.556zm-2.465 3.553c0 3.64-2.96 6.6-6.6 6.6h-8.12c-3.638 0-6.598-2.96-6.598-6.6v-.506H73.09v.506zm-5.51-12.69l4.57 9.137H51.773v-9.137H67.58zm-52.353-3.042h70.047V3.046H15.228v17.259zm33.5 12.18H28.35l4.569-9.138h15.81v9.137zm0 3.552c0 3.64-2.962 6.6-6.599 6.6h-8.122c-3.639 0-6.6-2.96-6.6-6.6v-.506h21.321v.506zm-23.782-3.553H5.197l9.137-9.137h15.18l-4.568 9.137zm-.582 3.553c0 3.64-2.961 6.6-6.6 6.6h-8.12c-3.638 0-6.6-2.96-6.6-6.6v-.506h21.32v.506zm75.69-3.105L88.32 21.195V1.524C88.32.682 87.637 0 86.795 0h-73.09c-.84 0-1.523.682-1.523 1.524v19.67L.445 32.933c-.292.29-.444.679-.444 1.077v2.028c0 5.319 4.325 9.644 9.643 9.644h2.538v53.297c0 .841.683 1.522 1.522 1.522h14.21c.84 0 1.523-.68 1.523-1.522s-.683-1.523-1.522-1.523H15.228V45.681h2.536c3.42 0 6.409-1.798 8.122-4.487 1.714 2.689 4.704 4.487 8.121 4.487h8.122c3.417 0 6.407-1.798 8.122-4.487 1.712 2.689 4.702 4.487 8.12 4.487h8.12c3.42 0 6.41-1.798 8.123-4.487 1.712 2.689 4.702 4.487 8.121 4.487h2.538v51.774H72.587c-.842 0-1.524.68-1.524 1.523 0 .841.682 1.522 1.524 1.522h14.208c.842 0 1.524-.68 1.524-1.522V45.68h2.538c5.318 0 9.644-4.325 9.644-9.644V34.01c0-.398-.155-.788-.446-1.077z" mask="url(#13jvwzfvoh)"/>
                        </g>
                        <path fill="#5F5F5F" d="M75.558 10.59c-.285.306-.446.691-.446 1.098 0 .385.161.77.446 1.055.285.285.69.446 1.076.446.406 0 .812-.161 1.097-.446.264-.285.425-.67.425-1.055 0-.407-.161-.813-.446-1.098-.57-.567-1.564-.567-2.152 0M67.498 10.144c-.834 0-1.522.69-1.522 1.543 0 .833.688 1.503 1.522 1.503.852 0 1.522-.67 1.522-1.503 0-.852-.67-1.543-1.522-1.543M57.285 10.59c-.285.285-.446.691-.446 1.077 0 .406.16.812.467 1.097.284.282.67.425 1.055.425.406 0 .791-.143 1.076-.425.285-.306.448-.691.448-1.097 0-.386-.163-.792-.448-1.077-.549-.567-1.583-.548-2.152 0" transform="translate(-60 -928) translate(60 928) translate(0 457)"/>
                    </g>
                    <g fill-rule="nonzero" transform="translate(-60 -928) translate(60 928) translate(0 457) translate(36.75 52.5)">
                        <rect width="15" height="30" x="6" y="16.5" fill="#FFF" stroke="#5F5F5F" stroke-width="3" rx="3"/>
                        <rect width="24" height="24" x="1.5" y="1.5" fill="#FFF" stroke="#5F5F5F" stroke-width="3" rx="7.5"/>
                        <circle cx="9" cy="9" r="1.5" fill="#5F5F5F"/>
                        <circle cx="18" cy="9" r="1.5" fill="#5F5F5F"/>
                    </g>
                </g>
                <g fill-rule="nonzero">
                    <path fill="#F8ABAB" d="M15.884 174.725L15.884 193.044 3.116 183.884z" transform="translate(-60 -928) translate(60 928) matrix(0 1 1 0 132 62) scale(1 -1) rotate(90 193.384 0)"/>
                    <path stroke="#F8ABAB" stroke-width="4.5" d="M9.34 0.75L9.34 184" transform="translate(-60 -928) translate(60 928) matrix(0 1 1 0 132 62) rotate(-180 9.34 92.5)"/>
                </g>
                <path fill="#F8ABAB" fill-rule="nonzero" d="M357.75 216.75L357.75 234.75 344.25 225.75z" transform="translate(-60 -928) translate(60 928) rotate(90 351 225.75)"/>
                <g transform="translate(-60 -928) translate(60 928) translate(306 277)">
                    <rect width="87" height="36" x="1.5" y="1.5" fill="#FFF" fill-rule="nonzero" stroke="#FA2828" stroke-width="3" rx="3"/>
                    <text fill="#FA2828" font-family="NotoSansJP-Bold, Noto Sans JP" font-size="18" font-weight="bold">
                        <tspan x="9" y="27">商品登録</tspan>
                    </text>
                </g>
                <g transform="translate(-60 -928) translate(60 928) translate(419 277)">
                    <rect width="87" height="36" x="1.5" y="1.5" fill="#FFF" fill-rule="nonzero" stroke="#FA2828" stroke-width="3" rx="3"/>
                    <text fill="#FA2828" font-family="NotoSansJP-Bold, Noto Sans JP" font-size="18" font-weight="bold">
                        <tspan x="28.5" y="26.5">注文</tspan>
                    </text>
                </g>
                <g transform="translate(-60 -928) translate(60 928) translate(17 277)">
                    <rect width="87" height="36" x="1.5" y="1.5" fill="#FFF" fill-rule="nonzero" stroke="#FA2828" stroke-width="3" rx="3"/>
                    <text fill="#FA2828" font-family="NotoSansJP-Bold, Noto Sans JP" font-size="18" font-weight="bold">
                        <tspan x="10.5" y="26.5">商品直送</tspan>
                    </text>
                </g>
                <g transform="translate(-60 -928) translate(60 928) translate(183 52)">
                    <rect width="87" height="36" x="1.5" y="1.5" fill="#FFF" fill-rule="nonzero" stroke="#FA2828" stroke-width="3" rx="3"/>
                    <text fill="#FA2828" font-family="NotoSansJP-Bold, Noto Sans JP" font-size="18" font-weight="bold">
                        <tspan x="28.5" y="26.5">注文</tspan>
                    </text>
                </g>
                <path fill-rule="nonzero" stroke="#F8ABAB" stroke-width="4.5" d="M50 431L50 407 470 407 470 431M190.25 407L190.25 431M328.25 407L328.25 431" transform="translate(-60 -928) translate(60 928)"/>
            </g>
        </g>
    </g>
</svg>
